SplineFontDB: 3.0
FontName: KacstTitle
FullName: KacstTitle
FamilyName: KacstTitle
Weight: Medium
Copyright: KACST holds the copyright of the included Arabic font which is donated under GPL by KACST. \nURW Design and Development holds the copyright of the included Latin font which is donated under GPL by URW. 
Version: 1
ItalicAngle: 0
UnderlinePosition: -800
UnderlineWidth: 100
Ascent: 1638
Descent: 410
LayerCount: 2
Layer: 0 1 "Back" 
Layer: 1 1 "Fore" 
NeedsXUIDChange: 1
XUID: [1021 917 2001022060 12996860]
FSType: 0
OS2Version: 2
OS2_WeightWidthSlopeOnly: 0
OS2_UseTypoMetrics: 1
CreationTime: 1163511077
ModificationTime: 1215812585
PfmFamily: 17
TTFWeight: 500
TTFWidth: 5
LineGap: 59
VLineGap: 0
Panose: 2 0 0 0 0 0 0 0 0 0
OS2TypoAscent: -38
OS2TypoAOffset: 1
OS2TypoDescent: -190
OS2TypoDOffset: 1
OS2TypoLinegap: 59
OS2WinAscent: -1
OS2WinAOffset: 1
OS2WinDescent: -25
OS2WinDOffset: 1
HheadAscent: -564
HheadAOffset: 1
HheadDescent: 425
HheadDOffset: 1
OS2SubXSize: 1434
OS2SubYSize: 1331
OS2SubXOff: 0
OS2SubYOff: 293
OS2SupXSize: 1434
OS2SupYSize: 1331
OS2SupXOff: 0
OS2SupYOff: 928
OS2StrikeYSize: 102
OS2StrikeYPos: 530
OS2Vendor: 'GLYF'
OS2CodePages: 00000040.00000000
OS2UnicodeRanges: 00002000.00000000.00000000.00000000
Lookup: 1 0 0 "'aalt' Access All Alternates in Latin lookup 0"  {"'aalt' Access All Alternates in Latin lookup 0 subtable"  } ['aalt' ('latn' <'dflt' > ) ]
Lookup: 3 0 0 "'aalt' Access All Alternates in Latin lookup 1"  {"'aalt' Access All Alternates in Latin lookup 1 subtable"  } ['aalt' ('latn' <'dflt' > ) ]
Lookup: 1 1 0 "'isol' Isolated Forms in Arabic lookup 2"  {"'isol' Isolated Forms in Arabic lookup 2 subtable"  } ['isol' ('arab' <'dflt' > ) ]
Lookup: 1 1 0 "'init' Initial Forms in Arabic lookup 3"  {"'init' Initial Forms in Arabic lookup 3 subtable"  } ['init' ('arab' <'dflt' > ) ]
Lookup: 1 1 0 "'medi' Medial Forms in Arabic lookup 4"  {"'medi' Medial Forms in Arabic lookup 4 subtable"  } ['medi' ('arab' <'dflt' > ) ]

StartChar: arabiccomma
Encoding: 1548 1548 1
Width: 403
Flags: W
LayerCount: 2
Fore
SplineSet
277 379 m 1,0,1
 239 351 239 351 207 314 c 128,-1,2
 175 277 175 277 158.5 241 c 128,-1,3
 142 205 142 205 144 174.5 c 128,-1,4
 146 144 146 144 175 130 c 1,5,-1
 177 131 l 1,6,7
 185 138 185 138 192.5 142.5 c 128,-1,8
 200 147 200 147 207 151 c 1,9,-1
 209 153 l 1,10,11
 213 155 213 155 214 156 c 1,12,13
 219 158 219 158 222.5 159.5 c 128,-1,14
 226 161 226 161 229 163 c 1,15,-1
 234 164 l 1,16,-1
 235 164 l 1,17,18
 237 165 237 165 247 165 c 0,19,20
 254 165 254 165 260 164 c 128,-1,21
 266 163 266 163 271 161 c 0,22,23
 274 160 274 160 278 158 c 1,24,25
 279 157 279 157 280 157 c 1,26,27
 283 155 283 155 285.5 153 c 128,-1,28
 288 151 288 151 291 149 c 0,29,30
 295 145 295 145 296 143 c 2,31,32
 297 142 297 142 297.5 141 c 128,-1,33
 298 140 298 140 299 139 c 256,34,35
 300 138 300 138 302 134 c 0,36,37
 305 130 305 130 309 120 c 1,38,-1
 317 82 l 1,39,-1
 317 79 l 2,40,41
 317 74 317 74 316.5 70.5 c 128,-1,42
 316 67 316 67 315 63 c 2,43,44
 315 59 315 59 313 51 c 1,45,46
 312 49 312 49 312 48 c 1,47,-1
 311 46 l 1,48,49
 311 44 311 44 310 43 c 1,50,51
 310 41 310 41 308 37 c 0,52,53
 307 35 307 35 306.5 33.5 c 128,-1,54
 306 32 306 32 305 30 c 0,55,56
 303 26 303 26 299 20 c 0,57,58
 296 14 296 14 291 9 c 0,59,60
 285 3 l 128,-1,61
 282 0 282 0 279 -2 c 0,62,63
 277 -3 277 -3 276.5 -3.5 c 128,-1,64
 276 -4 276 -4 274 -5 c 1,65,66
 272 -7 272 -7 269.5 -8.5 c 128,-1,67
 267 -10 267 -10 264 -11 c 1,68,69
 263 -12 263 -12 263 -22 c 256,70,71
 263 -32 263 -32 262 -32 c 1,72,-1
 262 -12 l 1,73,74
 260 -14 260 -14 257 -14.5 c 128,-1,75
 254 -15 254 -15 252 -16 c 1,76,77
 251 -17 251 -17 249 -17 c 1,78,-1
 244 -19 l 1,79,-1
 241 -19 l 1,80,81
 239 -20 239 -20 236 -20 c 0,82,83
 231 -21 231 -21 221 -21 c 2,84,-1
 208 -21 l 1,85,-1
 199 -19 l 2,86,87
 188 -17 188 -17 179 -13 c 2,88,-1
 173 -10 l 1,89,90
 172 -9 172 -9 168 -7 c 2,91,92
 167 -6 167 -6 163 -4 c 2,93,94
 162 -3 162 -3 161 -2.5 c 128,-1,95
 160 -2 160 -2 158 0 c 0,96,97
 140 15 140 15 128 39 c 2,98,-1
 124 50 l 1,99,-1
 124 49 l 1,100,-1
 122 52 l 1,101,102
 120 60 120 60 119 63 c 2,103,-1
 112 88 l 1,104,-1
 111 98 l 1,105,106
 110 100 110 100 110 106 c 0,107,108
 110 107 110 107 109.5 107.5 c 128,-1,109
 109 108 109 108 109 110 c 2,110,-1
 109 143 l 2,111,112
 109 148 109 148 110 151 c 1,113,-1
 110 156 l 1,114,115
 116 193 116 193 132 230 c 128,-1,116
 148 267 148 267 170 300 c 128,-1,117
 192 333 192 333 219.5 360 c 128,-1,118
 247 387 247 387 276 405 c 1,119,-1
 277 379 l 1,0,1
EndSplineSet
EndChar

StartChar: arabicsemicolon
Encoding: 1563 1563 2
Width: 852
Flags: W
LayerCount: 2
Fore
SplineSet
580 371 m 0,0,1
 580 350 580 350 572.5 330.5 c 128,-1,2
 565 311 565 311 550.5 296.5 c 128,-1,3
 536 282 536 282 515 273 c 128,-1,4
 494 264 494 264 467 264 c 0,5,6
 405 264 405 264 349 335 c 256,7,8
 293 406 293 406 293 500 c 0,9,10
 293 597 293 597 346 668 c 0,11,12
 384 721 384 721 438 749 c 1,13,-1
 469 758 l 1,14,15
 429 732 429 732 398 674 c 0,16,17
 373 618 373 618 373 561 c 0,18,19
 373 506 373 506 406 451 c 1,20,-1
 438 471 l 1,21,22
 448 475 448 475 457.5 477.5 c 128,-1,23
 467 480 467 480 475 481 c 0,24,25
 497 481 497 481 516.5 472 c 128,-1,26
 536 463 536 463 550 448 c 128,-1,27
 564 433 564 433 572 413 c 128,-1,28
 580 393 580 393 580 371 c 0,0,1
539 74 m 0,29,30
 539 56 539 56 532 40.5 c 128,-1,31
 525 25 525 25 513.5 13.5 c 128,-1,32
 502 2 502 2 486.5 -5 c 128,-1,33
 471 -12 471 -12 453 -12 c 0,34,35
 421 -12 421 -12 396 15 c 0,36,37
 371 40 371 40 371 74 c 0,38,39
 371 106 371 106 396 131 c 0,40,41
 421 158 421 158 453 158 c 0,42,43
 486 158 486 158 512 132 c 0,44,45
 539 108 539 108 539 74 c 0,29,30
EndSplineSet
EndChar

StartChar: arabicquestionmark
Encoding: 1567 1567 3
Width: 828
Flags: W
LayerCount: 2
Fore
SplineSet
639 804 m 1,0,-1
 427 804 l 1,1,-1
 427 951 l 2,2,3
 427 971 427 971 423.5 988 c 128,-1,4
 420 1005 420 1005 412 1020 c 0,5,6
 383 1066 383 1066 326 1066 c 0,7,8
 275 1066 275 1066 237 1022 c 0,9,10
 223 1001 223 1001 223 951 c 2,11,-1
 223 779 l 1,12,-1
 223 740 l 2,13,14
 223 711 223 711 225 707 c 2,15,16
 225 683 225 683 270 642 c 2,17,-1
 407 520 l 1,18,-1
 432 496 l 1,19,-1
 445 475 l 1,20,21
 457 438 457 438 457 419 c 2,22,-1
 457 324 l 1,23,-1
 245 324 l 1,24,-1
 245 358 l 1,25,-1
 246 373 l 1,26,-1
 246 384 l 1,27,-1
 244 399 l 2,28,29
 243 410 243 410 234 420 c 1,30,-1
 230 430 l 2,31,32
 227 441 227 441 218 448 c 1,33,-1
 195 475 l 1,34,-1
 66 611 l 2,35,36
 45 633 45 633 31 652 c 1,37,-1
 17 684 l 1,38,-1
 12 725 l 1,39,-1
 11 773 l 1,40,-1
 11 1046 l 1,41,-1
 11 1079 l 2,42,43
 11 1090 11 1090 21 1123 c 2,44,-1
 29 1142 l 1,45,-1
 39 1164 l 1,46,-1
 51 1182 l 2,47,48
 94 1244 94 1244 193 1244 c 2,49,-1
 423 1244 l 2,50,51
 508 1244 508 1244 576 1212 c 0,52,53
 639 1179 639 1179 639 1084 c 2,54,-1
 639 1046 l 1,55,-1
 639 987 l 1,56,-1
 639 804 l 1,0,-1
269 199 m 1,57,-1
 432 199 l 1,58,-1
 432 36 l 1,59,-1
 269 36 l 1,60,-1
 269 199 l 1,57,-1
EndSplineSet
EndChar

StartChar: hamza
Encoding: 1569 1569 4
Width: 796
Flags: W
AnchorPoint: "ArabicBelow" 398 -233 basechar 0
AnchorPoint: "ArabicAbove" 398 650 basechar 0
LayerCount: 2
Fore
SplineSet
447 211 m 1,0,-1
 447 203 l 2,1,2
 447 183 447 183 463 172 c 128,-1,3
 479 161 479 161 495 161 c 2,4,-1
 637 161 l 1,5,-1
 637 17 l 1,6,-1
 207 17 l 1,7,-1
 207 161 l 1,8,-1
 303 161 l 1,9,-1
 303 281 l 1,10,-1
 303 306 l 1,11,12
 309 348 309 348 332 374 c 1,13,14
 364 400 364 400 399 400 c 2,15,-1
 543 400 l 2,16,17
 584 396 584 396 609 374 c 0,18,19
 637 346 637 346 637 306 c 2,20,-1
 637 233 l 1,21,-1
 589 233 l 1,22,-1
 577 247 l 2,23,24
 568 256 568 256 543 256 c 2,25,-1
 495 256 l 2,26,27
 480 256 480 256 460 242 c 0,28,29
 454 237 454 237 451 230 c 1,30,-1
 447 211 l 1,0,-1
EndSplineSet
Substitution2: "'isol' Isolated Forms in Arabic lookup 2 subtable" hamzaisolated
Substitution2: "'aalt' Access All Alternates in Latin lookup 0 subtable" hamzaisolated
EndChar

StartChar: alefwithmaddaabove
Encoding: 1570 1570 5
Width: 497
Flags: W
AnchorPoint: "ArabicBelow" 248 -251 basechar 0
AnchorPoint: "ArabicAbove" 248 1871 basechar 0
LayerCount: 2
Fore
SplineSet
170 -1 m 1,0,-1
 333 -1 l 1,1,-1
 333 1434 l 1,2,-1
 170 1434 l 1,3,-1
 170 -1 l 1,0,-1
486 1496 m 1,4,-1
 14 1496 l 1,5,-1
 14 1621 l 1,6,-1
 486 1621 l 1,7,-1
 486 1496 l 1,4,-1
EndSplineSet
Substitution2: "'fina' Terminal Forms in Arabic lookup 5 subtable" alefwithmaddaabovefinal
Substitution2: "'isol' Isolated Forms in Arabic lookup 2 subtable" alefwithmaddaaboveisolated
AlternateSubs2: "'aalt' Access All Alternates in Latin lookup 1 subtable" alefwithmaddaaboveisolated alefwithmaddaabovefinal
EndChar

StartChar: alefwithhamzaabove
Encoding: 1571 1571 6
Width: 497
Flags: W
AnchorPoint: "ArabicBelow" 248 -251 basechar 0
AnchorPoint: "ArabicAbove" 248 1886 basechar 0
LayerCount: 2
Fore
SplineSet
170 1234 m 1,0,-1
 333 1234 l 1,1,-1
 333 -1 l 1,2,-1
 170 -1 l 1,3,-1
 170 1234 l 1,0,-1
268 1468 m 2,4,5
 268 1451 268 1451 281.5 1441.5 c 128,-1,6
 295 1432 295 1432 309 1432 c 2,7,-1
 430 1432 l 1,8,-1
 430 1309 l 1,9,-1
 63 1309 l 1,10,-1
 63 1432 l 1,11,-1
 145 1432 l 1,12,-1
 145 1534 l 1,13,-1
 145 1556 l 2,14,15
 150 1592 150 1592 170 1614 c 0,16,17
 195 1636 195 1636 227 1636 c 2,18,-1
 350 1636 l 2,19,20
 384 1632 384 1632 406 1614 c 0,21,22
 430 1590 430 1590 430 1556 c 2,23,-1
 430 1493 l 1,24,-1
 389 1493 l 1,25,-1
 379 1505 l 2,26,27
 371 1513 371 1513 350 1513 c 2,28,-1
 309 1513 l 2,29,30
 294 1513 294 1513 279 1501 c 0,31,32
 274 1497 274 1497 271 1491 c 1,33,-1
 268 1475 l 1,34,-1
 268 1468 l 2,4,5
EndSplineSet
Substitution2: "'fina' Terminal Forms in Arabic lookup 5 subtable" alefwithhamzaabovefinal
Substitution2: "'isol' Isolated Forms in Arabic lookup 2 subtable" alefwithhamzaaboveisolated
AlternateSubs2: "'aalt' Access All Alternates in Latin lookup 1 subtable" alefwithhamzaaboveisolated alefwithhamzaabovefinal
EndChar

StartChar: wawwithhamzaabove
Encoding: 1572 1572 7
Width: 1603
Flags: W
AnchorPoint: "ArabicBelow" 801 -570 basechar 0
AnchorPoint: "ArabicAbove" 801 1886 basechar 0
LayerCount: 2
Fore
SplineSet
208 1468 m 2,0,1
 208 1450 208 1450 220 1441 c 0,2,3
 235 1432 235 1432 249 1432 c 2,4,-1
 371 1432 l 1,5,-1
 371 1308 l 1,6,-1
 3 1308 l 1,7,-1
 3 1431 l 1,8,-1
 86 1431 l 1,9,-1
 86 1533 l 1,10,-1
 86 1557 l 2,11,12
 86 1590 86 1590 109 1613 c 0,13,14
 135 1636 135 1636 167 1636 c 2,15,-1
 290 1636 l 2,16,17
 322 1636 322 1636 346.5 1612 c 128,-1,18
 371 1588 371 1588 371 1557 c 2,19,-1
 371 1492 l 1,20,-1
 330 1491 l 1,21,-1
 318 1505 l 2,22,23
 311 1513 311 1513 290 1513 c 2,24,-1
 249 1513 l 2,25,26
 233 1513 233 1513 219 1501 c 1,27,-1
 211 1489 l 1,28,-1
 208 1474 l 1,29,-1
 208 1468 l 2,0,1
374 1086 m 0,30,31
 328 1043 328 1043 328 982 c 2,32,-1
 328 309 l 2,33,34
 328 275 328 275 339.5 251.5 c 128,-1,35
 351 228 351 228 374 205 c 0,36,37
 423 159 423 159 490 159 c 2,38,-1
 1138 159 l 2,39,40
 1168 159 1168 159 1199 171 c 128,-1,41
 1230 183 1230 183 1255 205 c 0,42,43
 1300 247 1300 247 1300 309 c 2,44,-1
 1300 810 l 1,45,-1
 1300 971 l 1,46,-1
 1300 982 l 2,47,48
 1300 1013 1300 1013 1289 1038.5 c 128,-1,49
 1278 1064 1278 1064 1255 1086 c 0,50,51
 1206 1132 1206 1132 1138 1132 c 2,52,-1
 490 1132 l 2,53,54
 457 1132 457 1132 427 1121 c 128,-1,55
 397 1110 397 1110 374 1086 c 0,30,31
1463 -16 m 2,56,57
 1463 -79 1463 -79 1438.5 -136 c 128,-1,58
 1414 -193 1414 -193 1367 -235 c 0,59,60
 1324 -277 1324 -277 1263.5 -302 c 128,-1,61
 1203 -327 1203 -327 792 -319 c 1,62,-1
 792 -157 l 1,63,64
 1171 -159 1171 -159 1201 -150 c 128,-1,65
 1231 -141 1231 -141 1255 -120 c 0,66,67
 1300 -78 1300 -78 1300 -16 c 2,68,-1
 1300 39 l 1,69,70
 1266 21 1266 21 1223 8 c 2,71,-1
 1183 0 l 1,72,-1
 1138 -3 l 1,73,-1
 490 -3 l 2,74,75
 421 -3 421 -3 365.5 20.5 c 128,-1,76
 310 44 310 44 263.5 87 c 128,-1,77
 217 130 217 130 191 189 c 128,-1,78
 165 248 165 248 165 309 c 2,79,-1
 165 982 l 2,80,81
 165 1045 165 1045 189.5 1101 c 128,-1,82
 214 1157 214 1157 260.5 1202 c 128,-1,83
 307 1247 307 1247 364.5 1270.5 c 128,-1,84
 422 1294 422 1294 490 1294 c 2,85,-1
 1138 1294 l 2,86,87
 1172 1294 1172 1294 1200.5 1289 c 128,-1,88
 1229 1284 1229 1284 1260 1271 c 0,89,90
 1317 1248 1317 1248 1366 1204 c 0,91,92
 1409 1164 1409 1164 1436 1104.5 c 128,-1,93
 1463 1045 1463 1045 1463 982 c 2,94,-1
 1463 971 l 1,95,-1
 1463 810 l 1,96,-1
 1463 309 l 2,97,98
 1463 274 1463 274 1463 39 c 2,99,-1
 1463 -16 l 2,56,57
EndSplineSet
Substitution2: "'fina' Terminal Forms in Arabic lookup 5 subtable" wawwithhamzaabovefinal
Substitution2: "'isol' Isolated Forms in Arabic lookup 2 subtable" wawwithhamzaaboveisolated
AlternateSubs2: "'aalt' Access All Alternates in Latin lookup 1 subtable" wawwithhamzaaboveisolated wawwithhamzaabovefinal
EndChar

StartChar: alefwithhamzabelow
Encoding: 1573 1573 8
Width: 497
Flags: W
AnchorPoint: "ArabicBelow" 248 -579 basechar 0
AnchorPoint: "ArabicAbove" 248 1884 basechar 0
LayerCount: 2
Fore
SplineSet
170 1634 m 1,0,-1
 333 1634 l 1,1,-1
 333 99 l 1,2,-1
 170 99 l 1,3,-1
 170 1634 l 1,0,-1
237 -170 m 2,4,5
 237 -186 237 -186 250 -196 c 128,-1,6
 263 -206 263 -206 278 -206 c 2,7,-1
 399 -206 l 1,8,-1
 399 -329 l 1,9,-1
 32 -329 l 1,10,-1
 32 -206 l 1,11,-1
 114 -206 l 1,12,-1
 114 -104 l 1,13,-1
 114 -82 l 2,14,15
 119 -46 119 -46 139 -24 c 0,16,17
 164 -2 164 -2 196 -2 c 2,18,-1
 319 -2 l 2,19,20
 353 -6 353 -6 375 -24 c 0,21,22
 399 -48 399 -48 399 -82 c 2,23,-1
 399 -145 l 1,24,-1
 358 -145 l 1,25,-1
 348 -133 l 2,26,27
 340 -125 340 -125 319 -125 c 2,28,-1
 278 -125 l 2,29,30
 263 -125 263 -125 248 -137 c 0,31,32
 243 -141 243 -141 240 -147 c 1,33,-1
 237 -163 l 1,34,-1
 237 -170 l 2,4,5
EndSplineSet
Substitution2: "'fina' Terminal Forms in Arabic lookup 5 subtable" alefwithhamzabelowfinal
Substitution2: "'isol' Isolated Forms in Arabic lookup 2 subtable" alefwithhamzabelowisolated
AlternateSubs2: "'aalt' Access All Alternates in Latin lookup 1 subtable" alefwithhamzabelowisolated alefwithhamzabelowfinal
EndChar

StartChar: yehwithhamzaabove
Encoding: 1574 1574 9
Width: 1673
Flags: W
AnchorPoint: "ArabicBelow" 836 -251 basechar 0
AnchorPoint: "ArabicAbove" 836 1886 basechar 0
LayerCount: 2
Fore
SplineSet
674 1143 m 1,0,-1
 510 1143 l 2,1,2
 441 1143 441 1143 394 1097.5 c 128,-1,3
 347 1052 347 1052 347 992 c 2,4,-1
 347 313 l 2,5,6
 347 250 347 250 394 208 c 0,7,8
 441 161 441 161 510 161 c 2,9,-1
 756 161 l 1,10,-1
 1165 161 l 2,11,12
 1235 161 1235 161 1282 208 c 0,13,14
 1304 228 1304 228 1316 256.5 c 128,-1,15
 1328 285 1328 285 1328 313 c 2,16,-1
 1328 488 l 1,17,-1
 1328 583 l 2,18,19
 1328 645 1328 645 1280.5 689.5 c 128,-1,20
 1233 734 1233 734 1165 734 c 2,21,-1
 919 734 l 1,22,-1
 919 815 l 1,23,-1
 919 899 l 1,24,-1
 919 992 l 2,25,26
 919 1055 919 1055 945.5 1113.5 c 128,-1,27
 972 1172 972 1172 1017.5 1216 c 128,-1,28
 1063 1260 1063 1260 1123.5 1283.5 c 128,-1,29
 1184 1307 1184 1307 1247 1307 c 2,30,-1
 1410 1307 l 1,31,-1
 1410 1143 l 1,32,-1
 1247 1143 l 1,33,-1
 1241 1143 l 1,34,-1
 1247 1143 l 1,35,36
 1178 1143 1178 1143 1129 1097 c 0,37,38
 1107 1075 1107 1075 1095 1049 c 128,-1,39
 1083 1023 1083 1023 1083 992 c 2,40,-1
 1083 899 l 1,41,-1
 1165 899 l 2,42,43
 1233 899 1233 899 1291 874 c 128,-1,44
 1349 849 1349 849 1396 804.5 c 128,-1,45
 1443 760 1443 760 1466 705 c 0,46,47
 1476 686 1476 686 1479 676 c 128,-1,48
 1482 666 1482 666 1487 640.5 c 128,-1,49
 1492 615 1492 615 1492 583 c 2,50,-1
 1492 488 l 1,51,-1
 1492 313 l 2,52,53
 1492 248 1492 248 1466 190 c 128,-1,54
 1440 132 1440 132 1394 89.5 c 128,-1,55
 1348 47 1348 47 1288.5 23 c 128,-1,56
 1229 -1 1229 -1 1165 -1 c 2,57,-1
 756 -1 l 1,58,-1
 510 -1 l 2,59,60
 445 -1 445 -1 384 22 c 0,61,62
 322 49 322 49 280 90 c 0,63,64
 232 137 232 137 207.5 193 c 128,-1,65
 183 249 183 249 183 313 c 2,66,-1
 183 992 l 2,67,68
 183 1008 183 1008 185 1023 c 128,-1,69
 187 1038 187 1038 190 1055 c 0,70,71
 197 1086 197 1086 208 1114 c 0,72,73
 234 1171 234 1171 279.5 1215.5 c 128,-1,74
 325 1260 325 1260 386 1283.5 c 128,-1,75
 447 1307 447 1307 510 1307 c 2,76,-1
 674 1307 l 1,77,-1
 674 1143 l 1,0,-1
1247 1307 m 1,78,-1
 1242 1307 l 1,79,-1
 1247 1307 l 1,78,-1
908 1468 m 2,80,81
 908 1450 908 1450 920 1441 c 0,82,83
 935 1432 935 1432 949 1432 c 2,84,-1
 1071 1432 l 1,85,-1
 1071 1308 l 1,86,-1
 703 1308 l 1,87,-1
 703 1431 l 1,88,-1
 786 1431 l 1,89,-1
 786 1533 l 1,90,-1
 786 1557 l 2,91,92
 786 1590 786 1590 809 1613 c 0,93,94
 835 1636 835 1636 867 1636 c 2,95,-1
 990 1636 l 2,96,97
 1022 1636 1022 1636 1046.5 1612 c 128,-1,98
 1071 1588 1071 1588 1071 1557 c 2,99,-1
 1071 1492 l 1,100,-1
 1030 1491 l 1,101,-1
 1018 1505 l 2,102,103
 1011 1513 1011 1513 990 1513 c 2,104,-1
 949 1513 l 2,105,106
 933 1513 933 1513 919 1501 c 1,107,-1
 911 1489 l 1,108,-1
 908 1474 l 1,109,-1
 908 1468 l 2,80,81
EndSplineSet
Substitution2: "'fina' Terminal Forms in Arabic lookup 5 subtable" yehwithhamzaabovefinal
Substitution2: "'medi' Medial Forms in Arabic lookup 4 subtable" yehwithhamzaabovemedial
Substitution2: "'init' Initial Forms in Arabic lookup 3 subtable" yehwithhamzaaboveinitial
Substitution2: "'isol' Isolated Forms in Arabic lookup 2 subtable" yehwithhamzaaboveisolated
AlternateSubs2: "'aalt' Access All Alternates in Latin lookup 1 subtable" yehwithhamzaaboveisolated yehwithhamzaaboveinitial yehwithhamzaabovemedial yehwithhamzaabovefinal
EndChar

StartChar: arabicalef
Encoding: 1575 1575 10
Width: 497
Flags: W
AnchorPoint: "ArabicBelow" 248 -251 basechar 0
AnchorPoint: "ArabicAbove" 248 1884 basechar 0
LayerCount: 2
Fore
SplineSet
170 1634 m 1,0,-1
 333 1634 l 1,1,-1
 333 -1 l 1,2,-1
 170 -1 l 1,3,-1
 170 1634 l 1,0,-1
EndSplineSet
Substitution2: "'fina' Terminal Forms in Arabic lookup 5 subtable" aleffinal
Substitution2: "'isol' Isolated Forms in Arabic lookup 2 subtable" alefisolated
AlternateSubs2: "'aalt' Access All Alternates in Latin lookup 1 subtable" alefisolated aleffinal
EndChar

StartChar: beh
Encoding: 1576 1576 11
Width: 1967
Flags: W
AnchorPoint: "ArabicBelow" 983 -582 basechar 0
AnchorPoint: "ArabicAbove" 983 1556 basechar 0
LayerCount: 2
Fore
SplineSet
656 1142 m 1,0,-1
 491 1142 l 2,1,2
 423 1142 423 1142 374 1096 c 0,3,4
 351 1075 351 1075 339 1047.5 c 128,-1,5
 327 1020 327 1020 327 991 c 2,6,-1
 327 312 l 2,7,8
 327 281 327 281 339.5 253.5 c 128,-1,9
 352 226 352 226 375.5 205 c 128,-1,10
 399 184 399 184 428 172 c 128,-1,11
 457 160 457 160 491 160 c 2,12,-1
 1473 160 l 2,13,14
 1543 160 1543 160 1590 207 c 0,15,16
 1637 248 1637 248 1637 312 c 2,17,-1
 1637 1306 l 1,18,-1
 1800 1306 l 1,19,-1
 1800 312 l 2,20,21
 1800 247 1800 247 1774 189 c 128,-1,22
 1748 131 1748 131 1702 88 c 128,-1,23
 1656 45 1656 45 1598 21 c 0,24,25
 1566 8 1566 8 1537.5 3 c 128,-1,26
 1509 -2 1509 -2 1473 -2 c 2,27,-1
 491 -2 l 2,28,29
 424 -2 424 -2 364 23 c 128,-1,30
 304 48 304 48 259 90.5 c 128,-1,31
 214 133 214 133 189 191 c 128,-1,32
 164 249 164 249 164 312 c 2,33,-1
 164 991 l 2,34,35
 164 1055 164 1055 191 1114 c 128,-1,36
 218 1173 218 1173 262.5 1216 c 128,-1,37
 307 1259 307 1259 366.5 1282.5 c 128,-1,38
 426 1306 426 1306 491 1306 c 2,39,-1
 656 1306 l 1,40,-1
 656 1142 l 1,0,-1
1064 -332 m 1,41,-1
 900 -332 l 1,42,-1
 900 -168 l 1,43,-1
 1064 -168 l 1,44,-1
 1064 -332 l 1,41,-1
EndSplineSet
Substitution2: "'fina' Terminal Forms in Arabic lookup 5 subtable" behfinal
Substitution2: "'medi' Medial Forms in Arabic lookup 4 subtable" behmedial
Substitution2: "'init' Initial Forms in Arabic lookup 3 subtable" behinitial
Substitution2: "'isol' Isolated Forms in Arabic lookup 2 subtable" behisolated
AlternateSubs2: "'aalt' Access All Alternates in Latin lookup 1 subtable" behisolated behinitial behmedial behfinal
EndChar

StartChar: tehmarbuta
Encoding: 1577 1577 12
Width: 1659
Flags: W
AnchorPoint: "ArabicBelow" 829 -252 basechar 0
AnchorPoint: "ArabicAbove" 829 1869 basechar 0
LayerCount: 2
Fore
SplineSet
382 1098 m 0,0,1
 335 1054 335 1054 335 992 c 2,2,-1
 335 313 l 2,3,4
 335 253 335 253 382 207.5 c 128,-1,5
 429 162 429 162 498 162 c 2,6,-1
 1154 162 l 2,7,8
 1191 162 1191 162 1216.5 172.5 c 128,-1,9
 1242 183 1242 183 1270 206 c 0,10,11
 1291 227 1291 227 1304 256.5 c 128,-1,12
 1317 286 1317 286 1317 313 c 2,13,-1
 1317 992 l 2,14,15
 1317 1054 1317 1054 1270 1098.5 c 128,-1,16
 1223 1143 1223 1143 1154 1143 c 2,17,-1
 498 1143 l 2,18,19
 464 1143 464 1143 435 1132.5 c 128,-1,20
 406 1122 406 1122 382 1098 c 0,0,1
269 89 m 0,21,22
 224 133 224 133 197.5 192.5 c 128,-1,23
 171 252 171 252 171 313 c 2,24,-1
 171 992 l 2,25,26
 171 1057 171 1057 195.5 1114.5 c 128,-1,27
 220 1172 220 1172 265 1213 c 128,-1,28
 310 1254 310 1254 373.5 1280.5 c 128,-1,29
 437 1307 437 1307 498 1307 c 2,30,-1
 1154 1307 l 2,31,32
 1217 1307 1217 1307 1277 1284 c 128,-1,33
 1337 1261 1337 1261 1382 1218 c 128,-1,34
 1427 1175 1427 1175 1454 1115.5 c 128,-1,35
 1481 1056 1481 1056 1481 992 c 2,36,-1
 1481 313 l 2,37,38
 1481 280 1481 280 1476.5 258 c 128,-1,39
 1472 236 1472 236 1470 229 c 0,40,41
 1465 212 1465 212 1455 191 c 0,42,43
 1431 136 1431 136 1386.5 93 c 128,-1,44
 1342 50 1342 50 1279 24 c 128,-1,45
 1216 -2 1216 -2 1154 -2 c 2,46,-1
 498 -2 l 2,47,48
 430 -2 430 -2 374 21 c 0,49,50
 345 33 345 33 319.5 48.5 c 128,-1,51
 294 64 294 64 269 89 c 0,21,22
908 1619 m 1,52,-1
 1071 1619 l 1,53,-1
 1071 1455 l 1,54,-1
 908 1455 l 1,55,-1
 908 1619 l 1,52,-1
581 1619 m 1,56,-1
 744 1619 l 1,57,-1
 744 1455 l 1,58,-1
 581 1455 l 1,59,-1
 581 1619 l 1,56,-1
EndSplineSet
Substitution2: "'fina' Terminal Forms in Arabic lookup 5 subtable" tehmarbutafinal
Substitution2: "'isol' Isolated Forms in Arabic lookup 2 subtable" tehmarbutaisolated
AlternateSubs2: "'aalt' Access All Alternates in Latin lookup 1 subtable" tehmarbutaisolated tehmarbutafinal
EndChar

StartChar: teh
Encoding: 1578 1578 13
Width: 1967
Flags: W
AnchorPoint: "ArabicBelow" 983 -252 basechar 0
AnchorPoint: "ArabicAbove" 983 1869 basechar 0
LayerCount: 2
Fore
SplineSet
656 1142 m 1,0,-1
 491 1142 l 2,1,2
 423 1142 423 1142 374 1096 c 0,3,4
 351 1075 351 1075 339 1047.5 c 128,-1,5
 327 1020 327 1020 327 991 c 2,6,-1
 327 312 l 2,7,8
 327 281 327 281 339.5 253.5 c 128,-1,9
 352 226 352 226 375.5 205 c 128,-1,10
 399 184 399 184 428 172 c 128,-1,11
 457 160 457 160 491 160 c 2,12,-1
 1473 160 l 2,13,14
 1543 160 1543 160 1590 207 c 0,15,16
 1637 248 1637 248 1637 312 c 2,17,-1
 1637 1306 l 1,18,-1
 1800 1306 l 1,19,-1
 1800 312 l 2,20,21
 1800 247 1800 247 1774 189 c 128,-1,22
 1748 131 1748 131 1702 88 c 128,-1,23
 1656 45 1656 45 1598 21 c 0,24,25
 1566 8 1566 8 1537.5 3 c 128,-1,26
 1509 -2 1509 -2 1473 -2 c 2,27,-1
 491 -2 l 2,28,29
 424 -2 424 -2 364 23 c 128,-1,30
 304 48 304 48 259 90.5 c 128,-1,31
 214 133 214 133 189 191 c 128,-1,32
 164 249 164 249 164 312 c 2,33,-1
 164 991 l 2,34,35
 164 1055 164 1055 191 1114 c 128,-1,36
 218 1173 218 1173 262.5 1216 c 128,-1,37
 307 1259 307 1259 366.5 1282.5 c 128,-1,38
 426 1306 426 1306 491 1306 c 2,39,-1
 656 1306 l 1,40,-1
 656 1142 l 1,0,-1
1227 1619 m 1,41,-1
 1391 1619 l 1,42,-1
 1391 1456 l 1,43,-1
 1227 1456 l 1,44,-1
 1227 1619 l 1,41,-1
900 1619 m 1,45,-1
 1064 1619 l 1,46,-1
 1064 1456 l 1,47,-1
 900 1456 l 1,48,-1
 900 1619 l 1,45,-1
EndSplineSet
Substitution2: "'fina' Terminal Forms in Arabic lookup 5 subtable" tehfinal
Substitution2: "'medi' Medial Forms in Arabic lookup 4 subtable" tehmedial
Substitution2: "'init' Initial Forms in Arabic lookup 3 subtable" tehinitial
Substitution2: "'isol' Isolated Forms in Arabic lookup 2 subtable" tehisolated
AlternateSubs2: "'aalt' Access All Alternates in Latin lookup 1 subtable" tehisolated tehinitial tehmedial tehfinal
EndChar

StartChar: theh
Encoding: 1579 1579 14
Width: 1967
Flags: W
AnchorPoint: "ArabicBelow" 983 -252 basechar 0
AnchorPoint: "ArabicAbove" 983 1883 basechar 0
LayerCount: 2
Fore
SplineSet
656 1142 m 1,0,-1
 491 1142 l 2,1,2
 423 1142 423 1142 374 1096 c 0,3,4
 351 1075 351 1075 339 1047.5 c 128,-1,5
 327 1020 327 1020 327 991 c 2,6,-1
 327 312 l 2,7,8
 327 281 327 281 339.5 253.5 c 128,-1,9
 352 226 352 226 375.5 205 c 128,-1,10
 399 184 399 184 428 172 c 128,-1,11
 457 160 457 160 491 160 c 2,12,-1
 1473 160 l 2,13,14
 1543 160 1543 160 1590 207 c 0,15,16
 1637 248 1637 248 1637 312 c 2,17,-1
 1637 1306 l 1,18,-1
 1800 1306 l 1,19,-1
 1800 312 l 2,20,21
 1800 247 1800 247 1774 189 c 128,-1,22
 1748 131 1748 131 1702 88 c 128,-1,23
 1656 45 1656 45 1598 21 c 0,24,25
 1566 8 1566 8 1537.5 3 c 128,-1,26
 1509 -2 1509 -2 1473 -2 c 2,27,-1
 491 -2 l 2,28,29
 424 -2 424 -2 364 23 c 128,-1,30
 304 48 304 48 259 90.5 c 128,-1,31
 214 133 214 133 189 191 c 128,-1,32
 164 249 164 249 164 312 c 2,33,-1
 164 991 l 2,34,35
 164 1055 164 1055 191 1114 c 128,-1,36
 218 1173 218 1173 262.5 1216 c 128,-1,37
 307 1259 307 1259 366.5 1282.5 c 128,-1,38
 426 1306 426 1306 491 1306 c 2,39,-1
 656 1306 l 1,40,-1
 656 1142 l 1,0,-1
1227 1469 m 1,41,-1
 1391 1469 l 1,42,-1
 1391 1306 l 1,43,-1
 1227 1306 l 1,44,-1
 1227 1469 l 1,41,-1
1227 1469 m 1,45,-1
 1064 1469 l 1,46,-1
 1064 1633 l 1,47,-1
 1227 1633 l 1,48,-1
 1227 1469 l 1,45,-1
900 1469 m 1,49,-1
 1064 1469 l 1,50,-1
 1064 1306 l 1,51,-1
 900 1306 l 1,52,-1
 900 1469 l 1,49,-1
EndSplineSet
Substitution2: "'fina' Terminal Forms in Arabic lookup 5 subtable" thehfinal
Substitution2: "'medi' Medial Forms in Arabic lookup 4 subtable" thehmedial
Substitution2: "'init' Initial Forms in Arabic lookup 3 subtable" thehinitial
Substitution2: "'isol' Isolated Forms in Arabic lookup 2 subtable" thehisolated
AlternateSubs2: "'aalt' Access All Alternates in Latin lookup 1 subtable" thehisolated thehinitial thehmedial thehfinal
EndChar

StartChar: jeem
Encoding: 1580 1580 15
Width: 1659
Flags: W
AnchorPoint: "ArabicBelow" 829 -586 basechar 0
AnchorPoint: "ArabicAbove" 829 1554 basechar 0
LayerCount: 2
Fore
SplineSet
350 1304 m 1,0,-1
 1166 1304 l 2,1,2
 1231 1304 1231 1304 1289.5 1281 c 128,-1,3
 1348 1258 1348 1258 1394 1214 c 128,-1,4
 1440 1170 1440 1170 1466 1112 c 128,-1,5
 1492 1054 1492 1054 1492 990 c 2,6,-1
 1492 312 l 2,7,8
 1492 279 1492 279 1486 249.5 c 128,-1,9
 1480 220 1480 220 1466 190 c 0,10,11
 1442 132 1442 132 1397 91 c 128,-1,12
 1352 50 1352 50 1290 22 c 0,13,14
 1231 -2 1231 -2 1166 -2 c 2,15,-1
 1085 -2 l 1,16,-1
 513 -2 l 1,17,-1
 501 -2 l 2,18,19
 468 -2 468 -2 442 -14 c 128,-1,20
 416 -26 416 -26 395 -48 c 0,21,22
 350 -96 350 -96 350 -165 c 2,23,-1
 350 -170 l 1,24,-1
 350 -165 l 1,25,-1
 350 -160 l 1,26,-1
 350 -165 l 1,27,-1
 350 -328 l 1,28,-1
 187 -328 l 1,29,-1
 187 -165 l 1,30,-1
 187 -161 l 1,31,-1
 187 -165 l 1,32,-1
 187 -169 l 1,33,-1
 187 -165 l 2,34,35
 187 -102 187 -102 211 -40.5 c 128,-1,36
 235 21 235 21 278 65 c 128,-1,37
 321 109 321 109 379 136 c 0,38,39
 406 147 406 147 438 154 c 128,-1,40
 470 161 470 161 501 161 c 2,41,-1
 513 161 l 1,42,-1
 1085 161 l 1,43,-1
 1166 161 l 2,44,45
 1201 161 1201 161 1229.5 172.5 c 128,-1,46
 1258 184 1258 184 1282 207 c 0,47,48
 1329 251 1329 251 1329 312 c 2,49,-1
 1329 990 l 2,50,51
 1329 1051 1329 1051 1282 1095 c 0,52,53
 1260 1117 1260 1117 1228 1129 c 128,-1,54
 1196 1141 1196 1141 1166 1141 c 2,55,-1
 350 1141 l 1,56,-1
 350 1304 l 1,0,-1
840 -173 m 1,57,-1
 1003 -173 l 1,58,-1
 1003 -336 l 1,59,-1
 840 -336 l 1,60,-1
 840 -173 l 1,57,-1
EndSplineSet
Substitution2: "'fina' Terminal Forms in Arabic lookup 5 subtable" jeemfinal
Substitution2: "'medi' Medial Forms in Arabic lookup 4 subtable" jeemmedial
Substitution2: "'init' Initial Forms in Arabic lookup 3 subtable" jeeminitial
Substitution2: "'isol' Isolated Forms in Arabic lookup 2 subtable" jeemisolated
AlternateSubs2: "'aalt' Access All Alternates in Latin lookup 1 subtable" jeemisolated jeeminitial jeemmedial jeemfinal
EndChar

StartChar: hah
Encoding: 1581 1581 16
Width: 1659
Flags: W
AnchorPoint: "ArabicBelow" 829 -578 basechar 0
AnchorPoint: "ArabicAbove" 829 1554 basechar 0
LayerCount: 2
Fore
SplineSet
350 1304 m 1,0,-1
 1166 1304 l 2,1,2
 1231 1304 1231 1304 1289.5 1281 c 128,-1,3
 1348 1258 1348 1258 1394 1214 c 128,-1,4
 1440 1170 1440 1170 1466 1112 c 128,-1,5
 1492 1054 1492 1054 1492 990 c 2,6,-1
 1492 312 l 2,7,8
 1492 279 1492 279 1486 249.5 c 128,-1,9
 1480 220 1480 220 1466 190 c 0,10,11
 1442 132 1442 132 1397 91 c 128,-1,12
 1352 50 1352 50 1290 22 c 0,13,14
 1231 -2 1231 -2 1166 -2 c 2,15,-1
 1085 -2 l 1,16,-1
 513 -2 l 1,17,-1
 501 -2 l 2,18,19
 468 -2 468 -2 442 -14 c 128,-1,20
 416 -26 416 -26 395 -48 c 0,21,22
 350 -96 350 -96 350 -165 c 2,23,-1
 350 -170 l 1,24,-1
 350 -165 l 1,25,-1
 350 -160 l 1,26,-1
 350 -165 l 1,27,-1
 350 -328 l 1,28,-1
 187 -328 l 1,29,-1
 187 -165 l 1,30,-1
 187 -161 l 1,31,-1
 187 -165 l 1,32,-1
 187 -169 l 1,33,-1
 187 -165 l 2,34,35
 187 -102 187 -102 211 -40.5 c 128,-1,36
 235 21 235 21 278 65 c 128,-1,37
 321 109 321 109 379 136 c 0,38,39
 406 147 406 147 438 154 c 128,-1,40
 470 161 470 161 501 161 c 2,41,-1
 513 161 l 1,42,-1
 1085 161 l 1,43,-1
 1166 161 l 2,44,45
 1201 161 1201 161 1229.5 172.5 c 128,-1,46
 1258 184 1258 184 1282 207 c 0,47,48
 1329 251 1329 251 1329 312 c 2,49,-1
 1329 990 l 2,50,51
 1329 1051 1329 1051 1282 1095 c 0,52,53
 1260 1117 1260 1117 1228 1129 c 128,-1,54
 1196 1141 1196 1141 1166 1141 c 2,55,-1
 350 1141 l 1,56,-1
 350 1304 l 1,0,-1
EndSplineSet
Substitution2: "'fina' Terminal Forms in Arabic lookup 5 subtable" hahfinal
Substitution2: "'medi' Medial Forms in Arabic lookup 4 subtable" hahmedial
Substitution2: "'init' Initial Forms in Arabic lookup 3 subtable" hahinitial
Substitution2: "'isol' Isolated Forms in Arabic lookup 2 subtable" hahisolated
AlternateSubs2: "'aalt' Access All Alternates in Latin lookup 1 subtable" hahisolated hahinitial hahmedial hahfinal
EndChar

StartChar: khah
Encoding: 1582 1582 17
Width: 1659
Flags: W
AnchorPoint: "ArabicBelow" 829 -578 basechar 0
AnchorPoint: "ArabicAbove" 829 1880 basechar 0
LayerCount: 2
Fore
SplineSet
350 1304 m 1,0,-1
 1166 1304 l 2,1,2
 1231 1304 1231 1304 1289.5 1281 c 128,-1,3
 1348 1258 1348 1258 1394 1214 c 128,-1,4
 1440 1170 1440 1170 1466 1112 c 128,-1,5
 1492 1054 1492 1054 1492 990 c 2,6,-1
 1492 312 l 2,7,8
 1492 279 1492 279 1486 249.5 c 128,-1,9
 1480 220 1480 220 1466 190 c 0,10,11
 1442 132 1442 132 1397 91 c 128,-1,12
 1352 50 1352 50 1290 22 c 0,13,14
 1231 -2 1231 -2 1166 -2 c 2,15,-1
 1085 -2 l 1,16,-1
 513 -2 l 1,17,-1
 501 -2 l 2,18,19
 468 -2 468 -2 442 -14 c 128,-1,20
 416 -26 416 -26 395 -48 c 0,21,22
 350 -96 350 -96 350 -165 c 2,23,-1
 350 -170 l 1,24,-1
 350 -165 l 1,25,-1
 350 -160 l 1,26,-1
 350 -165 l 1,27,-1
 350 -328 l 1,28,-1
 187 -328 l 1,29,-1
 187 -165 l 1,30,-1
 187 -161 l 1,31,-1
 187 -165 l 1,32,-1
 187 -169 l 1,33,-1
 187 -165 l 2,34,35
 187 -102 187 -102 211 -40.5 c 128,-1,36
 235 21 235 21 278 65 c 128,-1,37
 321 109 321 109 379 136 c 0,38,39
 406 147 406 147 438 154 c 128,-1,40
 470 161 470 161 501 161 c 2,41,-1
 513 161 l 1,42,-1
 1085 161 l 1,43,-1
 1166 161 l 2,44,45
 1201 161 1201 161 1229.5 172.5 c 128,-1,46
 1258 184 1258 184 1282 207 c 0,47,48
 1329 251 1329 251 1329 312 c 2,49,-1
 1329 990 l 2,50,51
 1329 1051 1329 1051 1282 1095 c 0,52,53
 1260 1117 1260 1117 1228 1129 c 128,-1,54
 1196 1141 1196 1141 1166 1141 c 2,55,-1
 350 1141 l 1,56,-1
 350 1304 l 1,0,-1
840 1630 m 1,57,-1
 1003 1630 l 1,58,-1
 1003 1467 l 1,59,-1
 840 1467 l 1,60,-1
 840 1630 l 1,57,-1
EndSplineSet
Substitution2: "'fina' Terminal Forms in Arabic lookup 5 subtable" khahfinal
Substitution2: "'medi' Medial Forms in Arabic lookup 4 subtable" khahmedial
Substitution2: "'init' Initial Forms in Arabic lookup 3 subtable" khahinitial
Substitution2: "'isol' Isolated Forms in Arabic lookup 2 subtable" khahisolated
AlternateSubs2: "'aalt' Access All Alternates in Latin lookup 1 subtable" khahisolated khahinitial khahmedial khahfinal
EndChar

StartChar: dal
Encoding: 1583 1583 18
Width: 973
Flags: W
AnchorPoint: "ArabicBelow" 486 -251 basechar 0
AnchorPoint: "ArabicAbove" 486 1557 basechar 0
LayerCount: 2
Fore
SplineSet
315 1307 m 1,0,-1
 480 1307 l 2,1,2
 544 1307 544 1307 603.5 1282.5 c 128,-1,3
 663 1258 663 1258 709 1215 c 128,-1,4
 755 1172 755 1172 781 1114 c 128,-1,5
 807 1056 807 1056 807 992 c 2,6,-1
 807 313 l 2,7,8
 807 281 807 281 802 255.5 c 128,-1,9
 797 230 797 230 794 220.5 c 128,-1,10
 791 211 791 211 781 191 c 0,11,12
 757 133 757 133 712 91 c 128,-1,13
 667 49 667 49 607 24 c 128,-1,14
 547 -1 547 -1 480 -1 c 2,15,-1
 153 -1 l 1,16,-1
 153 161 l 1,17,-1
 480 161 l 2,18,19
 550 161 550 161 596 205.5 c 128,-1,20
 642 250 642 250 642 313 c 2,21,-1
 642 992 l 2,22,23
 642 1022 642 1022 630 1049 c 0,24,25
 621 1075 621 1075 597 1097 c 0,26,27
 548 1143 548 1143 480 1143 c 2,28,-1
 315 1143 l 1,29,-1
 315 1307 l 1,0,-1
EndSplineSet
Substitution2: "'fina' Terminal Forms in Arabic lookup 5 subtable" dalfinal
Substitution2: "'isol' Isolated Forms in Arabic lookup 2 subtable" dalisolated
AlternateSubs2: "'aalt' Access All Alternates in Latin lookup 1 subtable" dalisolated dalfinal
EndChar

StartChar: thal
Encoding: 1584 1584 19
Width: 973
Flags: W
AnchorPoint: "ArabicBelow" 486 -251 basechar 0
AnchorPoint: "ArabicAbove" 486 1868 basechar 0
LayerCount: 2
Fore
SplineSet
315 1307 m 1,0,-1
 480 1307 l 2,1,2
 544 1307 544 1307 603.5 1282.5 c 128,-1,3
 663 1258 663 1258 709 1215 c 128,-1,4
 755 1172 755 1172 781 1114 c 128,-1,5
 807 1056 807 1056 807 992 c 2,6,-1
 807 313 l 2,7,8
 807 281 807 281 802 255.5 c 128,-1,9
 797 230 797 230 794 220.5 c 128,-1,10
 791 211 791 211 781 191 c 0,11,12
 757 133 757 133 712 91 c 128,-1,13
 667 49 667 49 607 24 c 128,-1,14
 547 -1 547 -1 480 -1 c 2,15,-1
 153 -1 l 1,16,-1
 153 161 l 1,17,-1
 480 161 l 2,18,19
 550 161 550 161 596 205.5 c 128,-1,20
 642 250 642 250 642 313 c 2,21,-1
 642 992 l 2,22,23
 642 1022 642 1022 630 1049 c 0,24,25
 621 1075 621 1075 597 1097 c 0,26,27
 548 1143 548 1143 480 1143 c 2,28,-1
 315 1143 l 1,29,-1
 315 1307 l 1,0,-1
315 1618 m 1,30,-1
 480 1618 l 1,31,-1
 480 1454 l 1,32,-1
 315 1454 l 1,33,-1
 315 1618 l 1,30,-1
EndSplineSet
Substitution2: "'fina' Terminal Forms in Arabic lookup 5 subtable" thalfinal
Substitution2: "'isol' Isolated Forms in Arabic lookup 2 subtable" thalisolated
AlternateSubs2: "'aalt' Access All Alternates in Latin lookup 1 subtable" thalisolated thalfinal
EndChar

StartChar: reh
Encoding: 1585 1585 20
Width: 658
Flags: W
AnchorPoint: "ArabicBelow" 329 -579 basechar 0
AnchorPoint: "ArabicAbove" 329 1557 basechar 0
LayerCount: 2
Fore
SplineSet
478 1307 m 1,0,-1
 478 -15 l 2,1,2
 478 -80 478 -80 451 -138.5 c 128,-1,3
 424 -197 424 -197 380 -239.5 c 128,-1,4
 336 -282 336 -282 275.5 -305.5 c 128,-1,5
 215 -329 215 -329 151 -329 c 1,6,-1
 155 -329 l 1,7,-1
 151 -329 l 1,8,-1
 151 -166 l 1,9,-1
 156 -166 l 1,10,-1
 151 -166 l 1,11,12
 182 -166 182 -166 215 -153 c 128,-1,13
 248 -140 248 -140 268 -120 c 0,14,15
 315 -76 315 -76 315 -15 c 2,16,-1
 315 1307 l 1,17,-1
 478 1307 l 1,0,-1
EndSplineSet
Substitution2: "'fina' Terminal Forms in Arabic lookup 5 subtable" rehfinal
Substitution2: "'isol' Isolated Forms in Arabic lookup 2 subtable" rehisolated
AlternateSubs2: "'aalt' Access All Alternates in Latin lookup 1 subtable" rehisolated rehfinal
EndChar

StartChar: zain
Encoding: 1586 1586 21
Width: 658
Flags: W
AnchorPoint: "ArabicBelow" 329 -579 basechar 0
AnchorPoint: "ArabicAbove" 329 1868 basechar 0
LayerCount: 2
Fore
SplineSet
478 1307 m 1,0,-1
 478 -15 l 2,1,2
 478 -80 478 -80 451 -138.5 c 128,-1,3
 424 -197 424 -197 380 -239.5 c 128,-1,4
 336 -282 336 -282 275.5 -305.5 c 128,-1,5
 215 -329 215 -329 151 -329 c 1,6,-1
 155 -329 l 1,7,-1
 151 -329 l 1,8,-1
 151 -166 l 1,9,-1
 156 -166 l 1,10,-1
 151 -166 l 1,11,12
 182 -166 182 -166 215 -153 c 128,-1,13
 248 -140 248 -140 268 -120 c 0,14,15
 315 -76 315 -76 315 -15 c 2,16,-1
 315 1307 l 1,17,-1
 478 1307 l 1,0,-1
319 1618 m 1,18,-1
 482 1618 l 1,19,-1
 482 1454 l 1,20,-1
 319 1454 l 1,21,-1
 319 1618 l 1,18,-1
EndSplineSet
Substitution2: "'fina' Terminal Forms in Arabic lookup 5 subtable" zainfinal
Substitution2: "'isol' Isolated Forms in Arabic lookup 2 subtable" zainisolated
AlternateSubs2: "'aalt' Access All Alternates in Latin lookup 1 subtable" zainisolated zainfinal
EndChar

StartChar: seen
Encoding: 1587 1587 22
Width: 2779
Flags: W
AnchorPoint: "ArabicBelow" 1389 -254 basechar 0
AnchorPoint: "ArabicAbove" 1389 1554 basechar 0
LayerCount: 2
Fore
SplineSet
654 1141 m 1,0,-1
 491 1141 l 2,1,2
 461 1141 461 1141 429 1129 c 0,3,4
 397 1115 397 1115 375 1095 c 0,5,6
 328 1051 328 1051 328 990 c 2,7,-1
 328 312 l 2,8,9
 328 251 328 251 375 207 c 0,10,11
 399 184 399 184 427 172.5 c 128,-1,12
 455 161 455 161 491 161 c 2,13,-1
 1307 161 l 2,14,15
 1342 161 1342 161 1372.5 173.5 c 128,-1,16
 1403 186 1403 186 1424.5 207 c 128,-1,17
 1446 228 1446 228 1458 256.5 c 128,-1,18
 1470 285 1470 285 1470 312 c 2,19,-1
 1470 1304 l 1,20,-1
 1634 1304 l 1,21,-1
 1634 310 l 2,22,23
 1634 250 1634 250 1681 206 c 0,24,25
 1705 184 1705 184 1735.5 172 c 128,-1,26
 1766 160 1766 160 1797 160 c 2,27,-1
 1802 160 l 1,28,-1
 1797 160 l 1,29,-1
 1792 160 l 1,30,-1
 1797 160 l 2,31,32
 1865 160 1865 160 1914 206 c 0,33,34
 1936 228 1936 228 1948 254.5 c 128,-1,35
 1960 281 1960 281 1960 310 c 2,36,-1
 1960 1304 l 1,37,-1
 2123 1304 l 1,38,-1
 2123 310 l 2,39,40
 2123 250 2123 250 2170 206 c 0,41,42
 2193 183 2193 183 2221.5 171.5 c 128,-1,43
 2250 160 2250 160 2286 160 c 2,44,-1
 2291 160 l 1,45,-1
 2286 160 l 1,46,-1
 2282 160 l 1,47,-1
 2286 160 l 2,48,49
 2357 160 2357 160 2403 206 c 0,50,51
 2425 228 2425 228 2437.5 254.5 c 128,-1,52
 2450 281 2450 281 2450 310 c 2,53,-1
 2450 1304 l 1,54,-1
 2613 1304 l 1,55,-1
 2613 310 l 2,56,57
 2613 246 2613 246 2587.5 188.5 c 128,-1,58
 2562 131 2562 131 2515 87 c 128,-1,59
 2468 43 2468 43 2411 19 c 0,60,61
 2378 5 2378 5 2350 1 c 0,62,63
 2326 -4 2326 -4 2286 -4 c 1,64,-1
 2290 -4 l 1,65,-1
 2286 -4 l 2,66,67
 2255 -4 2255 -4 2221.5 3 c 128,-1,68
 2188 10 2188 10 2160 21 c 0,69,70
 2099 48 2099 48 2058 88 c 2,71,72
 2051 92 2051 92 2042 104 c 1,73,74
 2032 91 2032 91 2026 88 c 2,75,76
 1978 43 1978 43 1922 19.5 c 128,-1,77
 1866 -4 1866 -4 1797 -4 c 1,78,-1
 1801 -4 l 1,79,-1
 1797 -4 l 2,80,81
 1733 -4 1733 -4 1670 21 c 0,82,83
 1609 48 1609 48 1568 88 c 2,84,-1
 1552 104 l 1,85,-1
 1537 88 l 2,86,87
 1489 43 1489 43 1432 19 c 0,88,89
 1399 5 1399 5 1371 1 c 0,90,91
 1347 -4 1347 -4 1307 -4 c 2,92,-1
 491 -4 l 2,93,94
 426 -2 426 -2 366 22 c 0,95,96
 304 50 304 50 259.5 91.5 c 128,-1,97
 215 133 215 133 190 189.5 c 128,-1,98
 165 246 165 246 165 312 c 2,99,-1
 165 990 l 2,100,101
 165 1053 165 1053 192.5 1113.5 c 128,-1,102
 220 1174 220 1174 262 1213 c 0,103,104
 310 1258 310 1258 367 1281 c 128,-1,105
 424 1304 424 1304 491 1304 c 2,106,-1
 654 1304 l 1,107,-1
 654 1141 l 1,0,-1
EndSplineSet
Substitution2: "'fina' Terminal Forms in Arabic lookup 5 subtable" seenfinal
Substitution2: "'medi' Medial Forms in Arabic lookup 4 subtable" seenmedial
Substitution2: "'init' Initial Forms in Arabic lookup 3 subtable" seeninitial
Substitution2: "'isol' Isolated Forms in Arabic lookup 2 subtable" seenisolated
AlternateSubs2: "'aalt' Access All Alternates in Latin lookup 1 subtable" seenisolated seeninitial seenmedial seenfinal
EndChar

StartChar: sheen
Encoding: 1588 1588 23
Width: 2779
Flags: W
AnchorPoint: "ArabicBelow" 1389 -254 basechar 0
AnchorPoint: "ArabicAbove" 1389 1868 basechar 0
LayerCount: 2
Fore
SplineSet
1960 1618 m 1,0,-1
 2123 1618 l 1,1,-1
 2123 1455 l 1,2,-1
 1960 1455 l 1,3,-1
 1960 1618 l 1,0,-1
654 1304 m 1,4,-1
 491 1304 l 2,5,6
 424 1304 424 1304 367 1281 c 128,-1,7
 310 1258 310 1258 262 1213 c 0,8,9
 220 1174 220 1174 192.5 1113.5 c 128,-1,10
 165 1053 165 1053 165 990 c 2,11,-1
 165 312 l 2,12,13
 165 246 165 246 190 189.5 c 128,-1,14
 215 133 215 133 259.5 91.5 c 128,-1,15
 304 50 304 50 366 22 c 0,16,17
 426 -2 426 -2 491 -4 c 2,18,-1
 1307 -4 l 2,19,20
 1347 -4 1347 -4 1371 1 c 0,21,22
 1399 5 1399 5 1432 19 c 0,23,24
 1489 43 1489 43 1537 88 c 2,25,-1
 1552 104 l 1,26,-1
 1568 88 l 2,27,28
 1609 48 1609 48 1670 21 c 0,29,30
 1733 -4 1733 -4 1797 -4 c 2,31,-1
 1801 -4 l 1,32,-1
 1797 -4 l 1,33,34
 1866 -4 1866 -4 1922 19.5 c 128,-1,35
 1978 43 1978 43 2026 88 c 2,36,37
 2032 91 2032 91 2042 104 c 1,38,39
 2051 92 2051 92 2058 88 c 2,40,41
 2099 48 2099 48 2160 21 c 0,42,43
 2188 10 2188 10 2221.5 3 c 128,-1,44
 2255 -4 2255 -4 2286 -4 c 2,45,-1
 2290 -4 l 1,46,-1
 2286 -4 l 1,47,48
 2326 -4 2326 -4 2350 1 c 0,49,50
 2378 5 2378 5 2411 19 c 0,51,52
 2468 43 2468 43 2515 87 c 128,-1,53
 2562 131 2562 131 2587.5 188.5 c 128,-1,54
 2613 246 2613 246 2613 310 c 2,55,-1
 2613 1304 l 1,56,-1
 2450 1304 l 1,57,-1
 2450 310 l 2,58,59
 2450 281 2450 281 2437.5 254.5 c 128,-1,60
 2425 228 2425 228 2403 206 c 0,61,62
 2357 160 2357 160 2286 160 c 2,63,-1
 2282 160 l 1,64,-1
 2286 160 l 1,65,-1
 2291 160 l 1,66,-1
 2286 160 l 2,67,68
 2250 160 2250 160 2221.5 171.5 c 128,-1,69
 2193 183 2193 183 2170 206 c 0,70,71
 2123 250 2123 250 2123 310 c 2,72,-1
 2123 1304 l 1,73,-1
 1960 1304 l 1,74,-1
 1960 310 l 2,75,76
 1960 281 1960 281 1948 254.5 c 128,-1,77
 1936 228 1936 228 1914 206 c 0,78,79
 1865 160 1865 160 1797 160 c 2,80,-1
 1792 160 l 1,81,-1
 1797 160 l 1,82,-1
 1802 160 l 1,83,-1
 1797 160 l 2,84,85
 1766 160 1766 160 1735.5 172 c 128,-1,86
 1705 184 1705 184 1681 206 c 0,87,88
 1634 250 1634 250 1634 310 c 2,89,-1
 1634 1304 l 1,90,-1
 1470 1304 l 1,91,-1
 1470 312 l 2,92,93
 1470 285 1470 285 1458 256.5 c 128,-1,94
 1446 228 1446 228 1424.5 207 c 128,-1,95
 1403 186 1403 186 1372.5 173.5 c 128,-1,96
 1342 161 1342 161 1307 161 c 2,97,-1
 491 161 l 2,98,99
 455 161 455 161 427 172.5 c 128,-1,100
 399 184 399 184 375 207 c 0,101,102
 328 251 328 251 328 312 c 2,103,-1
 328 990 l 2,104,105
 328 1051 328 1051 375 1095 c 0,106,107
 397 1115 397 1115 429 1129 c 0,108,109
 461 1141 461 1141 491 1141 c 2,110,-1
 654 1141 l 1,111,-1
 654 1304 l 1,4,-1
1797 1618 m 1,112,-1
 1634 1618 l 1,113,-1
 1634 1455 l 1,114,-1
 1797 1455 l 1,115,-1
 1797 1618 l 1,112,-1
2450 1618 m 1,116,-1
 2286 1618 l 1,117,-1
 2286 1455 l 1,118,-1
 2450 1455 l 1,119,-1
 2450 1618 l 1,116,-1
EndSplineSet
Substitution2: "'fina' Terminal Forms in Arabic lookup 5 subtable" sheenfinal
Substitution2: "'medi' Medial Forms in Arabic lookup 4 subtable" sheenmedial
Substitution2: "'init' Initial Forms in Arabic lookup 3 subtable" sheeninitial
Substitution2: "'isol' Isolated Forms in Arabic lookup 2 subtable" sheenisolated
AlternateSubs2: "'aalt' Access All Alternates in Latin lookup 1 subtable" sheenisolated sheeninitial sheenmedial sheenfinal
EndChar

StartChar: sad
Encoding: 1589 1589 24
Width: 3437
Flags: W
AnchorPoint: "ArabicBelow" 1718 -252 basechar 0
AnchorPoint: "ArabicAbove" 1718 1557 basechar 0
LayerCount: 2
Fore
SplineSet
660 1143 m 1,0,-1
 497 1143 l 2,1,2
 428 1143 428 1143 380 1098 c 0,3,4
 357 1076 357 1076 345 1047 c 128,-1,5
 333 1018 333 1018 333 992 c 2,6,-1
 333 313 l 2,7,8
 333 283 333 283 345 256 c 0,9,10
 364 223 364 223 380 207 c 0,11,12
 405 185 405 185 434.5 173.5 c 128,-1,13
 464 162 464 162 497 162 c 2,14,-1
 1316 162 l 2,15,16
 1385 162 1385 162 1432 207.5 c 128,-1,17
 1479 253 1479 253 1479 313 c 2,18,-1
 1479 419 l 1,19,-1
 1479 653 l 1,20,-1
 1479 1307 l 1,21,-1
 1643 1307 l 1,22,-1
 1643 1145 l 1,23,24
 1706 1221 1706 1221 1789.5 1264 c 128,-1,25
 1873 1307 1873 1307 1963 1307 c 2,26,-1
 2956 1307 l 2,27,28
 3026 1307 3026 1307 3087.5 1271 c 128,-1,29
 3149 1235 3149 1235 3193 1173.5 c 128,-1,30
 3237 1112 3237 1112 3258.5 1039.5 c 128,-1,31
 3280 967 3280 967 3280 882 c 2,32,-1
 3280 423 l 2,33,34
 3280 379 3280 379 3274 340 c 0,35,36
 3272 328 3272 328 3267 304.5 c 128,-1,37
 3262 281 3262 281 3257 265 c 0,38,39
 3235 192 3235 192 3194 134 c 0,40,41
 3147 69 3147 69 3087 33.5 c 128,-1,42
 3027 -2 3027 -2 2956 -2 c 2,43,-1
 1802 -2 l 2,44,45
 1736 -2 1736 -2 1676 31 c 128,-1,46
 1616 64 1616 64 1574 121 c 1,47,-1
 1554 98 l 1,48,-1
 1545 89 l 2,49,50
 1518 63 1518 63 1494.5 48 c 128,-1,51
 1471 33 1471 33 1440 21 c 0,52,53
 1384 -2 1384 -2 1316 -2 c 2,54,-1
 497 -2 l 2,55,56
 431 -2 431 -2 371 22 c 0,57,58
 309 50 309 50 266 90 c 0,59,60
 220 134 220 134 195 192 c 128,-1,61
 170 250 170 250 170 313 c 2,62,-1
 170 992 l 2,63,64
 170 1056 170 1056 196.5 1115 c 128,-1,65
 223 1174 223 1174 269.5 1217.5 c 128,-1,66
 316 1261 316 1261 373 1284 c 128,-1,67
 430 1307 430 1307 497 1307 c 2,68,-1
 660 1307 l 1,69,-1
 660 1143 l 1,0,-1
1746 1010 m 0,70,71
 1718 972 1718 972 1700.5 934.5 c 128,-1,72
 1683 897 1683 897 1669 850 c 128,-1,73
 1655 803 1655 803 1649 756 c 128,-1,74
 1643 709 1643 709 1643 653 c 2,75,-1
 1643 420 l 2,76,77
 1643 306 1643 306 1699 227 c 0,78,79
 1724 193 1724 193 1749 177.5 c 128,-1,80
 1774 162 1774 162 1802 162 c 2,81,-1
 2956 162 l 2,82,83
 2983 162 2983 162 3011 179 c 128,-1,84
 3039 196 3039 196 3060 227 c 0,85,86
 3087 264 3087 264 3101.5 317 c 128,-1,87
 3116 370 3116 370 3116 423 c 2,88,-1
 3116 882 l 2,89,90
 3116 936 3116 936 3099.5 989.5 c 128,-1,91
 3083 1043 3083 1043 3060 1078 c 0,92,93
 3013 1143 3013 1143 2956 1143 c 2,94,-1
 1963 1143 l 2,95,96
 1902 1143 1902 1143 1844.5 1107 c 128,-1,97
 1787 1071 1787 1071 1746 1010 c 0,70,71
EndSplineSet
Substitution2: "'fina' Terminal Forms in Arabic lookup 5 subtable" sadfinal
Substitution2: "'medi' Medial Forms in Arabic lookup 4 subtable" sadmedial
Substitution2: "'init' Initial Forms in Arabic lookup 3 subtable" sadinitial
Substitution2: "'isol' Isolated Forms in Arabic lookup 2 subtable" sadisolated
AlternateSubs2: "'aalt' Access All Alternates in Latin lookup 1 subtable" sadisolated sadinitial sadmedial sadfinal
EndChar

StartChar: dad
Encoding: 1590 1590 25
Width: 3437
Flags: W
AnchorPoint: "ArabicBelow" 1718 -252 basechar 0
AnchorPoint: "ArabicAbove" 1718 1867 basechar 0
LayerCount: 2
Fore
SplineSet
660 1143 m 1,0,-1
 497 1143 l 2,1,2
 428 1143 428 1143 380 1098 c 0,3,4
 357 1076 357 1076 345 1047 c 128,-1,5
 333 1018 333 1018 333 992 c 2,6,-1
 333 313 l 2,7,8
 333 283 333 283 345 256 c 0,9,10
 364 223 364 223 380 207 c 0,11,12
 405 185 405 185 434.5 173.5 c 128,-1,13
 464 162 464 162 497 162 c 2,14,-1
 1316 162 l 2,15,16
 1385 162 1385 162 1432 207.5 c 128,-1,17
 1479 253 1479 253 1479 313 c 2,18,-1
 1479 419 l 1,19,-1
 1479 653 l 1,20,-1
 1479 1307 l 1,21,-1
 1643 1307 l 1,22,-1
 1643 1145 l 1,23,24
 1706 1221 1706 1221 1789.5 1264 c 128,-1,25
 1873 1307 1873 1307 1963 1307 c 2,26,-1
 2956 1307 l 2,27,28
 3026 1307 3026 1307 3087.5 1271 c 128,-1,29
 3149 1235 3149 1235 3193 1173.5 c 128,-1,30
 3237 1112 3237 1112 3258.5 1039.5 c 128,-1,31
 3280 967 3280 967 3280 882 c 2,32,-1
 3280 423 l 2,33,34
 3280 379 3280 379 3274 340 c 0,35,36
 3272 328 3272 328 3267 304.5 c 128,-1,37
 3262 281 3262 281 3257 265 c 0,38,39
 3235 192 3235 192 3194 134 c 0,40,41
 3147 69 3147 69 3087 33.5 c 128,-1,42
 3027 -2 3027 -2 2956 -2 c 2,43,-1
 1802 -2 l 2,44,45
 1736 -2 1736 -2 1676 31 c 128,-1,46
 1616 64 1616 64 1574 121 c 1,47,-1
 1554 98 l 1,48,-1
 1545 89 l 2,49,50
 1518 63 1518 63 1494.5 48 c 128,-1,51
 1471 33 1471 33 1440 21 c 0,52,53
 1384 -2 1384 -2 1316 -2 c 2,54,-1
 497 -2 l 2,55,56
 431 -2 431 -2 371 22 c 0,57,58
 309 50 309 50 266 90 c 0,59,60
 220 134 220 134 195 192 c 128,-1,61
 170 250 170 250 170 313 c 2,62,-1
 170 992 l 2,63,64
 170 1056 170 1056 196.5 1115 c 128,-1,65
 223 1174 223 1174 269.5 1217.5 c 128,-1,66
 316 1261 316 1261 373 1284 c 128,-1,67
 430 1307 430 1307 497 1307 c 2,68,-1
 660 1307 l 1,69,-1
 660 1143 l 1,0,-1
1746 1010 m 0,70,71
 1718 972 1718 972 1700.5 934.5 c 128,-1,72
 1683 897 1683 897 1669 850 c 128,-1,73
 1655 803 1655 803 1649 756 c 128,-1,74
 1643 709 1643 709 1643 653 c 2,75,-1
 1643 420 l 2,76,77
 1643 306 1643 306 1699 227 c 0,78,79
 1724 193 1724 193 1749 177.5 c 128,-1,80
 1774 162 1774 162 1802 162 c 2,81,-1
 2956 162 l 2,82,83
 2983 162 2983 162 3011 179 c 128,-1,84
 3039 196 3039 196 3060 227 c 0,85,86
 3087 264 3087 264 3101.5 317 c 128,-1,87
 3116 370 3116 370 3116 423 c 2,88,-1
 3116 882 l 2,89,90
 3116 936 3116 936 3099.5 989.5 c 128,-1,91
 3083 1043 3083 1043 3060 1078 c 0,92,93
 3013 1143 3013 1143 2956 1143 c 2,94,-1
 1963 1143 l 2,95,96
 1902 1143 1902 1143 1844.5 1107 c 128,-1,97
 1787 1071 1787 1071 1746 1010 c 0,70,71
2297 1617 m 1,98,-1
 2461 1617 l 1,99,-1
 2461 1453 l 1,100,-1
 2297 1453 l 1,101,-1
 2297 1617 l 1,98,-1
EndSplineSet
Substitution2: "'fina' Terminal Forms in Arabic lookup 5 subtable" dadfinal
Substitution2: "'medi' Medial Forms in Arabic lookup 4 subtable" dadmedial
Substitution2: "'init' Initial Forms in Arabic lookup 3 subtable" dadinitial
Substitution2: "'isol' Isolated Forms in Arabic lookup 2 subtable" dadisolated
AlternateSubs2: "'aalt' Access All Alternates in Latin lookup 1 subtable" dadisolated dadinitial dadmedial dadfinal
EndChar

StartChar: tah
Encoding: 1591 1591 26
Width: 2569
Flags: W
AnchorPoint: "ArabicBelow" 1284 -254 basechar 0
AnchorPoint: "ArabicAbove" 1284 1868 basechar 0
LayerCount: 2
Fore
SplineSet
791 1618 m 1,0,-1
 791 1133 l 1,1,2
 855 1209 855 1209 938 1251.5 c 128,-1,3
 1021 1294 1021 1294 1109 1294 c 2,4,-1
 2093 1294 l 2,5,6
 2163 1294 2163 1294 2223.5 1258.5 c 128,-1,7
 2284 1223 2284 1223 2329 1159 c 0,8,9
 2352 1127 2352 1127 2366 1097.5 c 128,-1,10
 2380 1068 2380 1068 2391.5 1029 c 128,-1,11
 2403 990 2403 990 2408 953.5 c 128,-1,12
 2413 917 2413 917 2413 872 c 2,13,-1
 2413 418 l 2,14,15
 2413 340 2413 340 2389.5 262 c 128,-1,16
 2366 184 2366 184 2329 132 c 0,17,18
 2279 66 2279 66 2222 31.5 c 128,-1,19
 2165 -3 2165 -3 2093 -3 c 2,20,-1
 143 -4 l 1,21,-1
 143 157 l 1,22,-1
 147 157 l 1,23,-1
 143 157 l 1,24,-1
 629 157 l 1,25,-1
 629 418 l 1,26,-1
 629 645 l 1,27,-1
 629 1618 l 1,28,-1
 791 1618 l 1,0,-1
2196 1066 m 0,29,30
 2170 1101 2170 1101 2146 1115 c 0,31,32
 2120 1132 2120 1132 2093 1132 c 2,33,-1
 1109 1132 l 2,34,35
 1049 1132 1049 1132 992 1096 c 0,36,37
 963 1078 963 1078 939.5 1054.5 c 128,-1,38
 916 1031 916 1031 894 1000 c 0,39,40
 844 930 844 930 817 839 c 0,41,42
 804 796 804 796 797.5 746.5 c 128,-1,43
 791 697 791 697 791 645 c 2,44,-1
 791 418 l 2,45,46
 791 300 791 300 848 225 c 0,47,48
 871 192 871 192 896.5 175.5 c 128,-1,49
 922 159 922 159 949 159 c 2,50,-1
 2093 159 l 2,51,52
 2121 159 2121 159 2148 177 c 128,-1,53
 2175 195 2175 195 2196 225 c 0,54,55
 2251 304 2251 304 2251 418 c 2,56,-1
 2251 872 l 2,57,58
 2251 928 2251 928 2235 980.5 c 128,-1,59
 2219 1033 2219 1033 2196 1066 c 0,29,30
EndSplineSet
Substitution2: "'fina' Terminal Forms in Arabic lookup 5 subtable" tahfinal
Substitution2: "'medi' Medial Forms in Arabic lookup 4 subtable" tahmedial
Substitution2: "'init' Initial Forms in Arabic lookup 3 subtable" tahinitial
Substitution2: "'isol' Isolated Forms in Arabic lookup 2 subtable" tahisolated
AlternateSubs2: "'aalt' Access All Alternates in Latin lookup 1 subtable" tahisolated tahinitial tahmedial tahfinal
EndChar

StartChar: zah
Encoding: 1592 1592 27
Width: 2569
Flags: W
AnchorPoint: "ArabicBelow" 1284 -253 basechar 0
AnchorPoint: "ArabicAbove" 1284 1868 basechar 0
LayerCount: 2
Fore
SplineSet
1440 1618 m 1,0,-1
 1602 1618 l 1,1,-1
 1602 1456 l 1,2,-1
 1440 1456 l 1,3,-1
 1440 1618 l 1,0,-1
791 1618 m 1,4,-1
 791 1133 l 1,5,6
 855 1209 855 1209 938 1251.5 c 128,-1,7
 1021 1294 1021 1294 1109 1294 c 2,8,-1
 2093 1294 l 2,9,10
 2163 1294 2163 1294 2223.5 1258.5 c 128,-1,11
 2284 1223 2284 1223 2329 1159 c 0,12,13
 2352 1127 2352 1127 2366 1097.5 c 128,-1,14
 2380 1068 2380 1068 2391.5 1029 c 128,-1,15
 2403 990 2403 990 2408 953.5 c 128,-1,16
 2413 917 2413 917 2413 872 c 2,17,-1
 2413 418 l 2,18,19
 2413 340 2413 340 2389.5 262 c 128,-1,20
 2366 184 2366 184 2329 132 c 0,21,22
 2279 66 2279 66 2222 31.5 c 128,-1,23
 2165 -3 2165 -3 2093 -3 c 2,24,-1
 143 -3 l 1,25,-1
 143 161 l 1,26,-1
 629 161 l 1,27,-1
 629 418 l 1,28,-1
 629 645 l 1,29,-1
 629 1618 l 1,30,-1
 791 1618 l 1,4,-1
2196 1066 m 0,31,32
 2170 1101 2170 1101 2146 1115 c 0,33,34
 2120 1132 2120 1132 2093 1132 c 2,35,-1
 1109 1132 l 2,36,37
 1049 1132 1049 1132 992 1096 c 0,38,39
 963 1078 963 1078 939.5 1054.5 c 128,-1,40
 916 1031 916 1031 894 1000 c 0,41,42
 844 930 844 930 817 839 c 0,43,44
 804 796 804 796 797.5 746.5 c 128,-1,45
 791 697 791 697 791 645 c 2,46,-1
 791 418 l 2,47,48
 791 300 791 300 848 225 c 0,49,50
 871 192 871 192 896.5 175.5 c 128,-1,51
 922 159 922 159 949 159 c 2,52,-1
 2093 159 l 2,53,54
 2121 159 2121 159 2148 177 c 128,-1,55
 2175 195 2175 195 2196 225 c 0,56,57
 2251 304 2251 304 2251 418 c 2,58,-1
 2251 872 l 2,59,60
 2251 928 2251 928 2235 980.5 c 128,-1,61
 2219 1033 2219 1033 2196 1066 c 0,31,32
EndSplineSet
Substitution2: "'fina' Terminal Forms in Arabic lookup 5 subtable" zahfinal
Substitution2: "'medi' Medial Forms in Arabic lookup 4 subtable" zahmedial
Substitution2: "'init' Initial Forms in Arabic lookup 3 subtable" zahinitial
Substitution2: "'isol' Isolated Forms in Arabic lookup 2 subtable" zahisolated
AlternateSubs2: "'aalt' Access All Alternates in Latin lookup 1 subtable" zahisolated zahinitial zahmedial zahfinal
EndChar

StartChar: ain
Encoding: 1593 1593 28
Width: 1652
Flags: W
AnchorPoint: "ArabicBelow" 826 -578 basechar 0
AnchorPoint: "ArabicAbove" 826 1554 basechar 0
LayerCount: 2
Fore
SplineSet
1256 1095 m 0,0,1
 1233 1117 1233 1117 1202.5 1129 c 128,-1,2
 1172 1141 1172 1141 1140 1141 c 2,3,-1
 650 1141 l 2,4,5
 583 1141 583 1141 535 1096 c 128,-1,6
 487 1051 487 1051 487 990 c 2,7,-1
 487 312 l 2,8,9
 487 251 487 251 534 207 c 0,10,11
 558 185 558 185 588.5 173 c 128,-1,12
 619 161 619 161 650 161 c 2,13,-1
 1060 161 l 1,14,-1
 1467 161 l 1,15,-1
 1467 -2 l 1,16,-1
 1060 -2 l 1,17,-1
 650 -2 l 1,18,-1
 475 -2 l 2,19,20
 413 -2 413 -2 369 -48 c 0,21,22
 347 -71 347 -71 335 -103 c 128,-1,23
 323 -135 323 -135 323 -165 c 2,24,-1
 323 -170 l 1,25,-1
 323 -165 l 1,26,-1
 323 -160 l 1,27,-1
 323 -165 l 1,28,-1
 323 -328 l 1,29,-1
 160 -328 l 1,30,-1
 160 -165 l 1,31,-1
 160 -161 l 1,32,-1
 160 -165 l 1,33,-1
 160 -169 l 1,34,-1
 160 -165 l 2,35,36
 160 -134 160 -134 167 -100.5 c 128,-1,37
 174 -67 174 -67 185 -39 c 0,38,39
 210 21 210 21 251 65 c 0,40,41
 266 80 266 80 279.5 91 c 128,-1,42
 293 102 293 102 308 111 c 0,43,44
 340 132 340 132 375 144 c 1,45,46
 323 221 323 221 323 312 c 2,47,-1
 323 990 l 2,48,49
 323 1053 323 1053 351 1113 c 128,-1,50
 379 1173 379 1173 424.5 1215.5 c 128,-1,51
 470 1258 470 1258 528 1281 c 128,-1,52
 586 1304 586 1304 650 1304 c 2,53,-1
 1140 1304 l 2,54,55
 1201 1304 1201 1304 1265 1278.5 c 128,-1,56
 1329 1253 1329 1253 1370 1211 c 0,57,58
 1417 1169 1417 1169 1441 1111 c 0,59,60
 1467 1058 1467 1058 1467 990 c 2,61,-1
 1467 731 l 1,62,-1
 1303 731 l 1,63,-1
 1303 990 l 2,64,65
 1303 1051 1303 1051 1256 1095 c 0,0,1
1145 1141 m 1,66,-1
 1140 1141 l 1,67,-1
 1145 1141 l 1,66,-1
EndSplineSet
Substitution2: "'fina' Terminal Forms in Arabic lookup 5 subtable" ainfinal
Substitution2: "'medi' Medial Forms in Arabic lookup 4 subtable" ainmedial
Substitution2: "'init' Initial Forms in Arabic lookup 3 subtable" aininitial
Substitution2: "'isol' Isolated Forms in Arabic lookup 2 subtable" ainisolated
AlternateSubs2: "'aalt' Access All Alternates in Latin lookup 1 subtable" ainisolated aininitial ainmedial ainfinal
EndChar

StartChar: ghain
Encoding: 1594 1594 29
Width: 1652
Flags: W
AnchorPoint: "ArabicBelow" 826 -578 basechar 0
AnchorPoint: "ArabicAbove" 826 1868 basechar 0
LayerCount: 2
Fore
SplineSet
1256 1095 m 0,0,1
 1303 1051 1303 1051 1303 990 c 2,2,-1
 1303 731 l 1,3,-1
 1467 731 l 1,4,-1
 1467 990 l 2,5,6
 1467 1058 1467 1058 1441 1111 c 0,7,8
 1417 1169 1417 1169 1370 1211 c 0,9,10
 1329 1253 1329 1253 1265 1278.5 c 128,-1,11
 1201 1304 1201 1304 1140 1304 c 2,12,-1
 650 1304 l 2,13,14
 586 1304 586 1304 528 1281 c 128,-1,15
 470 1258 470 1258 424.5 1215.5 c 128,-1,16
 379 1173 379 1173 351 1113 c 128,-1,17
 323 1053 323 1053 323 990 c 2,18,-1
 323 312 l 2,19,20
 323 221 323 221 375 144 c 1,21,22
 340 132 340 132 308 111 c 0,23,24
 293 102 293 102 279.5 91 c 128,-1,25
 266 80 266 80 251 65 c 0,26,27
 210 21 210 21 185 -39 c 0,28,29
 174 -67 174 -67 167 -100.5 c 128,-1,30
 160 -134 160 -134 160 -165 c 2,31,-1
 160 -169 l 1,32,-1
 160 -165 l 1,33,-1
 160 -161 l 1,34,-1
 160 -165 l 1,35,-1
 160 -328 l 1,36,-1
 323 -328 l 1,37,-1
 323 -165 l 1,38,-1
 323 -160 l 1,39,-1
 323 -165 l 1,40,-1
 323 -170 l 1,41,-1
 323 -165 l 2,42,43
 323 -135 323 -135 335 -103 c 128,-1,44
 347 -71 347 -71 369 -48 c 0,45,46
 413 -2 413 -2 475 -2 c 2,47,-1
 650 -2 l 1,48,-1
 1060 -2 l 1,49,-1
 1467 -2 l 1,50,-1
 1467 161 l 1,51,-1
 1060 161 l 1,52,-1
 650 161 l 2,53,54
 619 161 619 161 588.5 173 c 128,-1,55
 558 185 558 185 534 207 c 0,56,57
 487 251 487 251 487 312 c 2,58,-1
 487 990 l 2,59,60
 487 1051 487 1051 535 1096 c 128,-1,61
 583 1141 583 1141 650 1141 c 2,62,-1
 1140 1141 l 2,63,64
 1172 1141 1172 1141 1202.5 1129 c 128,-1,65
 1233 1117 1233 1117 1256 1095 c 0,0,1
814 1618 m 1,66,-1
 977 1618 l 1,67,-1
 977 1455 l 1,68,-1
 814 1455 l 1,69,-1
 814 1618 l 1,66,-1
1145 1141 m 1,70,-1
 1140 1141 l 1,71,-1
 1145 1141 l 1,70,-1
EndSplineSet
Substitution2: "'fina' Terminal Forms in Arabic lookup 5 subtable" ghainfinal
Substitution2: "'medi' Medial Forms in Arabic lookup 4 subtable" ghainmedial
Substitution2: "'init' Initial Forms in Arabic lookup 3 subtable" ghaininitial
Substitution2: "'isol' Isolated Forms in Arabic lookup 2 subtable" ghainisolated
AlternateSubs2: "'aalt' Access All Alternates in Latin lookup 1 subtable" ghainisolated ghaininitial ghainmedial ghainfinal
EndChar

StartChar: tatweel
Encoding: 1600 1600 30
Width: 193
Flags: W
LayerCount: 2
Fore
SplineSet
201 -1 m 1,0,-1
 -2 -1 l 1,1,-1
 -2 162 l 1,2,-1
 201 162 l 1,3,-1
 201 -1 l 1,0,-1
EndSplineSet
EndChar

StartChar: feh
Encoding: 1601 1601 31
Width: 3006
Flags: W
AnchorPoint: "ArabicBelow" 1503 -252 basechar 0
AnchorPoint: "ArabicAbove" 1503 1871 basechar 0
LayerCount: 2
Fore
SplineSet
738 1133 m 1,0,-1
 574 1133 l 2,1,2
 503 1133 503 1133 458 1087 c 0,3,4
 410 1047 410 1047 410 981 c 2,5,-1
 410 305 l 2,6,7
 410 276 410 276 423.5 247.5 c 128,-1,8
 437 219 437 219 458 201 c 0,9,10
 505 156 505 156 574 162 c 2,11,-1
 1389 163 l 1,12,-1
 2508 162 l 2,13,14
 2579 162 2579 162 2624 207 c 0,15,16
 2671 254 2671 254 2671 313 c 2,17,-1
 2671 463 l 1,18,19
 2633 440 2633 440 2593 430 c 128,-1,20
 2553 420 2553 420 2508 420 c 2,21,-1
 1854 420 l 2,22,23
 1787 420 1787 420 1727.5 444.5 c 128,-1,24
 1668 469 1668 469 1624 512 c 128,-1,25
 1580 555 1580 555 1553.5 612.5 c 128,-1,26
 1527 670 1527 670 1527 735 c 2,27,-1
 1527 991 l 2,28,29
 1527 1057 1527 1057 1552.5 1114 c 128,-1,30
 1578 1171 1578 1171 1623 1214 c 128,-1,31
 1668 1257 1668 1257 1727.5 1282 c 128,-1,32
 1787 1307 1787 1307 1854 1307 c 2,33,-1
 2508 1307 l 2,34,35
 2573 1307 2573 1307 2632.5 1282 c 128,-1,36
 2692 1257 2692 1257 2737 1214 c 128,-1,37
 2782 1171 2782 1171 2808.5 1114 c 128,-1,38
 2835 1057 2835 1057 2835 991 c 2,39,-1
 2835 313 l 2,40,41
 2835 248 2835 248 2808.5 190.5 c 128,-1,42
 2782 133 2782 133 2738 90 c 128,-1,43
 2694 47 2694 47 2634.5 22.5 c 128,-1,44
 2575 -2 2575 -2 2508 -2 c 2,45,-1
 1457 -1 l 1,46,-1
 574 -2 l 2,47,48
 509 -7 509 -7 448.5 18 c 128,-1,49
 388 43 388 43 345 84 c 0,50,51
 296 129 296 129 272.5 185.5 c 128,-1,52
 249 242 249 242 249 305 c 2,53,-1
 249 981 l 2,54,55
 249 1114 249 1114 345 1204 c 0,56,57
 394 1249 394 1249 450.5 1272.5 c 128,-1,58
 507 1296 507 1296 574 1296 c 2,59,-1
 738 1296 l 1,60,-1
 738 1133 l 1,0,-1
1854 1143 m 1,61,62
 1783 1143 1783 1143 1736 1098 c 0,63,64
 1690 1055 1690 1055 1690 991 c 2,65,-1
 1690 735 l 2,66,67
 1690 705 1690 705 1701.5 677 c 128,-1,68
 1713 649 1713 649 1736 629 c 0,69,70
 1787 584 1787 584 1854 584 c 2,71,-1
 2508 584 l 2,72,73
 2579 584 2579 584 2624 629 c 0,74,75
 2671 676 2671 676 2671 735 c 2,76,-1
 2671 991 l 2,77,78
 2671 1053 2671 1053 2624 1098 c 128,-1,79
 2577 1143 2577 1143 2508 1143 c 2,80,-1
 1854 1143 l 1,81,-1
 1854 1143 l 1,61,62
2104 1621 m 1,82,-1
 2268 1621 l 1,83,-1
 2268 1457 l 1,84,-1
 2104 1457 l 1,85,-1
 2104 1621 l 1,82,-1
EndSplineSet
Substitution2: "'fina' Terminal Forms in Arabic lookup 5 subtable" fehfinal
Substitution2: "'medi' Medial Forms in Arabic lookup 4 subtable" fehmedial
Substitution2: "'init' Initial Forms in Arabic lookup 3 subtable" fehinitial
Substitution2: "'isol' Isolated Forms in Arabic lookup 2 subtable" fehisolated
AlternateSubs2: "'aalt' Access All Alternates in Latin lookup 1 subtable" fehisolated fehinitial fehmedial fehfinal
EndChar

StartChar: qaf
Encoding: 1602 1602 32
Width: 2483
Flags: W
AnchorPoint: "ArabicBelow" 1241 -580 basechar 0
AnchorPoint: "ArabicAbove" 1241 1871 basechar 0
LayerCount: 2
Fore
SplineSet
635 1130 m 1,0,-1
 471 1130 l 2,1,2
 399 1130 399 1130 352 1085 c 0,3,4
 332 1065 332 1065 319.5 1037.5 c 128,-1,5
 307 1010 307 1010 307 981 c 2,6,-1
 307 -16 l 2,7,8
 307 -45 307 -45 320.5 -73.5 c 128,-1,9
 334 -102 334 -102 352 -121 c 0,10,11
 403 -166 403 -166 471 -166 c 2,12,-1
 2007 -166 l 2,13,14
 2073 -162 2073 -162 2118 -121 c 0,15,16
 2144 -98 2144 -98 2152 -72 c 0,17,18
 2159 -55 2159 -55 2161 -44 c 128,-1,19
 2163 -33 2163 -33 2163 -16 c 2,20,-1
 2163 39 l 1,21,22
 2154 35 2154 35 2144 30 c 128,-1,23
 2124 20 l 0,24,25
 2111 14 2111 14 2103 12 c 128,-1,26
 2095 10 2095 10 2085 6 c 1,27,28
 2050 -2 2050 -2 2003 -2 c 2,29,-1
 1354 -2 l 2,30,31
 1300 -2 1300 -2 1270.5 7 c 128,-1,32
 1241 16 1241 16 1229 20 c 0,33,34
 1167 47 1167 47 1124 88 c 0,35,36
 1077 131 1077 131 1052.5 188.5 c 128,-1,37
 1028 246 1028 246 1028 309 c 2,38,-1
 1028 981 l 2,39,40
 1028 1042 1028 1042 1054.5 1102.5 c 128,-1,41
 1081 1163 1081 1163 1124 1204 c 0,42,43
 1174 1247 1174 1247 1231 1272 c 0,44,45
 1262 1284 1262 1284 1290.5 1289 c 128,-1,46
 1319 1294 1319 1294 1354 1294 c 2,47,-1
 2003 1294 l 2,48,49
 2052 1294 2052 1294 2097 1280 c 128,-1,50
 2142 1266 2142 1266 2182 1240 c 128,-1,51
 2222 1214 2222 1214 2251.5 1178.5 c 128,-1,52
 2281 1143 2281 1143 2300 1102 c 0,53,54
 2327 1051 2327 1051 2327 981 c 2,55,-1
 2327 -16 l 2,56,57
 2327 -82 2327 -82 2299 -138.5 c 128,-1,58
 2271 -195 2271 -195 2227 -237 c 128,-1,59
 2183 -279 2183 -279 2124.5 -303.5 c 128,-1,60
 2066 -328 2066 -328 2005 -328 c 2,61,-1
 2003 -328 l 1,62,-1
 2003 -330 l 1,63,-1
 471 -330 l 2,64,65
 406 -330 406 -330 345.5 -305.5 c 128,-1,66
 285 -281 285 -281 242 -240 c 0,67,68
 145 -145 145 -145 145 -16 c 2,69,-1
 145 981 l 2,70,71
 145 1112 145 1112 242 1202 c 0,72,73
 291 1247 291 1247 347 1270.5 c 128,-1,74
 403 1294 403 1294 471 1294 c 2,75,-1
 635 1294 l 1,76,-1
 635 1130 l 1,0,-1
1288 1120 m 0,77,78
 1255 1104 1255 1104 1237 1085 c 0,79,80
 1192 1040 1192 1040 1192 981 c 2,81,-1
 1192 309 l 2,82,83
 1192 283 1192 283 1202 252 c 1,84,85
 1210 238 1210 238 1218.5 226.5 c 128,-1,86
 1227 215 1227 215 1237 205 c 0,87,88
 1284 160 1284 160 1354 160 c 2,89,-1
 2003 160 l 2,90,91
 2036 160 2036 160 2066.5 172 c 128,-1,92
 2097 184 2097 184 2118 205 c 0,93,94
 2163 250 2163 250 2163 309 c 2,95,-1
 2163 981 l 2,96,97
 2163 1012 2163 1012 2151.5 1039.5 c 128,-1,98
 2140 1067 2140 1067 2118 1085 c 0,99,100
 2066 1133 2066 1133 2003 1133 c 2,101,-1
 1354 1133 l 2,102,103
 1319 1133 1319 1133 1288 1120 c 0,77,78
1823 1621 m 1,104,-1
 1986 1621 l 1,105,-1
 1986 1457 l 1,106,-1
 1823 1457 l 1,107,-1
 1823 1621 l 1,104,-1
1496 1621 m 1,108,-1
 1659 1621 l 1,109,-1
 1659 1457 l 1,110,-1
 1496 1457 l 1,111,-1
 1496 1621 l 1,108,-1
EndSplineSet
Substitution2: "'fina' Terminal Forms in Arabic lookup 5 subtable" qaffinal
Substitution2: "'medi' Medial Forms in Arabic lookup 4 subtable" qafmedial
Substitution2: "'init' Initial Forms in Arabic lookup 3 subtable" qafinitial
Substitution2: "'isol' Isolated Forms in Arabic lookup 2 subtable" qafisolated
AlternateSubs2: "'aalt' Access All Alternates in Latin lookup 1 subtable" qafisolated qafinitial qafmedial qaffinal
EndChar

StartChar: arabickaf
Encoding: 1603 1603 33
Width: 1960
Flags: W
AnchorPoint: "ArabicBelow" 980 -248 basechar 0
AnchorPoint: "ArabicAbove" 980 1886 basechar 0
LayerCount: 2
Fore
SplineSet
647 805 m 1,0,-1
 484 805 l 2,1,2
 416 805 416 805 367 759 c 0,3,4
 345 738 345 738 333 709.5 c 128,-1,5
 321 681 321 681 321 655 c 2,6,-1
 321 316 l 2,7,8
 321 286 321 286 333 259 c 0,9,10
 352 226 352 226 368 210 c 0,11,12
 394 189 394 189 420 177 c 0,13,14
 453 165 453 165 484 165 c 2,15,-1
 1463 165 l 2,16,17
 1484 165 1484 165 1502 170 c 128,-1,18
 1520 175 1520 175 1528 178 c 0,19,20
 1559 191 1559 191 1581 211 c 0,21,22
 1628 255 1628 255 1628 316 c 2,23,-1
 1628 1636 l 1,24,-1
 1791 1636 l 1,25,-1
 1791 316 l 2,26,27
 1791 253 1791 253 1763 194 c 128,-1,28
 1735 135 1735 135 1690 92 c 128,-1,29
 1645 49 1645 49 1588 25 c 0,30,31
 1555 11 1555 11 1527 7 c 0,32,33
 1503 2 1503 2 1463 2 c 2,34,-1
 484 2 l 2,35,36
 417 2 417 2 357.5 27 c 128,-1,37
 298 52 298 52 255 93 c 0,38,39
 206 142 206 142 183 194 c 0,40,41
 173 214 173 214 170 223.5 c 128,-1,42
 167 233 167 233 162 258.5 c 128,-1,43
 157 284 157 284 157 316 c 2,44,-1
 157 655 l 2,45,46
 157 716 157 716 184 776 c 128,-1,47
 211 836 211 836 254.5 878 c 128,-1,48
 298 920 298 920 359.5 944.5 c 128,-1,49
 421 969 421 969 484 969 c 2,50,-1
 647 969 l 1,51,-1
 647 805 l 1,0,-1
1077 1468 m 2,52,53
 1077 1449 1077 1449 1088 1443 c 1,54,55
 1099 1432 1099 1432 1118 1432 c 2,56,-1
 1240 1432 l 1,57,-1
 1240 1308 l 1,58,-1
 872 1308 l 1,59,-1
 872 1431 l 1,60,-1
 953 1431 l 1,61,-1
 953 1533 l 1,62,-1
 953 1557 l 2,63,64
 953 1590 953 1590 978 1613 c 128,-1,65
 1003 1636 1003 1636 1036 1636 c 2,66,-1
 1158 1636 l 2,67,68
 1190 1636 1190 1636 1215 1613 c 0,69,70
 1229 1597 1229 1597 1234.5 1585 c 128,-1,71
 1240 1573 1240 1573 1240 1557 c 2,72,-1
 1240 1492 l 1,73,-1
 1199 1493 l 1,74,-1
 1186 1505 l 2,75,76
 1179 1513 1179 1513 1158 1513 c 2,77,-1
 1118 1513 l 2,78,79
 1100 1513 1100 1513 1088 1501 c 1,80,81
 1077 1493 1077 1493 1077 1474 c 2,82,-1
 1077 1468 l 2,52,53
EndSplineSet
Substitution2: "'fina' Terminal Forms in Arabic lookup 5 subtable" arabickaffinal
Substitution2: "'medi' Medial Forms in Arabic lookup 4 subtable" kafmedial
Substitution2: "'init' Initial Forms in Arabic lookup 3 subtable" kafinitial
Substitution2: "'isol' Isolated Forms in Arabic lookup 2 subtable" kafisolated
AlternateSubs2: "'aalt' Access All Alternates in Latin lookup 1 subtable" kafisolated kafinitial kafmedial arabickaffinal
EndChar

StartChar: lam
Encoding: 1604 1604 34
Width: 1626
Flags: W
AnchorPoint: "ArabicBelow" 813 -578 basechar 0
AnchorPoint: "ArabicAbove" 813 1886 basechar 0
LayerCount: 2
Fore
SplineSet
651 639 m 1,0,-1
 651 475 l 1,1,-1
 489 475 l 2,2,3
 424 475 424 475 373 428 c 0,4,5
 350 408 350 408 339 380 c 128,-1,6
 328 352 328 352 328 326 c 2,7,-1
 328 -14 l 2,8,9
 328 -80 328 -80 373 -119 c 0,10,11
 424 -166 424 -166 489 -166 c 2,12,-1
 1130 -166 l 2,13,14
 1196 -166 1196 -166 1247 -119 c 0,15,16
 1292 -74 1292 -74 1292 -14 c 2,17,-1
 1292 1636 l 1,18,-1
 1456 1636 l 1,19,-1
 1456 -14 l 2,20,21
 1456 -80 1456 -80 1429.5 -137.5 c 128,-1,22
 1403 -195 1403 -195 1358 -237 c 128,-1,23
 1313 -279 1313 -279 1253.5 -303.5 c 128,-1,24
 1194 -328 1194 -328 1130 -328 c 2,25,-1
 489 -328 l 2,26,27
 436 -328 436 -328 406.5 -318.5 c 128,-1,28
 377 -309 377 -309 365 -305 c 0,29,30
 272 -264 272 -264 218 -188.5 c 128,-1,31
 164 -113 164 -113 164 -14 c 2,32,-1
 164 326 l 2,33,34
 164 385 164 385 189.5 445.5 c 128,-1,35
 215 506 215 506 260 547 c 0,36,37
 274 559 274 559 286.5 568.5 c 128,-1,38
 299 578 299 578 309 586 c 0,39,40
 338 604 338 604 365 614 c 0,41,42
 428 639 428 639 489 639 c 2,43,-1
 651 639 l 1,0,-1
EndSplineSet
Substitution2: "'fina' Terminal Forms in Arabic lookup 5 subtable" lamfinal
Substitution2: "'medi' Medial Forms in Arabic lookup 4 subtable" lammedial
Substitution2: "'init' Initial Forms in Arabic lookup 3 subtable" laminitial
Substitution2: "'isol' Isolated Forms in Arabic lookup 2 subtable" lamisolated
AlternateSubs2: "'aalt' Access All Alternates in Latin lookup 1 subtable" lamisolated laminitial lammedial lamfinal
EndChar

StartChar: meem
Encoding: 1605 1605 35
Width: 2128
Flags: W
AnchorPoint: "ArabicBelow" 1064 -573 basechar 0
AnchorPoint: "ArabicAbove" 1064 1556 basechar 0
LayerCount: 2
Fore
SplineSet
865 1097 m 0,0,1
 819 1053 819 1053 819 992 c 2,2,-1
 819 491 l 1,3,-1
 819 316 l 2,4,5
 819 288 819 288 831 258 c 0,6,7
 844 230 844 230 866.5 209.5 c 128,-1,8
 889 189 889 189 918 177 c 0,9,10
 949 166 949 166 983 166 c 2,11,-1
 1633 166 l 2,12,13
 1666 166 1666 166 1696 178 c 128,-1,14
 1726 190 1726 190 1750 211 c 0,15,16
 1796 252 1796 252 1796 316 c 2,17,-1
 1796 992 l 2,18,19
 1796 1022 1796 1022 1784.5 1049.5 c 128,-1,20
 1773 1077 1773 1077 1750 1097 c 0,21,22
 1730 1117 1730 1117 1697 1130 c 128,-1,23
 1664 1143 1664 1143 1633 1143 c 2,24,-1
 983 1143 l 2,25,26
 951 1143 951 1143 920.5 1131.5 c 128,-1,27
 890 1120 890 1120 865 1097 c 0,0,1
1633 1306 m 2,28,29
 1667 1306 1667 1306 1695.5 1301 c 128,-1,30
 1724 1296 1724 1296 1755 1283 c 0,31,32
 1811 1261 1811 1261 1858.5 1218 c 128,-1,33
 1906 1175 1906 1175 1932.5 1116 c 128,-1,34
 1959 1057 1959 1057 1959 992 c 2,35,-1
 1959 316 l 2,36,37
 1959 284 1959 284 1954 258.5 c 128,-1,38
 1949 233 1949 233 1946 223.5 c 128,-1,39
 1943 214 1943 214 1933 194 c 0,40,41
 1909 137 1909 137 1864.5 95.5 c 128,-1,42
 1820 54 1820 54 1758 26 c 0,43,44
 1698 2 1698 2 1633 2 c 2,45,-1
 983 2 l 2,46,47
 965 2 965 2 949 3 c 128,-1,48
 933 4 933 4 912 8 c 128,-1,49
 891 12 891 12 858 25 c 0,50,51
 803 48 803 48 755.5 93 c 128,-1,52
 708 138 708 138 682 196.5 c 128,-1,53
 656 255 656 255 656 316 c 2,54,-1
 656 491 l 1,55,-1
 656 992 l 2,56,57
 656 1021 656 1021 644 1048 c 0,58,59
 634 1075 634 1075 610 1097 c 0,60,61
 561 1143 561 1143 494 1143 c 2,62,-1
 488 1143 l 1,63,-1
 494 1143 l 1,64,-1
 498 1143 l 1,65,-1
 494 1143 l 2,66,67
 462 1143 462 1143 431.5 1131 c 128,-1,68
 401 1119 401 1119 377 1097 c 0,69,70
 330 1053 330 1053 330 992 c 2,71,-1
 330 -323 l 1,72,-1
 168 -323 l 1,73,-1
 168 992 l 2,74,75
 168 1056 168 1056 193 1113.5 c 128,-1,76
 218 1171 218 1171 263 1213 c 128,-1,77
 308 1255 308 1255 370.5 1280.5 c 128,-1,78
 433 1306 433 1306 494 1306 c 1,79,-1
 489 1306 l 1,80,-1
 494 1306 l 1,81,-1
 1633 1306 l 2,28,29
EndSplineSet
Substitution2: "'fina' Terminal Forms in Arabic lookup 5 subtable" meemfinal
Substitution2: "'medi' Medial Forms in Arabic lookup 4 subtable" meemmedial
Substitution2: "'init' Initial Forms in Arabic lookup 3 subtable" meeminitial
Substitution2: "'isol' Isolated Forms in Arabic lookup 2 subtable" meemisolated
AlternateSubs2: "'aalt' Access All Alternates in Latin lookup 1 subtable" meemisolated meeminitial meemmedial meemfinal
EndChar

StartChar: noon
Encoding: 1606 1606 36
Width: 1603
Flags: W
AnchorPoint: "ArabicBelow" 801 -250 basechar 0
AnchorPoint: "ArabicAbove" 801 1868 basechar 0
LayerCount: 2
Fore
SplineSet
636 1147 m 1,0,-1
 472 1147 l 2,1,2
 402 1147 402 1147 356 1101 c 0,3,4
 331 1076 331 1076 319.5 1050 c 128,-1,5
 308 1024 308 1024 308 995 c 2,6,-1
 308 315 l 2,7,8
 308 288 308 288 321 257 c 1,9,10
 341 225 341 225 356 209 c 0,11,12
 382 188 382 188 408 176 c 0,13,14
 441 164 441 164 472 164 c 2,15,-1
 1128 164 l 2,16,17
 1196 164 1196 164 1244 210.5 c 128,-1,18
 1292 257 1292 257 1292 315 c 2,19,-1
 1292 1310 l 1,20,-1
 1456 1310 l 1,21,-1
 1456 315 l 2,22,23
 1456 252 1456 252 1429 193.5 c 128,-1,24
 1402 135 1402 135 1357 91 c 128,-1,25
 1312 47 1312 47 1253 23 c 0,26,27
 1220 9 1220 9 1192 5 c 0,28,29
 1168 0 1168 0 1128 0 c 2,30,-1
 472 0 l 2,31,32
 406 0 406 0 346 24 c 0,33,34
 284 52 284 52 241 92 c 0,35,36
 195 136 195 136 170 194 c 128,-1,37
 145 252 145 252 145 315 c 2,38,-1
 145 995 l 2,39,40
 145 1059 145 1059 171.5 1118 c 128,-1,41
 198 1177 198 1177 242 1218 c 0,42,43
 268 1243 268 1243 291 1257 c 0,44,45
 316 1274 316 1274 347 1286 c 0,46,47
 410 1310 410 1310 472 1310 c 2,48,-1
 636 1310 l 1,49,-1
 636 1147 l 1,0,-1
882 1618 m 1,50,-1
 1046 1618 l 1,51,-1
 1046 1454 l 1,52,-1
 882 1454 l 1,53,-1
 882 1618 l 1,50,-1
EndSplineSet
Substitution2: "'fina' Terminal Forms in Arabic lookup 5 subtable" noonfinal
Substitution2: "'medi' Medial Forms in Arabic lookup 4 subtable" noonmedial
Substitution2: "'init' Initial Forms in Arabic lookup 3 subtable" nooninitial
Substitution2: "'isol' Isolated Forms in Arabic lookup 2 subtable" noonisolated
AlternateSubs2: "'aalt' Access All Alternates in Latin lookup 1 subtable" noonisolated nooninitial noonmedial noonfinal
EndChar

StartChar: heh
Encoding: 1607 1607 37
Width: 1659
Flags: W
AnchorPoint: "ArabicBelow" 829 -252 basechar 0
AnchorPoint: "ArabicAbove" 829 1557 basechar 0
LayerCount: 2
Fore
SplineSet
382 1098 m 0,0,1
 335 1054 335 1054 335 992 c 2,2,-1
 335 313 l 2,3,4
 335 253 335 253 382 207.5 c 128,-1,5
 429 162 429 162 498 162 c 2,6,-1
 1154 162 l 2,7,8
 1191 162 1191 162 1216.5 172.5 c 128,-1,9
 1242 183 1242 183 1270 206 c 0,10,11
 1291 227 1291 227 1304 256.5 c 128,-1,12
 1317 286 1317 286 1317 313 c 2,13,-1
 1317 992 l 2,14,15
 1317 1054 1317 1054 1270 1098.5 c 128,-1,16
 1223 1143 1223 1143 1154 1143 c 2,17,-1
 498 1143 l 2,18,19
 464 1143 464 1143 435 1132.5 c 128,-1,20
 406 1122 406 1122 382 1098 c 0,0,1
269 89 m 0,21,22
 224 133 224 133 197.5 192.5 c 128,-1,23
 171 252 171 252 171 313 c 2,24,-1
 171 992 l 2,25,26
 171 1057 171 1057 195.5 1114.5 c 128,-1,27
 220 1172 220 1172 265 1213 c 128,-1,28
 310 1254 310 1254 373.5 1280.5 c 128,-1,29
 437 1307 437 1307 498 1307 c 2,30,-1
 1154 1307 l 2,31,32
 1217 1307 1217 1307 1277 1284 c 128,-1,33
 1337 1261 1337 1261 1382 1218 c 128,-1,34
 1427 1175 1427 1175 1454 1115.5 c 128,-1,35
 1481 1056 1481 1056 1481 992 c 2,36,-1
 1481 313 l 2,37,38
 1481 280 1481 280 1476.5 258 c 128,-1,39
 1472 236 1472 236 1470 229 c 0,40,41
 1465 212 1465 212 1455 191 c 0,42,43
 1431 136 1431 136 1386.5 93 c 128,-1,44
 1342 50 1342 50 1279 24 c 128,-1,45
 1216 -2 1216 -2 1154 -2 c 2,46,-1
 498 -2 l 2,47,48
 430 -2 430 -2 374 21 c 0,49,50
 345 33 345 33 319.5 48.5 c 128,-1,51
 294 64 294 64 269 89 c 0,21,22
EndSplineSet
Substitution2: "'fina' Terminal Forms in Arabic lookup 5 subtable" hehfinal
Substitution2: "'medi' Medial Forms in Arabic lookup 4 subtable" hehmedial
Substitution2: "'init' Initial Forms in Arabic lookup 3 subtable" hehinitial
Substitution2: "'isol' Isolated Forms in Arabic lookup 2 subtable" hehisolated
AlternateSubs2: "'aalt' Access All Alternates in Latin lookup 1 subtable" hehisolated hehinitial hehmedial hehfinal
EndChar

StartChar: waw
Encoding: 1608 1608 38
Width: 1624
Flags: W
AnchorPoint: "ArabicBelow" 812 -572 basechar 0
AnchorPoint: "ArabicAbove" 812 1544 basechar 0
LayerCount: 2
Fore
SplineSet
374 1086 m 0,0,1
 328 1043 328 1043 328 982 c 2,2,-1
 328 309 l 2,3,4
 328 275 328 275 339.5 251.5 c 128,-1,5
 351 228 351 228 374 205 c 0,6,7
 423 159 423 159 490 159 c 2,8,-1
 1138 159 l 2,9,10
 1168 159 1168 159 1199 171 c 128,-1,11
 1230 183 1230 183 1255 205 c 0,12,13
 1300 247 1300 247 1300 309 c 2,14,-1
 1300 810 l 1,15,-1
 1300 971 l 1,16,-1
 1300 982 l 2,17,18
 1300 1013 1300 1013 1289 1038.5 c 128,-1,19
 1278 1064 1278 1064 1255 1086 c 0,20,21
 1206 1132 1206 1132 1138 1132 c 2,22,-1
 490 1132 l 2,23,24
 457 1132 457 1132 427 1121 c 128,-1,25
 397 1110 397 1110 374 1086 c 0,0,1
1463 -16 m 2,26,27
 1463 -79 1463 -79 1438.5 -136 c 128,-1,28
 1414 -193 1414 -193 1367 -235 c 0,29,30
 1324 -277 1324 -277 1263.5 -302 c 128,-1,31
 1203 -327 1203 -327 792 -321 c 1,32,-1
 792 -157 l 1,33,34
 1171 -160 1171 -160 1201 -150.5 c 128,-1,35
 1231 -141 1231 -141 1255 -120 c 0,36,37
 1300 -78 1300 -78 1300 -16 c 2,38,-1
 1300 39 l 1,39,40
 1266 21 1266 21 1223 8 c 2,41,-1
 1183 0 l 1,42,-1
 1138 -3 l 1,43,-1
 490 -3 l 2,44,45
 421 -3 421 -3 365.5 20.5 c 128,-1,46
 310 44 310 44 263.5 87 c 128,-1,47
 217 130 217 130 191 189 c 128,-1,48
 165 248 165 248 165 309 c 2,49,-1
 165 982 l 2,50,51
 165 1045 165 1045 189.5 1101 c 128,-1,52
 214 1157 214 1157 260.5 1202 c 128,-1,53
 307 1247 307 1247 364.5 1270.5 c 128,-1,54
 422 1294 422 1294 490 1294 c 2,55,-1
 1138 1294 l 2,56,57
 1172 1294 1172 1294 1200.5 1289 c 128,-1,58
 1229 1284 1229 1284 1260 1271 c 0,59,60
 1317 1248 1317 1248 1366 1204 c 0,61,62
 1409 1164 1409 1164 1436 1104.5 c 128,-1,63
 1463 1045 1463 1045 1463 982 c 2,64,-1
 1463 971 l 1,65,-1
 1463 810 l 1,66,-1
 1463 309 l 2,67,68
 1463 274 1463 274 1463 39 c 2,69,-1
 1463 -16 l 2,26,27
EndSplineSet
Substitution2: "'fina' Terminal Forms in Arabic lookup 5 subtable" wawfinal
Substitution2: "'isol' Isolated Forms in Arabic lookup 2 subtable" wawisolated
AlternateSubs2: "'aalt' Access All Alternates in Latin lookup 1 subtable" wawisolated wawfinal
EndChar

StartChar: alefmaksura
Encoding: 1609 1609 39
Width: 1673
Flags: W
AnchorPoint: "ArabicBelow" 836 -251 basechar 0
AnchorPoint: "ArabicAbove" 836 1557 basechar 0
LayerCount: 2
Fore
SplineSet
674 1143 m 1,0,-1
 510 1143 l 2,1,2
 441 1143 441 1143 394 1097.5 c 128,-1,3
 347 1052 347 1052 347 992 c 2,4,-1
 347 313 l 2,5,6
 347 250 347 250 394 208 c 0,7,8
 441 161 441 161 510 161 c 2,9,-1
 756 161 l 1,10,-1
 1165 161 l 2,11,12
 1235 161 1235 161 1282 208 c 0,13,14
 1304 228 1304 228 1316 256.5 c 128,-1,15
 1328 285 1328 285 1328 313 c 2,16,-1
 1328 488 l 1,17,-1
 1328 583 l 2,18,19
 1328 645 1328 645 1280.5 689.5 c 128,-1,20
 1233 734 1233 734 1165 734 c 2,21,-1
 919 734 l 1,22,-1
 919 815 l 1,23,-1
 919 899 l 1,24,-1
 919 992 l 2,25,26
 919 1055 919 1055 945.5 1113.5 c 128,-1,27
 972 1172 972 1172 1017.5 1216 c 128,-1,28
 1063 1260 1063 1260 1123.5 1283.5 c 128,-1,29
 1184 1307 1184 1307 1247 1307 c 2,30,-1
 1410 1307 l 1,31,-1
 1410 1143 l 1,32,-1
 1247 1143 l 1,33,-1
 1241 1143 l 1,34,-1
 1247 1143 l 1,35,36
 1178 1143 1178 1143 1129 1097 c 0,37,38
 1107 1075 1107 1075 1095 1049 c 128,-1,39
 1083 1023 1083 1023 1083 992 c 2,40,-1
 1083 899 l 1,41,-1
 1165 899 l 2,42,43
 1233 899 1233 899 1291 874 c 128,-1,44
 1349 849 1349 849 1396 804.5 c 128,-1,45
 1443 760 1443 760 1466 705 c 0,46,47
 1476 686 1476 686 1479 676 c 128,-1,48
 1482 666 1482 666 1487 640.5 c 128,-1,49
 1492 615 1492 615 1492 583 c 2,50,-1
 1492 488 l 1,51,-1
 1492 313 l 2,52,53
 1492 248 1492 248 1466 190 c 128,-1,54
 1440 132 1440 132 1394 89.5 c 128,-1,55
 1348 47 1348 47 1288.5 23 c 128,-1,56
 1229 -1 1229 -1 1165 -1 c 2,57,-1
 756 -1 l 1,58,-1
 510 -1 l 2,59,60
 445 -1 445 -1 384 22 c 0,61,62
 322 49 322 49 280 90 c 0,63,64
 232 137 232 137 207.5 193 c 128,-1,65
 183 249 183 249 183 313 c 2,66,-1
 183 992 l 2,67,68
 183 1008 183 1008 185 1023 c 128,-1,69
 187 1038 187 1038 190 1055 c 0,70,71
 197 1086 197 1086 208 1114 c 0,72,73
 234 1171 234 1171 279.5 1215.5 c 128,-1,74
 325 1260 325 1260 386 1283.5 c 128,-1,75
 447 1307 447 1307 510 1307 c 2,76,-1
 674 1307 l 1,77,-1
 674 1143 l 1,0,-1
1247 1307 m 1,78,-1
 1242 1307 l 1,79,-1
 1247 1307 l 1,78,-1
EndSplineSet
Substitution2: "'fina' Terminal Forms in Arabic lookup 5 subtable" alefmaksurafinal
Substitution2: "'isol' Isolated Forms in Arabic lookup 2 subtable" alefmaksuraisolated
AlternateSubs2: "'aalt' Access All Alternates in Latin lookup 1 subtable" alefmaksuraisolated alefmaksurafinal
EndChar

StartChar: yeh
Encoding: 1610 1610 40
Width: 1673
Flags: W
AnchorPoint: "ArabicBelow" 836 -581 basechar 0
AnchorPoint: "ArabicAbove" 836 1557 basechar 0
LayerCount: 2
Fore
SplineSet
674 1143 m 1,0,-1
 510 1143 l 2,1,2
 441 1143 441 1143 394 1097.5 c 128,-1,3
 347 1052 347 1052 347 992 c 2,4,-1
 347 313 l 2,5,6
 347 250 347 250 394 208 c 0,7,8
 441 161 441 161 510 161 c 2,9,-1
 756 161 l 1,10,-1
 1165 161 l 2,11,12
 1235 161 1235 161 1282 208 c 0,13,14
 1304 228 1304 228 1316 256.5 c 128,-1,15
 1328 285 1328 285 1328 313 c 2,16,-1
 1328 488 l 1,17,-1
 1328 583 l 2,18,19
 1328 645 1328 645 1280.5 689.5 c 128,-1,20
 1233 734 1233 734 1165 734 c 2,21,-1
 919 734 l 1,22,-1
 919 815 l 1,23,-1
 919 899 l 1,24,-1
 919 992 l 2,25,26
 919 1055 919 1055 945.5 1113.5 c 128,-1,27
 972 1172 972 1172 1017.5 1216 c 128,-1,28
 1063 1260 1063 1260 1123.5 1283.5 c 128,-1,29
 1184 1307 1184 1307 1247 1307 c 2,30,-1
 1410 1307 l 1,31,-1
 1410 1143 l 1,32,-1
 1247 1143 l 1,33,-1
 1241 1143 l 1,34,-1
 1247 1143 l 1,35,36
 1178 1143 1178 1143 1129 1097 c 0,37,38
 1107 1075 1107 1075 1095 1049 c 128,-1,39
 1083 1023 1083 1023 1083 992 c 2,40,-1
 1083 899 l 1,41,-1
 1165 899 l 2,42,43
 1233 899 1233 899 1291 874 c 128,-1,44
 1349 849 1349 849 1396 804.5 c 128,-1,45
 1443 760 1443 760 1466 705 c 0,46,47
 1476 686 1476 686 1479 676 c 128,-1,48
 1482 666 1482 666 1487 640.5 c 128,-1,49
 1492 615 1492 615 1492 583 c 2,50,-1
 1492 488 l 1,51,-1
 1492 313 l 2,52,53
 1492 248 1492 248 1466 190 c 128,-1,54
 1440 132 1440 132 1394 89.5 c 128,-1,55
 1348 47 1348 47 1288.5 23 c 128,-1,56
 1229 -1 1229 -1 1165 -1 c 2,57,-1
 756 -1 l 1,58,-1
 510 -1 l 2,59,60
 445 -1 445 -1 384 22 c 0,61,62
 322 49 322 49 280 90 c 0,63,64
 232 137 232 137 207.5 193 c 128,-1,65
 183 249 183 249 183 313 c 2,66,-1
 183 992 l 2,67,68
 183 1008 183 1008 185 1023 c 128,-1,69
 187 1038 187 1038 190 1055 c 0,70,71
 197 1086 197 1086 208 1114 c 0,72,73
 234 1171 234 1171 279.5 1215.5 c 128,-1,74
 325 1260 325 1260 386 1283.5 c 128,-1,75
 447 1307 447 1307 510 1307 c 2,76,-1
 674 1307 l 1,77,-1
 674 1143 l 1,0,-1
1247 1307 m 1,78,-1
 1242 1307 l 1,79,-1
 1247 1307 l 1,78,-1
906 -167 m 1,80,-1
 1070 -167 l 1,81,-1
 1070 -331 l 1,82,-1
 906 -331 l 1,83,-1
 906 -167 l 1,80,-1
579 -167 m 1,84,-1
 743 -167 l 1,85,-1
 743 -331 l 1,86,-1
 579 -331 l 1,87,-1
 579 -167 l 1,84,-1
EndSplineSet
Substitution2: "'fina' Terminal Forms in Arabic lookup 5 subtable" yehfinal
Substitution2: "'medi' Medial Forms in Arabic lookup 4 subtable" yehmedial
Substitution2: "'init' Initial Forms in Arabic lookup 3 subtable" yehinitial
Substitution2: "'isol' Isolated Forms in Arabic lookup 2 subtable" yehisolated
AlternateSubs2: "'aalt' Access All Alternates in Latin lookup 1 subtable" yehisolated yehinitial yehmedial yehfinal
EndChar

StartChar: fathatan
Encoding: 1611 1611 41
Width: 0
Flags: W
AnchorPoint: "ArabicAboveLigature" 230 1275 mark 0
AnchorPoint: "ArabicAbove" 230 1275 mark 0
LayerCount: 2
Fore
SplineSet
398 2164 m 1,0,1
 398 2098 398 2098 363 2078 c 2,2,-1
 60 1906 l 1,3,4
 63 1944 63 1944 74 1965 c 0,5,6
 86 1985 86 1985 126 2007 c 2,7,-1
 398 2164 l 1,0,1
398 2018 m 1,8,9
 398 1952 398 1952 363 1932 c 2,10,-1
 60 1760 l 1,11,12
 63 1798 63 1798 74 1819 c 0,13,14
 86 1839 86 1839 126 1861 c 2,15,-1
 398 2018 l 1,8,9
EndSplineSet
AlternateSubs2: "'aalt' Access All Alternates in Latin lookup 1 subtable" fathatanisolated fathatanlow
EndChar

StartChar: dammatan
Encoding: 1612 1612 42
Width: 0
Flags: W
AnchorPoint: "ArabicAboveLigature" 230 1275 mark 0
AnchorPoint: "ArabicAbove" 230 1275 mark 0
LayerCount: 2
Fore
SplineSet
396 1582 m 0,0,1
 396 1565 396 1565 395.5 1550 c 128,-1,2
 395 1535 395 1535 394 1523 c 1,3,4
 374 1534 374 1534 351 1548.5 c 128,-1,5
 328 1563 328 1563 302 1582 c 1,6,7
 176 1453 176 1453 62 1437 c 1,8,9
 105 1526 105 1526 105 1566 c 0,10,11
 105 1621 105 1621 56 1621 c 0,12,13
 14 1621 14 1621 7 1545 c 1,14,15
 -3 1574 -3 1574 -3 1597 c 256,16,17
 -3 1620 -3 1620 3.5 1640 c 128,-1,18
 10 1660 10 1660 21.5 1675 c 128,-1,19
 33 1690 33 1690 48 1698.5 c 128,-1,20
 63 1707 63 1707 81 1707 c 0,21,22
 148 1707 148 1707 148 1607 c 2,23,-1
 142 1515 l 1,24,25
 207 1540 207 1540 266 1605 c 1,26,27
 200 1648 200 1648 200 1699 c 0,28,29
 200 1752 200 1752 240 1798 c 0,30,31
 280 1846 280 1846 322 1846 c 0,32,33
 344 1846 344 1846 367 1819 c 0,34,35
 390 1793 390 1793 390 1766 c 0,36,37
 390 1736 390 1736 379 1708 c 0,38,-1
 357 1652 l 1,39,40
 396 1622 396 1622 396 1582 c 0,0,1
320 1726 m 0,41,42
 320 1779 320 1779 279 1779 c 0,43,44
 253 1779 253 1779 253 1756 c 0,45,46
 253 1730 253 1730 316 1687 c 1,47,48
 320 1696 320 1696 320 1726 c 0,41,42
EndSplineSet
AlternateSubs2: "'aalt' Access All Alternates in Latin lookup 1 subtable" dammatanisolated dammatanlow
EndChar

StartChar: kasratan
Encoding: 1613 1613 43
Width: 0
Flags: W
AnchorPoint: "ArabicBelowLigature" 165 -500 mark 0
AnchorPoint: "ArabicBelow" 165 -500 mark 0
LayerCount: 2
Fore
SplineSet
339 -620 m 1,0,1
 339 -686 339 -686 304 -706 c 2,2,-1
 1 -878 l 1,3,4
 4 -840 4 -840 15 -818 c 1,5,6
 28 -800 28 -800 67 -777 c 2,7,-1
 339 -620 l 1,0,1
339 -767 m 1,8,9
 339 -833 339 -833 304 -853 c 2,10,-1
 1 -1025 l 1,11,12
 4 -987 4 -987 15 -965 c 1,13,14
 28 -947 28 -947 67 -924 c 2,15,-1
 339 -767 l 1,8,9
EndSplineSet
AlternateSubs2: "'aalt' Access All Alternates in Latin lookup 1 subtable" kasratanisolated kasratanlow
EndChar

StartChar: fatha
Encoding: 1614 1614 44
Width: 0
Flags: W
AnchorPoint: "ArabicAboveLigature" 230 1275 mark 0
AnchorPoint: "ArabicAbove" 230 1275 mark 0
LayerCount: 2
Fore
SplineSet
283 1910 m 1,0,1
 283 1856 283 1856 254 1839 c 2,2,-1
 5 1698 l 1,3,4
 7 1732 7 1732 16 1747 c 0,5,6
 26 1762 26 1762 59 1781 c 2,7,-1
 283 1910 l 1,0,1
EndSplineSet
AlternateSubs2: "'aalt' Access All Alternates in Latin lookup 1 subtable" fathaisolated fathalow
EndChar

StartChar: damma
Encoding: 1615 1615 45
Width: 0
Flags: W
AnchorPoint: "ArabicAboveLigature" 230 1275 mark 0
AnchorPoint: "ArabicAbove" 230 1275 mark 0
LayerCount: 2
Fore
SplineSet
280 1883 m 1,0,-1
 273 1802 l 1,1,-1
 208 1845 l 1,2,3
 109 1727 109 1727 46 1727 c 0,4,5
 28 1727 28 1727 -2 1737 c 1,6,7
 40 1760 40 1760 83.5 1791.5 c 128,-1,8
 127 1823 127 1823 173 1865 c 1,9,10
 123 1903 123 1903 123 1938 c 0,11,12
 123 1988 123 1988 159 2041 c 0,13,14
 185 2076 185 2076 218 2076 c 0,15,16
 273 2076 273 2076 273 2004 c 0,17,18
 273 1962 273 1962 248 1908 c 1,19,20
 254 1904 254 1904 262 1897.5 c 128,-1,21
 270 1891 270 1891 280 1883 c 1,0,-1
223 1956 m 0,22,23
 223 1974 223 1974 209.5 1990 c 128,-1,24
 196 2006 196 2006 179 2006 c 0,25,26
 164 2006 164 2006 164 1989 c 0,27,28
 164 1964 164 1964 218 1928 c 1,29,30
 223 1948 223 1948 223 1956 c 0,22,23
EndSplineSet
AlternateSubs2: "'aalt' Access All Alternates in Latin lookup 1 subtable" dammaisolated dammalow
EndChar

StartChar: kasra
Encoding: 1616 1616 46
Width: 0
Flags: W
AnchorPoint: "ArabicBelowLigature" 165 -500 mark 0
AnchorPoint: "ArabicBelow" 165 -500 mark 0
LayerCount: 2
Fore
SplineSet
351 -620 m 1,0,1
 351 -686 351 -686 316 -706 c 2,2,-1
 13 -878 l 1,3,4
 16 -840 16 -840 27 -818 c 1,5,6
 40 -800 40 -800 79 -777 c 2,7,-1
 351 -620 l 1,0,1
EndSplineSet
AlternateSubs2: "'aalt' Access All Alternates in Latin lookup 1 subtable" kasraisolated kasralow
EndChar

StartChar: shadda
Encoding: 1617 1617 47
Width: 0
Flags: W
AnchorPoint: "ArabicAboveLigature" 300 1650 mark 0
AnchorPoint: "ArabicAbove" 300 1650 mark 0
LayerCount: 2
Fore
SplineSet
355 1683 m 0,0,1
 355 1515 355 1515 251 1515 c 0,2,3
 215 1515 215 1515 187 1536 c 1,4,5
 179 1501 179 1501 148 1476 c 0,6,7
 116 1450 116 1450 83 1450 c 0,8,9
 1 1450 1 1450 1 1558 c 0,10,11
 1 1583 1 1583 23 1659 c 1,12,-1
 46 1663 l 1,13,14
 46 1552 46 1552 85 1552 c 0,15,16
 149 1552 149 1552 175 1714 c 1,17,-1
 193 1720 l 1,18,19
 216 1622 216 1622 251 1622 c 0,20,21
 309 1622 309 1622 318 1769 c 1,22,-1
 341 1779 l 1,23,24
 355 1718 355 1718 355 1683 c 0,0,1
EndSplineSet
AlternateSubs2: "'aalt' Access All Alternates in Latin lookup 1 subtable" shaddaisolated shaddalow
EndChar

StartChar: sukun
Encoding: 1618 1618 48
Width: 0
Flags: W
AnchorPoint: "ArabicAboveLigature" 230 1275 mark 0
AnchorPoint: "ArabicAbove" 230 1275 mark 0
LayerCount: 2
Fore
SplineSet
260 1614 m 0,0,1
 260 1549 260 1549 214 1500 c 0,2,3
 167 1450 167 1450 109 1450 c 0,4,5
 2 1450 2 1450 2 1571 c 0,6,7
 2 1655 2 1655 40 1708 c 0,8,9
 77 1762 77 1762 139 1762 c 0,10,11
 186 1762 186 1762 223 1716 c 0,12,13
 260 1673 260 1673 260 1614 c 0,0,1
205 1590 m 0,14,15
 205 1616 205 1616 162 1647 c 0,16,17
 121 1676 121 1676 94 1676 c 0,18,19
 35 1676 35 1676 35 1608 c 0,20,21
 35 1549 35 1549 127 1549 c 0,22,23
 205 1549 205 1549 205 1590 c 0,14,15
EndSplineSet
AlternateSubs2: "'aalt' Access All Alternates in Latin lookup 1 subtable" sukunisolated sukunlow
EndChar

StartChar: arabicindicdigitzero
Encoding: 1632 1632 49
Width: 447
Flags: W
LayerCount: 2
Fore
SplineSet
355 390 m 1,0,-1
 100 390 l 1,1,-1
 100 665 l 1,2,-1
 355 665 l 1,3,-1
 355 390 l 1,0,-1
EndSplineSet
EndChar

StartChar: arabicindicdigitone
Encoding: 1633 1633 50
Width: 369
Flags: W
LayerCount: 2
Fore
SplineSet
104 1324 m 1,0,-1
 267 1324 l 1,1,-1
 267 -1 l 1,2,-1
 104 -1 l 1,3,-1
 104 1324 l 1,0,-1
EndSplineSet
EndChar

StartChar: arabicindicdigittwo
Encoding: 1634 1634 51
Width: 1103
Flags: W
LayerCount: 2
Fore
SplineSet
1000 1304 m 1,0,-1
 1000 1141 l 1,1,-1
 434 1141 l 2,2,3
 366 1141 366 1141 317 1095 c 0,4,5
 295 1073 295 1073 283 1045 c 128,-1,6
 271 1017 271 1017 271 990 c 2,7,-1
 271 2 l 1,8,-1
 107 2 l 1,9,-1
 107 990 l 2,10,11
 107 1021 107 1021 114 1053 c 128,-1,12
 121 1085 121 1085 132 1112 c 0,13,14
 152 1155 152 1155 183.5 1190.5 c 128,-1,15
 215 1226 215 1226 254.5 1251.5 c 128,-1,16
 294 1277 294 1277 339.5 1290.5 c 128,-1,17
 385 1304 385 1304 434 1304 c 2,18,-1
 1000 1304 l 1,0,-1
EndSplineSet
EndChar

StartChar: arabicindicdigitthree
Encoding: 1635 1635 52
Width: 1341
Flags: W
LayerCount: 2
Fore
SplineSet
756 960 m 2,0,1
 756 934 756 934 768 904 c 0,2,3
 782 874 782 874 803 856 c 0,4,5
 852 810 852 810 919 810 c 2,6,-1
 924 810 l 1,7,-1
 919 810 l 1,8,-1
 915 810 l 1,9,-1
 919 810 l 2,10,11
 950 810 950 810 982 822 c 128,-1,12
 1014 834 1014 834 1037 856 c 0,13,14
 1083 899 1083 899 1083 960 c 2,15,-1
 1083 1304 l 1,16,-1
 1246 1304 l 1,17,-1
 1246 960 l 2,18,19
 1246 928 1246 928 1241 902.5 c 128,-1,20
 1236 877 1236 877 1233 867 c 0,21,22
 1231 862 1231 862 1228 855 c 128,-1,23
 1225 848 1225 848 1220 838 c 0,24,25
 1196 781 1196 781 1151 740 c 128,-1,26
 1106 699 1106 699 1045 671 c 0,27,28
 988 646 988 646 919 646 c 1,29,-1
 923 646 l 1,30,-1
 919 646 l 2,31,32
 850 646 850 646 796.5 668 c 128,-1,33
 743 690 743 690 691 738 c 2,34,35
 685 741 685 741 675 754 c 1,36,37
 666 742 666 742 659 738 c 2,38,39
 620 699 620 699 556 671 c 0,40,41
 528 660 528 660 494.5 653 c 128,-1,42
 461 646 461 646 430 646 c 1,43,-1
 434 646 l 1,44,-1
 430 646 l 2,45,46
 363 646 363 646 257 719 c 1,47,-1
 256 580 l 1,48,-1
 256 -1 l 1,49,-1
 103 -1 l 1,50,-1
 103 1304 l 1,51,-1
 267 1304 l 1,52,-1
 267 960 l 2,53,54
 267 931 267 931 279.5 904.5 c 128,-1,55
 292 878 292 878 314 856 c 0,56,57
 360 810 360 810 430 810 c 2,58,-1
 435 810 l 1,59,-1
 430 810 l 1,60,-1
 425 810 l 1,61,-1
 430 810 l 2,62,63
 460 810 460 810 491 822 c 128,-1,64
 522 834 522 834 547 856 c 0,65,66
 593 899 593 899 593 960 c 2,67,-1
 593 1304 l 1,68,-1
 756 1304 l 1,69,-1
 756 960 l 2,0,1
EndSplineSet
EndChar

StartChar: arabicindicdigitfour
Encoding: 1636 1636 53
Width: 1100
Flags: W
LayerCount: 2
Fore
SplineSet
369 1266 m 2,0,-1
 971 1266 l 1,1,-1
 971 1102 l 1,2,-1
 367 1102 l 2,3,4
 307 1102 307 1102 263 1055 c 0,5,6
 241 1031 241 1031 229 1000.5 c 128,-1,7
 217 970 217 970 217 939 c 2,8,-1
 217 934 l 1,9,-1
 217 939 l 1,10,-1
 217 944 l 1,11,-1
 217 939 l 2,12,13
 217 922 217 922 220 897 c 128,-1,14
 223 872 223 872 228.5 845.5 c 128,-1,15
 234 819 234 819 242.5 796.5 c 128,-1,16
 251 774 251 774 263 762 c 0,17,18
 285 740 285 740 311.5 728 c 128,-1,19
 338 716 338 716 367 716 c 2,20,-1
 971 716 l 1,21,-1
 971 553 l 1,22,-1
 367 553 l 2,23,24
 307 553 307 553 263 506 c 0,25,26
 251 494 251 494 242.5 472 c 128,-1,27
 234 450 234 450 228.5 424.5 c 128,-1,28
 223 399 223 399 220 373.5 c 128,-1,29
 217 348 217 348 217 330 c 2,30,-1
 217 325 l 1,31,-1
 217 330 l 1,32,-1
 217 334 l 1,33,-1
 217 330 l 2,34,35
 217 259 217 259 263 213 c 0,36,37
 285 191 285 191 311.5 178.5 c 128,-1,38
 338 166 338 166 367 166 c 2,39,-1
 971 166 l 1,40,-1
 971 3 l 1,41,-1
 367 3 l 2,42,43
 319 3 319 3 274.5 18 c 128,-1,44
 230 33 230 33 191.5 60 c 128,-1,45
 153 87 153 87 123.5 124 c 128,-1,46
 94 161 94 161 76 205 c 0,47,48
 62 238 62 238 58 266 c 0,49,50
 56 278 56 278 54.5 294 c 128,-1,51
 53 310 53 310 53 330 c 1,52,-1
 53 326 l 1,53,-1
 53 330 l 2,54,55
 53 345 53 345 54.5 371 c 128,-1,56
 56 397 56 397 59.5 424.5 c 128,-1,57
 63 452 63 452 67.5 477 c 128,-1,58
 72 502 72 502 78 516 c 0,59,60
 105 578 105 578 145 618 c 2,61,62
 149 625 149 625 161 634 c 1,63,64
 148 644 148 644 145 650 c 2,65,66
 122 674 122 674 105 709 c 128,-1,67
 88 744 88 744 76.5 784 c 128,-1,68
 65 824 65 824 59 864.5 c 128,-1,69
 53 905 53 905 53 939 c 1,70,-1
 53 935 l 1,71,-1
 53 939 l 2,72,73
 53 1007 53 1007 78 1066 c 0,74,75
 92 1097 92 1097 108 1122.5 c 128,-1,76
 124 1148 124 1148 145 1168 c 0,77,78
 187 1210 187 1210 240.5 1235 c 128,-1,79
 294 1260 294 1260 369 1266 c 2,0,-1
EndSplineSet
EndChar

StartChar: arabicindicdigitfive
Encoding: 1637 1637 54
Width: 1251
Flags: W
LayerCount: 2
Fore
SplineSet
269 1072 m 0,0,1
 232 1029 232 1029 232 968 c 2,2,-1
 232 306 l 2,3,4
 232 246 232 246 269 203 c 0,5,6
 306 158 306 158 362 158 c 2,7,-1
 885 158 l 2,8,9
 913 158 913 158 935.5 169 c 128,-1,10
 958 180 958 180 978 201 c 0,11,12
 988 213 988 213 992 223 c 1,13,14
 993 229 993 229 1004 249 c 1,15,16
 1015 282 1015 282 1015 306 c 2,17,-1
 1015 968 l 2,18,19
 1015 1029 1015 1029 978 1072 c 0,20,21
 940 1116 940 1116 885 1116 c 2,22,-1
 362 1116 l 2,23,24
 335 1116 335 1116 312 1105.5 c 128,-1,25
 289 1095 289 1095 269 1072 c 0,0,1
179 120 m 0,26,27
 161 141 161 141 146.5 165.5 c 128,-1,28
 132 190 132 190 122 218 c 0,29,30
 101 273 101 273 101 333 c 2,31,-1
 101 977 l 2,32,33
 101 1012 101 1012 105 1037 c 128,-1,34
 109 1062 109 1062 121 1093 c 0,35,36
 134 1133 134 1133 159 1166 c 128,-1,37
 184 1199 184 1199 216.5 1223 c 128,-1,38
 249 1247 249 1247 286.5 1261 c 128,-1,39
 324 1275 324 1275 362 1276 c 2,40,-1
 885 1276 l 2,41,42
 932 1276 932 1276 983 1253 c 0,43,44
 1017 1238 1017 1238 1047 1210.5 c 128,-1,45
 1077 1183 1077 1183 1099 1147 c 128,-1,46
 1121 1111 1121 1111 1133.5 1067.5 c 128,-1,47
 1146 1024 1146 1024 1146 977 c 2,48,-1
 1146 333 l 2,49,50
 1146 304 1146 304 1142 276.5 c 128,-1,51
 1138 249 1138 249 1125 217 c 0,52,53
 1109 168 1109 168 1069 122 c 0,54,55
 1035 83 1035 83 985.5 58.5 c 128,-1,56
 936 34 936 34 885 34 c 2,57,-1
 362 34 l 2,58,59
 306 34 306 34 263 56 c 0,60,61
 239 68 239 68 218 83 c 0,62,63
 211 89 211 89 200.5 98.5 c 128,-1,64
 190 108 190 108 179 120 c 0,26,27
EndSplineSet
EndChar

StartChar: arabicindicdigitsix
Encoding: 1638 1638 55
Width: 1088
Flags: W
LayerCount: 2
Fore
SplineSet
666 1304 m 2,0,1
 731 1305 731 1305 790.5 1280 c 128,-1,2
 850 1255 850 1255 895.5 1212 c 128,-1,3
 941 1169 941 1169 967.5 1111.5 c 128,-1,4
 994 1054 994 1054 993 990 c 2,5,-1
 993 2 l 1,6,-1
 829 2 l 1,7,-1
 829 990 l 2,8,9
 829 1017 829 1017 817 1045 c 128,-1,10
 805 1073 805 1073 783 1095 c 0,11,12
 734 1141 734 1141 666 1141 c 2,13,-1
 100 1141 l 1,14,-1
 100 1304 l 1,15,-1
 666 1304 l 2,0,1
EndSplineSet
EndChar

StartChar: arabicindicdigitseven
Encoding: 1639 1639 56
Width: 1099
Flags: W
LayerCount: 2
Fore
SplineSet
102 1301 m 1,0,-1
 265 1301 l 1,1,-1
 265 325 l 2,2,3
 265 257 265 257 311 208 c 0,4,5
 331 186 331 186 359.5 174 c 128,-1,6
 388 162 388 162 416 162 c 2,7,-1
 694 162 l 2,8,9
 756 162 756 162 799 208 c 0,10,11
 823 232 823 232 834 262 c 128,-1,12
 845 292 845 292 845 325 c 2,13,-1
 845 1304 l 1,14,-1
 1008 1304 l 1,15,-1
 1008 325 l 2,16,17
 1008 262 1008 262 982.5 200 c 128,-1,18
 957 138 957 138 915 93 c 256,19,20
 873 48 873 48 816.5 23 c 128,-1,21
 760 -2 760 -2 694 -2 c 2,22,-1
 416 -2 l 2,23,24
 385 -2 385 -2 353 5 c 128,-1,25
 321 12 321 12 294 23 c 0,26,27
 237 49 237 49 193.5 94.5 c 128,-1,28
 150 140 150 140 125 200 c 0,29,30
 112 232 112 232 107 260.5 c 128,-1,31
 102 289 102 289 102 325 c 2,32,-1
 102 1301 l 1,0,-1
EndSplineSet
EndChar

StartChar: arabicindicdigiteight
Encoding: 1640 1640 57
Width: 1108
Flags: W
LayerCount: 2
Fore
SplineSet
105 977 m 2,0,1
 105 1041 105 1041 128 1101 c 0,2,3
 141 1132 141 1132 156.5 1156.5 c 128,-1,4
 172 1181 172 1181 196 1206 c 0,5,6
 241 1254 241 1254 298 1279 c 128,-1,7
 355 1304 355 1304 419 1304 c 2,8,-1
 697 1304 l 2,9,10
 758 1304 758 1304 818 1278 c 0,11,12
 846 1267 846 1267 871 1249.5 c 128,-1,13
 896 1232 896 1232 918 1207 c 0,14,15
 960 1164 960 1164 985.5 1102 c 128,-1,16
 1011 1040 1011 1040 1011 977 c 2,17,-1
 1011 -2 l 1,18,-1
 848 -2 l 1,19,-1
 848 977 l 2,20,21
 848 1011 848 1011 836 1041 c 0,22,23
 825 1071 825 1071 802 1094 c 0,24,25
 759 1140 759 1140 697 1140 c 2,26,-1
 419 1140 l 2,27,28
 391 1140 391 1140 362.5 1128 c 128,-1,29
 334 1116 334 1116 314 1094 c 0,30,31
 268 1045 268 1045 268 977 c 2,32,-1
 268 1 l 1,33,-1
 105 1 l 1,34,-1
 105 977 l 2,0,1
EndSplineSet
EndChar

StartChar: arabicindicdigitnine
Encoding: 1641 1641 58
Width: 1168
Flags: W
LayerCount: 2
Fore
SplineSet
311.143 1098 m 0,0,1
 265.143 1055 265.143 1055 265.143 992 c 2,2,-1
 265.143 980 l 1,3,-1
 265.143 747 l 1,4,-1
 265.143 735 l 2,5,6
 265.143 705 265.143 705 277.143 677.5 c 128,-1,7
 289.143 650 289.143 650 311.143 629 c 0,8,9
 360.143 584 360.143 584 429.143 584 c 2,10,-1
 743.143 584 l 2,11,12
 812.143 584 812.143 584 860.143 629 c 0,13,14
 907.143 673 907.143 673 907.143 735 c 2,15,-1
 907.143 747 l 1,16,-1
 907.143 980 l 1,17,-1
 907.143 992 l 2,18,19
 907.143 1053 907.143 1053 859.143 1098 c 0,20,21
 812.143 1143 812.143 1143 743.143 1143 c 2,22,-1
 429.143 1143 l 2,23,24
 360.143 1143 360.143 1143 311.143 1098 c 0,0,1
429.143 420 m 2,25,26
 364.143 419 364.143 419 304.643 443.5 c 128,-1,27
 245.143 468 245.143 468 199.643 511 c 128,-1,28
 154.143 554 154.143 554 127.643 612 c 128,-1,29
 101.143 670 101.143 670 102.143 735 c 2,30,-1
 102.143 747 l 1,31,-1
 102.143 980 l 1,32,-1
 102.143 992 l 2,33,34
 100.143 1057 100.143 1057 126.143 1114.5 c 128,-1,35
 152.143 1172 152.143 1172 197.143 1214.5 c 128,-1,36
 242.143 1257 242.143 1257 302.643 1282 c 128,-1,37
 363.143 1307 363.143 1307 429.143 1307 c 2,38,-1
 743.143 1307 l 2,39,40
 809.143 1307 809.143 1307 868.643 1282.5 c 128,-1,41
 928.143 1258 928.143 1258 972.643 1215.5 c 128,-1,42
 1017.14 1173 1017.14 1173 1043.64 1115.5 c 128,-1,43
 1070.14 1058 1070.14 1058 1070.14 992 c 2,44,-1
 1070.14 980 l 1,45,-1
 1070.14 897 l 1,46,-1
 1070.14 885 l 1,47,-1
 1070.14 -3 l 1,48,-1
 907.143 -3 l 1,49,-1
 907.143 462 l 1,50,51
 868.143 441 868.143 441 828.143 430.5 c 128,-1,52
 788.143 420 788.143 420 743.143 420 c 2,53,-1
 429.143 420 l 2,25,26
EndSplineSet
EndChar

StartChar: arabicpercentsign
Encoding: 1642 1642 59
Width: 567
Flags: W
LayerCount: 2
Fore
SplineSet
197 869 m 1,0,-1
 31 869 l 1,1,-1
 31 1049 l 1,2,-1
 197 1049 l 1,3,-1
 197 869 l 1,0,-1
520 1049 m 1,4,-1
 109 8 l 1,5,-1
 16 8 l 1,6,-1
 427 1049 l 1,7,-1
 520 1049 l 1,4,-1
508 -7 m 1,8,-1
 341 -7 l 1,9,-1
 341 172 l 1,10,-1
 508 172 l 1,11,-1
 508 -7 l 1,8,-1
EndSplineSet
EndChar

StartChar: arabicfivepointedstar
Encoding: 1645 1645 60
Width: 815
Flags: W
LayerCount: 2
Fore
SplineSet
765 1190 m 1,0,-1
 547 1029 l 1,1,-1
 629 770 l 1,2,-1
 408 928 l 1,3,-1
 187 770 l 1,4,-1
 269 1029 l 1,5,-1
 51 1190 l 1,6,-1
 322 1190 l 1,7,-1
 408 1450 l 1,8,-1
 494 1190 l 1,9,-1
 765 1190 l 1,0,-1
EndSplineSet
EndChar

StartChar: shaddawithdammatanisolated
Encoding: 64606 64606 62
Width: 482
Flags: W
LayerCount: 2
Fore
SplineSet
482 1788 m 0,0,1
 482 1779 482 1779 475 1769 c 1,2,3
 451 1775 451 1775 381 1800 c 1,4,5
 248 1730 248 1730 174 1730 c 0,6,7
 132 1730 132 1730 92 1743 c 1,8,9
 156 1777 156 1777 156 1818 c 0,10,11
 156 1872 156 1872 106 1872 c 1,12,13
 113 1872 113 1872 104 1870.5 c 128,-1,14
 95 1869 95 1869 70 1865 c 1,15,16
 94 1941 94 1941 141 1941 c 0,17,18
 166 1941 166 1941 184.5 1919 c 128,-1,19
 203 1897 203 1897 203 1865 c 0,20,21
 203 1841 203 1841 186 1792 c 1,22,23
 258 1800 258 1800 319 1837 c 1,24,25
 266 1873 266 1873 266 1915 c 0,26,27
 266 1951 266 1951 309 1988 c 0,28,29
 352 2027 352 2027 393 2027 c 0,30,31
 415 2027 415 2027 438 2003 c 0,32,33
 461 1977 461 1977 461 1953 c 0,34,35
 461 1925 461 1925 436 1874 c 1,36,37
 482 1846 482 1846 482 1788 c 0,0,1
455 1677 m 0,38,39
 455 1640 455 1640 447 1609 c 128,-1,40
 439 1578 439 1578 425 1556 c 128,-1,41
 411 1534 411 1534 391.5 1521.5 c 128,-1,42
 372 1509 372 1509 350 1509 c 0,43,44
 330 1509 330 1509 282 1532 c 2,45,-1
 278 1534 l 1,46,47
 233 1450 233 1450 174 1450 c 0,48,49
 94 1450 94 1450 94 1554 c 0,50,51
 94 1583 94 1583 117 1650 c 1,52,-1
 137 1652 l 1,53,54
 141 1552 141 1552 186 1552 c 0,55,56
 233 1552 233 1552 272 1687 c 1,57,-1
 291 1689 l 1,58,59
 307 1616 307 1616 356 1616 c 0,60,61
 407 1616 407 1616 430 1726 c 1,62,-1
 450 1726 l 1,63,64
 452 1715 452 1715 453.5 1703 c 128,-1,65
 455 1691 455 1691 455 1677 c 0,38,39
395 1941 m 0,66,67
 395 1982 395 1982 364 1982 c 0,68,69
 334 1982 334 1982 334 1958 c 256,70,71
 334 1934 334 1934 381 1902 c 1,72,73
 395 1928 395 1928 395 1941 c 0,66,67
EndSplineSet
Ligature2: "'liga' Standard Ligatures in Arabic lookup 7 subtable" shadda dammatan
AlternateSubs2: "'aalt' Access All Alternates in Latin lookup 1 subtable" shaddawithdammatanisolated shaddawithdammatanisolatedlow
EndChar

StartChar: shaddawithkasratanisolated
Encoding: 64607 64607 63
Width: 420
Flags: W
LayerCount: 2
Fore
SplineSet
420 1940 m 0,0,1
 420 1772 420 1772 316 1772 c 0,2,3
 280 1772 280 1772 252 1793 c 1,4,5
 244 1758 244 1758 213 1733 c 0,6,7
 181 1707 181 1707 148 1707 c 0,8,9
 66 1707 66 1707 66 1815 c 0,10,11
 66 1840 66 1840 88 1916 c 1,12,-1
 111 1920 l 1,13,14
 111 1809 111 1809 150 1809 c 0,15,16
 214 1809 214 1809 240 1971 c 1,17,-1
 258 1977 l 1,18,19
 281 1879 281 1879 316 1879 c 0,20,21
 374 1879 374 1879 383 2026 c 1,22,-1
 406 2036 l 1,23,24
 420 1975 420 1975 420 1940 c 0,0,1
412 1773 m 1,25,26
 397 1707 397 1707 353 1687 c 2,27,-1
 70 1560 l 1,28,29
 98 1633 98 1633 156 1659 c 2,30,-1
 412 1773 l 1,25,26
412 1656 m 1,31,32
 397 1594 397 1594 346 1572 c 2,33,-1
 70 1450 l 1,34,35
 90 1520 90 1520 142 1542 c 2,36,-1
 412 1656 l 1,31,32
EndSplineSet
Ligature2: "'liga' Standard Ligatures in Arabic lookup 7 subtable" shadda kasratan
AlternateSubs2: "'aalt' Access All Alternates in Latin lookup 1 subtable" shaddawithkasratanisolated shaddawithkasratanisolatedlow
EndChar

StartChar: shaddawithfathaisolated
Encoding: 64608 64608 64
Width: 414
Flags: W
LayerCount: 2
Fore
SplineSet
408 1845 m 1,0,1
 398 1784 398 1784 359 1769 c 2,2,-1
 64 1653 l 1,3,4
 91 1722 91 1722 150 1745 c 2,5,-1
 408 1845 l 1,0,1
414 1673 m 0,6,7
 414 1638 414 1638 406 1608.5 c 128,-1,8
 398 1579 398 1579 384 1557 c 128,-1,9
 370 1535 370 1535 350.5 1523 c 128,-1,10
 331 1511 331 1511 308 1511 c 0,11,12
 290 1511 290 1511 246 1534 c 2,13,-1
 242 1536 l 1,14,15
 204 1450 204 1450 138 1450 c 0,16,17
 60 1450 60 1450 60 1548 c 1,18,19
 60 1543 60 1543 66 1609 c 1,20,-1
 95 1628 l 1,21,22
 105 1550 105 1550 148 1550 c 0,23,24
 203 1550 203 1550 236 1683 c 1,25,-1
 258 1689 l 1,26,27
 283 1616 283 1616 316 1616 c 0,28,29
 373 1616 373 1616 381 1738 c 1,30,-1
 408 1747 l 1,31,32
 414 1714 414 1714 414 1673 c 0,6,7
EndSplineSet
Ligature2: "'liga' Standard Ligatures in Arabic lookup 7 subtable" shadda fatha
AlternateSubs2: "'aalt' Access All Alternates in Latin lookup 1 subtable" shaddawithfathaisolated shaddawithfathaisolatedlow
EndChar

StartChar: shaddawithdammaisolated
Encoding: 64609 64609 65
Width: 424
Flags: W
LayerCount: 2
Fore
SplineSet
424 1763 m 1,0,1
 381 1769 381 1769 314 1792 c 1,2,3
 192 1694 192 1694 129 1694 c 0,4,5
 107 1694 107 1694 64 1714 c 1,6,7
 130 1736 130 1736 182.5 1760 c 128,-1,8
 235 1784 235 1784 273 1812 c 1,9,10
 224 1849 224 1849 224 1896 c 0,11,12
 224 1938 224 1938 262 1979 c 0,13,14
 301 2019 301 2019 344 2019 c 0,15,16
 366 2019 366 2019 392 1995 c 0,17,18
 418 1972 418 1972 418 1952 c 0,19,20
 418 1907 418 1907 382 1864 c 1,21,22
 390 1860 390 1860 399 1854.5 c 128,-1,23
 408 1849 408 1849 417 1842 c 0,24,25
 424 1835 424 1835 424 1800 c 2,26,-1
 424 1763 l 1,0,1
418 1720 m 1,27,28
 418 1505 418 1505 310 1505 c 0,29,30
 268 1505 268 1505 240 1530 c 1,31,32
 208 1450 208 1450 136 1450 c 0,33,34
 58 1450 58 1450 58 1548 c 0,35,36
 58 1592 58 1592 80 1632 c 1,37,-1
 101 1634 l 1,38,39
 107 1552 107 1552 148 1552 c 0,40,41
 194 1552 194 1552 236 1671 c 1,42,-1
 260 1677 l 1,43,44
 272 1610 272 1610 314 1610 c 0,45,46
 370 1610 370 1610 394 1714 c 1,47,-1
 418 1720 l 1,27,28
353 1927 m 0,48,49
 353 1976 353 1976 310 1976 c 0,50,51
 285 1976 285 1976 285 1946 c 0,52,53
 285 1922 285 1922 344 1884 c 1,54,55
 353 1908 353 1908 353 1927 c 0,48,49
EndSplineSet
Ligature2: "'liga' Standard Ligatures in Arabic lookup 7 subtable" shadda damma
AlternateSubs2: "'aalt' Access All Alternates in Latin lookup 1 subtable" shaddawithdammaisolated shaddawithdammaisolatedlow
EndChar

StartChar: shaddawithkasraisolated
Encoding: 64610 64610 66
Width: 420
Flags: W
LayerCount: 2
Fore
SplineSet
420 1830 m 0,0,1
 420 1662 420 1662 316 1662 c 0,2,3
 280 1662 280 1662 252 1683 c 1,4,5
 244 1648 244 1648 213 1623 c 0,6,7
 181 1597 181 1597 148 1597 c 0,8,9
 66 1597 66 1597 66 1705 c 0,10,11
 66 1730 66 1730 88 1806 c 1,12,-1
 111 1810 l 1,13,14
 111 1699 111 1699 150 1699 c 0,15,16
 214 1699 214 1699 240 1861 c 1,17,-1
 258 1867 l 1,18,19
 281 1769 281 1769 316 1769 c 0,20,21
 374 1769 374 1769 383 1916 c 1,22,-1
 406 1926 l 1,23,24
 420 1865 420 1865 420 1830 c 0,0,1
412 1663 m 1,25,26
 397 1597 397 1597 353 1577 c 2,27,-1
 70 1450 l 1,28,29
 98 1523 98 1523 156 1549 c 2,30,-1
 412 1663 l 1,25,26
EndSplineSet
Ligature2: "'liga' Standard Ligatures in Arabic lookup 7 subtable" shadda kasra
AlternateSubs2: "'aalt' Access All Alternates in Latin lookup 1 subtable" shaddawithkasraisolated shaddawithkasraisolatedlow
EndChar

StartChar: shaddawithfathamedial
Encoding: 64754 64754 67
Width: 1284
Flags: W
LayerCount: 2
Fore
SplineSet
807 1552 m 1,0,1
 807 1486 807 1486 772 1466 c 2,2,-1
 469 1294 l 1,3,4
 472 1332 472 1332 483 1353 c 0,5,6
 495 1373 495 1373 535 1395 c 2,7,-1
 807 1552 l 1,0,1
819 1263 m 0,8,9
 819 1095 819 1095 715 1095 c 0,10,11
 679 1095 679 1095 651 1116 c 1,12,13
 643 1081 643 1081 612 1056 c 0,14,15
 580 1030 580 1030 547 1030 c 0,16,17
 465 1030 465 1030 465 1138 c 0,18,19
 465 1163 465 1163 487 1239 c 1,20,-1
 510 1243 l 1,21,22
 510 1132 510 1132 549 1132 c 0,23,24
 613 1132 613 1132 639 1294 c 1,25,-1
 657 1300 l 1,26,27
 680 1202 680 1202 715 1202 c 0,28,29
 773 1202 773 1202 782 1349 c 1,30,-1
 805 1359 l 1,31,32
 819 1298 819 1298 819 1263 c 0,8,9
1354 129 m 1,33,-1
 0 129 l 1,34,-1
 0 250 l 1,35,-1
 1354 250 l 1,36,-1
 1354 129 l 1,33,-1
EndSplineSet
Ligature2: "'liga' Standard Ligatures in Arabic lookup 6 subtable" tatweel shadda fatha
EndChar

StartChar: shaddawithdammamedial
Encoding: 64755 64755 68
Width: 1284
Flags: W
LayerCount: 2
Fore
SplineSet
813 1503 m 1,0,-1
 805 1404 l 1,1,-1
 725 1456 l 1,2,3
 605 1312 605 1312 528 1312 c 0,4,5
 509 1312 509 1312 469 1324 c 1,6,7
 571 1381 571 1381 682 1480 c 1,8,9
 621 1525 621 1525 621 1570 c 0,10,11
 621 1630 621 1630 666 1695 c 0,12,13
 696 1738 696 1738 737 1738 c 0,14,15
 805 1738 805 1738 805 1650 c 0,16,17
 805 1599 805 1599 774 1533 c 1,18,19
 787 1522 787 1522 813 1503 c 1,0,-1
819 1263 m 0,20,21
 819 1095 819 1095 715 1095 c 0,22,23
 679 1095 679 1095 651 1116 c 1,24,25
 643 1081 643 1081 612 1056 c 0,26,27
 580 1030 580 1030 547 1030 c 0,28,29
 465 1030 465 1030 465 1138 c 0,30,31
 465 1163 465 1163 487 1239 c 1,32,-1
 510 1243 l 1,33,34
 510 1132 510 1132 549 1132 c 0,35,36
 613 1132 613 1132 639 1294 c 1,37,-1
 657 1300 l 1,38,39
 680 1202 680 1202 715 1202 c 0,40,41
 773 1202 773 1202 782 1349 c 1,42,-1
 805 1359 l 1,43,44
 819 1298 819 1298 819 1263 c 0,20,21
743 1591 m 0,45,46
 743 1614 743 1614 727 1633 c 128,-1,47
 711 1652 711 1652 690 1652 c 0,48,49
 672 1652 672 1652 672 1632 c 0,50,51
 672 1601 672 1601 737 1557 c 1,52,53
 743 1576 743 1576 743 1591 c 0,45,46
1354 129 m 1,54,-1
 0 129 l 1,55,-1
 0 250 l 1,56,-1
 1354 250 l 1,57,-1
 1354 129 l 1,54,-1
EndSplineSet
Ligature2: "'liga' Standard Ligatures in Arabic lookup 6 subtable" tatweel shadda damma
EndChar

StartChar: shaddawithkasramedial
Encoding: 64756 64756 69
Width: 1284
Flags: W
LayerCount: 2
Fore
SplineSet
819 1491 m 0,0,1
 819 1323 819 1323 715 1323 c 0,2,3
 679 1323 679 1323 651 1344 c 1,4,5
 643 1309 643 1309 612 1284 c 0,6,7
 580 1258 580 1258 547 1258 c 0,8,9
 465 1258 465 1258 465 1366 c 0,10,11
 465 1391 465 1391 487 1467 c 1,12,-1
 510 1471 l 1,13,14
 510 1360 510 1360 549 1360 c 0,15,16
 613 1360 613 1360 639 1522 c 1,17,-1
 657 1528 l 1,18,19
 680 1430 680 1430 715 1430 c 0,20,21
 773 1430 773 1430 782 1577 c 1,22,-1
 805 1587 l 1,23,24
 819 1526 819 1526 819 1491 c 0,0,1
807 1288 m 1,25,26
 807 1222 807 1222 772 1202 c 2,27,-1
 469 1030 l 1,28,29
 472 1068 472 1068 483 1089 c 0,30,31
 495 1109 495 1109 535 1131 c 2,32,-1
 807 1288 l 1,25,26
1354 129 m 1,33,-1
 0 129 l 1,34,-1
 0 250 l 1,35,-1
 1354 250 l 1,36,-1
 1354 129 l 1,33,-1
EndSplineSet
Ligature2: "'liga' Standard Ligatures in Arabic lookup 6 subtable" tatweel shadda kasra
EndChar

StartChar: ornateleftparenthesis
Encoding: 64830 64830 70
Width: 750
Flags: W
LayerCount: 2
Fore
SplineSet
550 -200 m 1,0,-1
 200 -200 l 1,1,-1
 200 1750 l 1,2,-1
 550 1750 l 1,3,-1
 550 1600 l 1,4,-1
 350 1600 l 1,5,-1
 350 -50 l 1,6,-1
 550 -50 l 1,7,-1
 550 -200 l 1,0,-1
EndSplineSet
EndChar

StartChar: ornaterightparenthesis
Encoding: 64831 64831 71
Width: 750
Flags: W
LayerCount: 2
Fore
SplineSet
544 -200 m 1,0,-1
 194 -200 l 1,1,-1
 194 -50 l 1,2,-1
 394 -50 l 1,3,-1
 394 1600 l 1,4,-1
 194 1600 l 1,5,-1
 194 1750 l 1,6,-1
 544 1750 l 1,7,-1
 544 -200 l 1,0,-1
EndSplineSet
EndChar

StartChar: allahisolated
Encoding: 65010 65010 72
Width: 2566
Flags: W
LayerCount: 2
Fore
SplineSet
2279 313 m 2,0,1
 2279 248 2279 248 2252.5 189.5 c 128,-1,2
 2226 131 2226 131 2181 88 c 128,-1,3
 2136 45 2136 45 2075.5 20.5 c 128,-1,4
 2015 -4 2015 -4 1949 -4 c 0,5,6
 1917 -2 1917 -2 1888 3 c 128,-1,7
 1859 8 1859 8 1831 18 c 0,8,9
 1763 47 1763 47 1724 86 c 2,10,-1
 1710 102 l 1,11,-1
 1693 86 l 2,12,13
 1667 59 1667 59 1642 47 c 2,14,15
 1620 31 1620 31 1589 18 c 0,16,17
 1558 8 1558 8 1530.5 3 c 128,-1,18
 1503 -2 1503 -2 1474 -4 c 0,19,20
 1409 -4 1409 -4 1350.5 19.5 c 128,-1,21
 1292 43 1292 43 1245 86 c 2,22,-1
 1229 104 l 1,23,-1
 1212 88 l 2,24,25
 1171 47 1171 47 1109.5 22.5 c 128,-1,26
 1048 -2 1048 -2 985 -2 c 2,27,-1
 327 -2 l 2,28,29
 262 -2 262 -2 205 20 c 0,30,31
 176 33 176 33 150.5 48 c 128,-1,32
 125 63 125 63 98 88 c 0,33,34
 55 133 55 133 28.5 192.5 c 128,-1,35
 2 252 2 252 2 313 c 2,36,-1
 2 991 l 2,37,38
 2 1057 2 1057 26.5 1114 c 128,-1,39
 51 1171 51 1171 96 1212 c 128,-1,40
 141 1253 141 1253 204.5 1280 c 128,-1,41
 268 1307 268 1307 327 1307 c 2,42,-1
 985 1307 l 2,43,44
 1048 1307 1048 1307 1107.5 1283.5 c 128,-1,45
 1167 1260 1167 1260 1212 1218 c 128,-1,46
 1257 1176 1257 1176 1283.5 1117.5 c 128,-1,47
 1310 1059 1310 1059 1310 991 c 2,48,-1
 1310 313 l 2,49,50
 1310 285 1310 285 1322.5 256 c 128,-1,51
 1335 227 1335 227 1358 207 c 0,52,53
 1405 162 1405 162 1464 160 c 1,54,-1
 1464 162 l 1,55,56
 1536 162 1536 162 1581 207 c 0,57,58
 1603 227 1603 227 1615.5 256 c 128,-1,59
 1628 285 1628 285 1628 313 c 2,60,-1
 1628 1636 l 1,61,-1
 1792 1636 l 1,62,-1
 1792 313 l 2,63,64
 1792 250 1792 250 1841 207 c 0,65,66
 1884 164 1884 164 1949 162 c 2,67,-1
 1956 162 l 2,68,69
 1986 164 1986 164 2017 176 c 128,-1,70
 2048 188 2048 188 2066 207 c 0,71,72
 2113 250 2113 250 2113 313 c 2,73,-1
 2113 1636 l 1,74,-1
 2279 1636 l 1,75,-1
 2279 313 l 2,0,1
203 1098 m 0,76,77
 156 1055 156 1055 156 991 c 2,78,-1
 156 313 l 2,79,80
 156 254 156 254 203 208 c 128,-1,81
 250 162 250 162 317 162 c 2,82,-1
 975 162 l 2,83,84
 1012 162 1012 162 1037.5 172 c 128,-1,85
 1063 182 1063 182 1090 207 c 0,86,87
 1112 227 1112 227 1124.5 257 c 128,-1,88
 1137 287 1137 287 1137 313 c 2,89,-1
 1137 991 l 2,90,91
 1137 1055 1137 1055 1089.5 1099 c 128,-1,92
 1042 1143 1042 1143 975 1143 c 2,93,-1
 317 1143 l 2,94,95
 285 1143 285 1143 255 1132.5 c 128,-1,96
 225 1122 225 1122 203 1098 c 0,76,77
EndSplineSet
Ligature2: "'liga' Standard Ligatures in Arabic lookup 6 subtable" laminitial lammedial hehfinal
EndChar

StartChar: fathatanisolated
Encoding: 65136 65136 73
Width: 408
Flags: W
LayerCount: 2
Fore
SplineSet
408 2054 m 1,0,1
 408 1988 408 1988 373 1968 c 2,2,-1
 70 1796 l 1,3,4
 73 1834 73 1834 84 1855 c 0,5,6
 96 1875 96 1875 136 1897 c 2,7,-1
 408 2054 l 1,0,1
408 1908 m 1,8,9
 408 1842 408 1842 373 1822 c 2,10,-1
 70 1650 l 1,11,12
 73 1688 73 1688 84 1709 c 0,13,14
 96 1729 96 1729 136 1751 c 2,15,-1
 408 1908 l 1,8,9
EndSplineSet
EndChar

StartChar: tatweelwithfathatanabove
Encoding: 65137 65137 74
Width: 1284
Flags: W
LayerCount: 2
Fore
SplineSet
811 1434 m 1,0,1
 811 1368 811 1368 776 1348 c 2,2,-1
 473 1176 l 1,3,4
 476 1214 476 1214 487 1235 c 0,5,6
 499 1255 499 1255 539 1277 c 2,7,-1
 811 1434 l 1,0,1
811 1288 m 1,8,9
 811 1222 811 1222 776 1202 c 2,10,-1
 473 1030 l 1,11,12
 476 1068 476 1068 487 1089 c 0,13,14
 499 1109 499 1109 539 1131 c 2,15,-1
 811 1288 l 1,8,9
1354 129 m 1,16,-1
 0 129 l 1,17,-1
 0 250 l 1,18,-1
 1354 250 l 1,19,-1
 1354 129 l 1,16,-1
EndSplineSet
Ligature2: "'liga' Standard Ligatures in Arabic lookup 6 subtable" tatweel fathatan
EndChar

StartChar: dammatanisolated
Encoding: 65138 65138 75
Width: 463
Flags: W
LayerCount: 2
Fore
SplineSet
463 1582 m 0,0,1
 463 1565 463 1565 462.5 1550 c 128,-1,2
 462 1535 462 1535 461 1523 c 1,3,4
 441 1534 441 1534 418 1548.5 c 128,-1,5
 395 1563 395 1563 369 1582 c 1,6,7
 243 1453 243 1453 129 1437 c 1,8,9
 172 1526 172 1526 172 1566 c 0,10,11
 172 1621 172 1621 123 1621 c 0,12,13
 81 1621 81 1621 74 1545 c 1,14,15
 64 1574 64 1574 64 1597 c 256,16,17
 64 1620 64 1620 70.5 1640 c 128,-1,18
 77 1660 77 1660 88.5 1675 c 128,-1,19
 100 1690 100 1690 115 1698.5 c 128,-1,20
 130 1707 130 1707 148 1707 c 0,21,22
 215 1707 215 1707 215 1607 c 2,23,-1
 209 1515 l 1,24,25
 274 1540 274 1540 333 1605 c 1,26,27
 267 1648 267 1648 267 1699 c 0,28,29
 267 1752 267 1752 307 1798 c 0,30,31
 347 1846 347 1846 389 1846 c 0,32,33
 411 1846 411 1846 434 1819 c 0,34,35
 457 1793 457 1793 457 1766 c 0,36,37
 457 1736 457 1736 446 1708 c 128,-1,38
 424 1652 l 1,39,40
 463 1622 463 1622 463 1582 c 0,0,1
387 1726 m 0,41,42
 387 1779 387 1779 346 1779 c 0,43,44
 320 1779 320 1779 320 1756 c 0,45,46
 320 1730 320 1730 383 1687 c 1,47,48
 387 1696 387 1696 387 1726 c 0,41,42
EndSplineSet
EndChar

StartChar: kasratanisolated
Encoding: 65140 65140 76
Width: 408
Flags: W
LayerCount: 2
Fore
SplineSet
408 -620 m 1,0,1
 408 -686 408 -686 373 -706 c 2,2,-1
 70 -878 l 1,3,4
 73 -840 73 -840 84 -818 c 1,5,6
 97 -800 97 -800 136 -777 c 2,7,-1
 408 -620 l 1,0,1
408 -767 m 1,8,9
 408 -833 408 -833 373 -853 c 2,10,-1
 70 -1025 l 1,11,12
 73 -987 73 -987 84 -965 c 1,13,14
 97 -947 97 -947 136 -924 c 2,15,-1
 408 -767 l 1,8,9
EndSplineSet
EndChar

StartChar: fathaisolated
Encoding: 65142 65142 77
Width: 408
Flags: W
LayerCount: 2
Fore
SplineSet
408 1708 m 1,0,1
 408 1642 408 1642 373 1622 c 2,2,-1
 70 1450 l 1,3,4
 73 1488 73 1488 84 1509 c 0,5,6
 96 1529 96 1529 136 1551 c 2,7,-1
 408 1708 l 1,0,1
EndSplineSet
EndChar

StartChar: fathamedial
Encoding: 65143 65143 78
Width: 1284
Flags: W
LayerCount: 2
Fore
SplineSet
811 1288 m 1,0,1
 811 1222 811 1222 776 1202 c 2,2,-1
 473 1030 l 1,3,4
 476 1068 476 1068 487 1089 c 0,5,6
 499 1109 499 1109 539 1131 c 2,7,-1
 811 1288 l 1,0,1
1354 129 m 1,8,-1
 0 129 l 1,9,-1
 0 250 l 1,10,-1
 1354 250 l 1,11,-1
 1354 129 l 1,8,-1
EndSplineSet
Ligature2: "'liga' Standard Ligatures in Arabic lookup 6 subtable" tatweel fatha
EndChar

StartChar: dammaisolated
Encoding: 65144 65144 79
Width: 414
Flags: W
LayerCount: 2
Fore
SplineSet
414 1641 m 1,0,-1
 406 1542 l 1,1,-1
 326 1594 l 1,2,3
 206 1450 206 1450 129 1450 c 0,4,5
 110 1450 110 1450 70 1462 c 1,6,7
 172 1519 172 1519 283 1618 c 1,8,9
 222 1663 222 1663 222 1708 c 0,10,11
 222 1768 222 1768 267 1833 c 0,12,13
 297 1876 297 1876 338 1876 c 0,14,15
 406 1876 406 1876 406 1788 c 0,16,17
 406 1737 406 1737 375 1671 c 1,18,19
 388 1660 388 1660 414 1641 c 1,0,-1
344 1729 m 0,20,21
 344 1752 344 1752 328 1771 c 128,-1,22
 312 1790 312 1790 291 1790 c 0,23,24
 273 1790 273 1790 273 1770 c 0,25,26
 273 1739 273 1739 338 1695 c 1,27,28
 344 1714 344 1714 344 1729 c 0,20,21
EndSplineSet
EndChar

StartChar: dammamedial
Encoding: 65145 65145 80
Width: 1284
Flags: W
LayerCount: 2
Fore
SplineSet
814 1221 m 1,0,-1
 806 1122 l 1,1,-1
 726 1174 l 1,2,3
 606 1030 606 1030 529 1030 c 0,4,5
 510 1030 510 1030 470 1042 c 1,6,7
 572 1099 572 1099 683 1198 c 1,8,9
 622 1243 622 1243 622 1288 c 0,10,11
 622 1348 622 1348 667 1413 c 0,12,13
 697 1456 697 1456 738 1456 c 0,14,15
 806 1456 806 1456 806 1368 c 0,16,17
 806 1317 806 1317 775 1251 c 1,18,19
 788 1240 788 1240 814 1221 c 1,0,-1
744 1309 m 0,20,21
 744 1332 744 1332 728 1351 c 128,-1,22
 712 1370 712 1370 691 1370 c 0,23,24
 673 1370 673 1370 673 1350 c 0,25,26
 673 1319 673 1319 738 1275 c 1,27,28
 744 1294 744 1294 744 1309 c 0,20,21
1354 129 m 1,29,-1
 0 129 l 1,30,-1
 0 250 l 1,31,-1
 1354 250 l 1,32,-1
 1354 129 l 1,29,-1
EndSplineSet
Ligature2: "'liga' Standard Ligatures in Arabic lookup 6 subtable" tatweel damma
EndChar

StartChar: kasraisolated
Encoding: 65146 65146 81
Width: 408
Flags: W
LayerCount: 2
Fore
SplineSet
408 -620 m 1,0,1
 408 -686 408 -686 373 -706 c 2,2,-1
 70 -878 l 1,3,4
 73 -840 73 -840 84 -818 c 1,5,6
 97 -800 97 -800 136 -777 c 2,7,-1
 408 -620 l 1,0,1
EndSplineSet
EndChar

StartChar: kasramedial
Encoding: 65147 65147 82
Width: 1284
Flags: W
LayerCount: 2
Fore
SplineSet
811 -71 m 1,0,1
 811 -137 811 -137 776 -157 c 2,2,-1
 473 -329 l 1,3,4
 476 -291 476 -291 487 -269 c 1,5,6
 500 -251 500 -251 539 -228 c 2,7,-1
 811 -71 l 1,0,1
1354 129 m 1,8,-1
 0 129 l 1,9,-1
 0 250 l 1,10,-1
 1354 250 l 1,11,-1
 1354 129 l 1,8,-1
EndSplineSet
Ligature2: "'liga' Standard Ligatures in Arabic lookup 6 subtable" tatweel kasra
EndChar

StartChar: shaddaisolated
Encoding: 65148 65148 83
Width: 420
Flags: W
LayerCount: 2
Fore
SplineSet
420 1683 m 0,0,1
 420 1515 420 1515 316 1515 c 0,2,3
 280 1515 280 1515 252 1536 c 1,4,5
 244 1501 244 1501 213 1476 c 0,6,7
 181 1450 181 1450 148 1450 c 0,8,9
 66 1450 66 1450 66 1558 c 0,10,11
 66 1583 66 1583 88 1659 c 1,12,-1
 111 1663 l 1,13,14
 111 1552 111 1552 150 1552 c 0,15,16
 214 1552 214 1552 240 1714 c 1,17,-1
 258 1720 l 1,18,19
 281 1622 281 1622 316 1622 c 0,20,21
 374 1622 374 1622 383 1769 c 1,22,-1
 406 1779 l 1,23,24
 420 1718 420 1718 420 1683 c 0,0,1
EndSplineSet
EndChar

StartChar: shaddamedial
Encoding: 65149 65149 84
Width: 1284
Flags: W
LayerCount: 2
Fore
SplineSet
819 1263 m 0,0,1
 819 1095 819 1095 715 1095 c 0,2,3
 679 1095 679 1095 651 1116 c 1,4,5
 643 1081 643 1081 612 1056 c 0,6,7
 580 1030 580 1030 547 1030 c 0,8,9
 465 1030 465 1030 465 1138 c 0,10,11
 465 1163 465 1163 487 1239 c 1,12,-1
 510 1243 l 1,13,14
 510 1132 510 1132 549 1132 c 0,15,16
 613 1132 613 1132 639 1294 c 1,17,-1
 657 1300 l 1,18,19
 680 1202 680 1202 715 1202 c 0,20,21
 773 1202 773 1202 782 1349 c 1,22,-1
 805 1359 l 1,23,24
 819 1298 819 1298 819 1263 c 0,0,1
1354 129 m 1,25,-1
 0 129 l 1,26,-1
 0 250 l 1,27,-1
 1354 250 l 1,28,-1
 1354 129 l 1,25,-1
EndSplineSet
Ligature2: "'liga' Standard Ligatures in Arabic lookup 6 subtable" tatweel shadda
EndChar

StartChar: sukunisolated
Encoding: 65150 65150 85
Width: 332
Flags: W
LayerCount: 2
Fore
SplineSet
332 1614 m 0,0,1
 332 1549 332 1549 286 1500 c 0,2,3
 239 1450 239 1450 181 1450 c 0,4,5
 74 1450 74 1450 74 1571 c 0,6,7
 74 1655 74 1655 112 1708 c 0,8,9
 149 1762 149 1762 211 1762 c 0,10,11
 258 1762 258 1762 295 1716 c 0,12,13
 332 1673 332 1673 332 1614 c 0,0,1
277 1590 m 0,14,15
 277 1616 277 1616 234 1647 c 0,16,17
 193 1676 193 1676 166 1676 c 0,18,19
 107 1676 107 1676 107 1608 c 0,20,21
 107 1549 107 1549 199 1549 c 0,22,23
 277 1549 277 1549 277 1590 c 0,14,15
EndSplineSet
EndChar

StartChar: sukunmedial
Encoding: 65151 65151 86
Width: 1284
Flags: W
LayerCount: 2
Fore
SplineSet
771 1194 m 0,0,1
 771 1129 771 1129 725 1080 c 0,2,3
 678 1030 678 1030 620 1030 c 0,4,5
 513 1030 513 1030 513 1151 c 0,6,7
 513 1235 513 1235 551 1288 c 0,8,9
 588 1342 588 1342 650 1342 c 0,10,11
 697 1342 697 1342 734 1296 c 0,12,13
 771 1253 771 1253 771 1194 c 0,0,1
716 1170 m 0,14,15
 716 1196 716 1196 673 1227 c 0,16,17
 632 1256 632 1256 605 1256 c 0,18,19
 546 1256 546 1256 546 1188 c 0,20,21
 546 1129 546 1129 638 1129 c 0,22,23
 716 1129 716 1129 716 1170 c 0,14,15
1354 129 m 1,24,-1
 0 129 l 1,25,-1
 0 250 l 1,26,-1
 1354 250 l 1,27,-1
 1354 129 l 1,24,-1
EndSplineSet
Ligature2: "'liga' Standard Ligatures in Arabic lookup 6 subtable" tatweel sukun
EndChar

StartChar: hamzaisolated
Encoding: 65152 65152 87
Width: 759
Flags: W
AnchorPoint: "ArabicBelow" 379 -247 basechar 0
AnchorPoint: "ArabicAbove" 379 769 basechar 0
LayerCount: 2
Fore
SplineSet
455 254 m 2,0,1
 455 229 455 229 475.5 213 c 128,-1,2
 496 197 496 197 520 197 c 2,3,-1
 711 197 l 1,4,-1
 711 3 l 1,5,-1
 132 3 l 1,6,-1
 132 197 l 1,7,-1
 261 197 l 1,8,-1
 261 358 l 1,9,-1
 261 393 l 2,10,11
 269 450 269 450 301 484 c 0,12,13
 340 519 340 519 391 519 c 2,14,-1
 585 519 l 2,15,16
 638 513 638 513 673 484 c 0,17,18
 711 446 711 446 711 393 c 2,19,-1
 711 293 l 1,20,-1
 646 293 l 1,21,-1
 631 312 l 2,22,23
 618 325 618 325 585 325 c 2,24,-1
 520 325 l 2,25,26
 496 325 496 325 473 306 c 0,27,28
 465 300 465 300 460 290 c 1,29,-1
 455 265 l 1,30,-1
 455 254 l 2,0,1
EndSplineSet
EndChar

StartChar: alefwithmaddaaboveisolated
Encoding: 65153 65153 88
Width: 497
Flags: W
AnchorPoint: "ArabicBelow" 248 -251 basechar 0
AnchorPoint: "ArabicAbove" 248 1871 basechar 0
LayerCount: 2
Fore
SplineSet
170 -1 m 1,0,-1
 333 -1 l 1,1,-1
 333 1434 l 1,2,-1
 170 1434 l 1,3,-1
 170 -1 l 1,0,-1
486 1496 m 1,4,-1
 14 1496 l 1,5,-1
 14 1621 l 1,6,-1
 486 1621 l 1,7,-1
 486 1496 l 1,4,-1
EndSplineSet
EndChar

StartChar: alefwithmaddaabovefinal
Encoding: 65154 65154 89
Width: 497
Flags: W
AnchorPoint: "ArabicBelow" 248 -251 basechar 0
AnchorPoint: "ArabicAbove" 248 1873 basechar 0
LayerCount: 2
Fore
SplineSet
337 1436 m 1,0,-1
 337 313 l 2,1,2
 337 296 337 296 339 283.5 c 128,-1,3
 341 271 341 271 348 255 c 0,4,5
 360 230 360 230 383 208 c 0,6,7
 432 162 432 162 500 162 c 1,8,-1
 495 162 l 1,9,-1
 500 162 l 1,10,-1
 500 -1 l 1,11,12
 437 -1 437 -1 376 23 c 128,-1,13
 315 47 315 47 270 89 c 128,-1,14
 225 131 225 131 199 190 c 128,-1,15
 173 249 173 249 173 313 c 2,16,-1
 173 1436 l 1,17,-1
 337 1436 l 1,0,-1
486 1498 m 1,18,-1
 14 1498 l 1,19,-1
 14 1623 l 1,20,-1
 486 1623 l 1,21,-1
 486 1498 l 1,18,-1
EndSplineSet
EndChar

StartChar: alefwithhamzaaboveisolated
Encoding: 65155 65155 90
Width: 497
Flags: W
AnchorPoint: "ArabicBelow" 248 -251 basechar 0
AnchorPoint: "ArabicAbove" 248 1886 basechar 0
LayerCount: 2
Fore
SplineSet
170 1234 m 1,0,-1
 333 1234 l 1,1,-1
 333 -1 l 1,2,-1
 170 -1 l 1,3,-1
 170 1234 l 1,0,-1
268 1468 m 2,4,5
 268 1451 268 1451 281.5 1441.5 c 128,-1,6
 295 1432 295 1432 309 1432 c 2,7,-1
 430 1432 l 1,8,-1
 430 1309 l 1,9,-1
 63 1309 l 1,10,-1
 63 1432 l 1,11,-1
 145 1432 l 1,12,-1
 145 1534 l 1,13,-1
 145 1556 l 2,14,15
 150 1592 150 1592 170 1614 c 0,16,17
 195 1636 195 1636 227 1636 c 2,18,-1
 350 1636 l 2,19,20
 384 1632 384 1632 406 1614 c 0,21,22
 430 1590 430 1590 430 1556 c 2,23,-1
 430 1493 l 1,24,-1
 389 1493 l 1,25,-1
 379 1505 l 2,26,27
 371 1513 371 1513 350 1513 c 2,28,-1
 309 1513 l 2,29,30
 294 1513 294 1513 279 1501 c 0,31,32
 274 1497 274 1497 271 1491 c 1,33,-1
 268 1475 l 1,34,-1
 268 1468 l 2,4,5
EndSplineSet
EndChar

StartChar: alefwithhamzaabovefinal
Encoding: 65156 65156 91
Width: 495
Flags: W
AnchorPoint: "ArabicBelow" 247 -251 basechar 0
AnchorPoint: "ArabicAbove" 247 1888 basechar 0
LayerCount: 2
Fore
SplineSet
337 1246 m 1,0,-1
 337 313 l 2,1,2
 337 296 337 296 339 283.5 c 128,-1,3
 341 271 341 271 348 255 c 0,4,5
 360 230 360 230 383 208 c 0,6,7
 432 162 432 162 500 162 c 1,8,-1
 495 162 l 1,9,-1
 500 162 l 1,10,-1
 500 -1 l 1,11,12
 437 -1 437 -1 376 23 c 128,-1,13
 315 47 315 47 270 89 c 128,-1,14
 225 131 225 131 199 190 c 128,-1,15
 173 249 173 249 173 313 c 2,16,-1
 173 1246 l 1,17,-1
 337 1246 l 1,0,-1
268 1470 m 2,18,19
 268 1453 268 1453 281.5 1443.5 c 128,-1,20
 295 1434 295 1434 309 1434 c 2,21,-1
 430 1434 l 1,22,-1
 430 1311 l 1,23,-1
 63 1311 l 1,24,-1
 63 1434 l 1,25,-1
 145 1434 l 1,26,-1
 145 1536 l 1,27,-1
 145 1558 l 2,28,29
 150 1594 150 1594 170 1616 c 0,30,31
 195 1638 195 1638 227 1638 c 2,32,-1
 350 1638 l 2,33,34
 384 1634 384 1634 406 1616 c 0,35,36
 430 1592 430 1592 430 1558 c 2,37,-1
 430 1495 l 1,38,-1
 389 1495 l 1,39,-1
 379 1507 l 2,40,41
 371 1515 371 1515 350 1515 c 2,42,-1
 309 1515 l 2,43,44
 294 1515 294 1515 279 1503 c 0,45,46
 274 1499 274 1499 271 1493 c 1,47,-1
 268 1477 l 1,48,-1
 268 1470 l 2,18,19
EndSplineSet
EndChar

StartChar: wawwithhamzaaboveisolated
Encoding: 65157 65157 92
Width: 1603
Flags: W
AnchorPoint: "ArabicBelow" 801 -570 basechar 0
AnchorPoint: "ArabicAbove" 801 1886 basechar 0
LayerCount: 2
Fore
SplineSet
208 1468 m 2,0,1
 208 1450 208 1450 220 1441 c 0,2,3
 235 1432 235 1432 249 1432 c 2,4,-1
 371 1432 l 1,5,-1
 371 1308 l 1,6,-1
 3 1308 l 1,7,-1
 3 1431 l 1,8,-1
 86 1431 l 1,9,-1
 86 1533 l 1,10,-1
 86 1557 l 2,11,12
 86 1590 86 1590 109 1613 c 0,13,14
 135 1636 135 1636 167 1636 c 2,15,-1
 290 1636 l 2,16,17
 322 1636 322 1636 346.5 1612 c 128,-1,18
 371 1588 371 1588 371 1557 c 2,19,-1
 371 1492 l 1,20,-1
 330 1491 l 1,21,-1
 318 1505 l 2,22,23
 311 1513 311 1513 290 1513 c 2,24,-1
 249 1513 l 2,25,26
 233 1513 233 1513 219 1501 c 1,27,-1
 211 1489 l 1,28,-1
 208 1474 l 1,29,-1
 208 1468 l 2,0,1
374 1086 m 0,30,31
 328 1043 328 1043 328 982 c 2,32,-1
 328 309 l 2,33,34
 328 275 328 275 339.5 251.5 c 128,-1,35
 351 228 351 228 374 205 c 0,36,37
 423 159 423 159 490 159 c 2,38,-1
 1138 159 l 2,39,40
 1168 159 1168 159 1199 171 c 128,-1,41
 1230 183 1230 183 1255 205 c 0,42,43
 1300 247 1300 247 1300 309 c 2,44,-1
 1300 810 l 1,45,-1
 1300 971 l 1,46,-1
 1300 982 l 2,47,48
 1300 1013 1300 1013 1289 1038.5 c 128,-1,49
 1278 1064 1278 1064 1255 1086 c 0,50,51
 1206 1132 1206 1132 1138 1132 c 2,52,-1
 490 1132 l 2,53,54
 457 1132 457 1132 427 1121 c 128,-1,55
 397 1110 397 1110 374 1086 c 0,30,31
1463 -16 m 2,56,57
 1463 -79 1463 -79 1438.5 -136 c 128,-1,58
 1414 -193 1414 -193 1367 -235 c 0,59,60
 1324 -277 1324 -277 1263.5 -302 c 128,-1,61
 1203 -327 1203 -327 792 -319 c 1,62,-1
 792 -157 l 1,63,64
 1171 -159 1171 -159 1201 -150 c 128,-1,65
 1231 -141 1231 -141 1255 -120 c 0,66,67
 1300 -78 1300 -78 1300 -16 c 2,68,-1
 1300 39 l 1,69,70
 1266 21 1266 21 1223 8 c 2,71,-1
 1183 0 l 1,72,-1
 1138 -3 l 1,73,-1
 490 -3 l 2,74,75
 421 -3 421 -3 365.5 20.5 c 128,-1,76
 310 44 310 44 263.5 87 c 128,-1,77
 217 130 217 130 191 189 c 128,-1,78
 165 248 165 248 165 309 c 2,79,-1
 165 982 l 2,80,81
 165 1045 165 1045 189.5 1101 c 128,-1,82
 214 1157 214 1157 260.5 1202 c 128,-1,83
 307 1247 307 1247 364.5 1270.5 c 128,-1,84
 422 1294 422 1294 490 1294 c 2,85,-1
 1138 1294 l 2,86,87
 1172 1294 1172 1294 1200.5 1289 c 128,-1,88
 1229 1284 1229 1284 1260 1271 c 0,89,90
 1317 1248 1317 1248 1366 1204 c 0,91,92
 1409 1164 1409 1164 1436 1104.5 c 128,-1,93
 1463 1045 1463 1045 1463 982 c 2,94,-1
 1463 971 l 1,95,-1
 1463 810 l 1,96,-1
 1463 309 l 2,97,98
 1463 274 1463 274 1463 39 c 2,99,-1
 1463 -16 l 2,56,57
EndSplineSet
EndChar

StartChar: wawwithhamzaabovefinal
Encoding: 65158 65158 93
Width: 1617
Flags: W
AnchorPoint: "ArabicBelow" 808 -567 basechar 0
AnchorPoint: "ArabicAbove" 808 1889 basechar 0
LayerCount: 2
Fore
SplineSet
208 1471 m 2,0,1
 208 1453 208 1453 220 1444 c 0,2,3
 235 1435 235 1435 249 1435 c 2,4,-1
 371 1435 l 1,5,-1
 371 1311 l 1,6,-1
 3 1311 l 1,7,-1
 3 1434 l 1,8,-1
 86 1434 l 1,9,-1
 86 1536 l 1,10,-1
 86 1560 l 2,11,12
 86 1593 86 1593 109 1616 c 0,13,14
 135 1639 135 1639 167 1639 c 2,15,-1
 290 1639 l 2,16,17
 322 1639 322 1639 346.5 1615 c 128,-1,18
 371 1591 371 1591 371 1560 c 2,19,-1
 371 1495 l 1,20,-1
 330 1494 l 1,21,-1
 318 1508 l 2,22,23
 311 1516 311 1516 290 1516 c 2,24,-1
 249 1516 l 2,25,26
 233 1516 233 1516 219 1504 c 1,27,-1
 211 1492 l 1,28,-1
 208 1477 l 1,29,-1
 208 1471 l 2,0,1
374 1089 m 0,30,31
 328 1046 328 1046 328 985 c 2,32,-1
 328 312 l 2,33,34
 328 278 328 278 339.5 254.5 c 128,-1,35
 351 231 351 231 374 208 c 0,36,37
 423 162 423 162 490 162 c 2,38,-1
 1138 162 l 2,39,40
 1168 162 1168 162 1199 174 c 128,-1,41
 1230 186 1230 186 1255 208 c 0,42,43
 1300 250 1300 250 1300 312 c 2,44,-1
 1300 813 l 1,45,-1
 1300 974 l 1,46,-1
 1300 985 l 2,47,48
 1300 1016 1300 1016 1289 1041.5 c 128,-1,49
 1278 1067 1278 1067 1255 1089 c 0,50,51
 1206 1135 1206 1135 1138 1135 c 2,52,-1
 490 1135 l 2,53,54
 457 1135 457 1135 427 1124 c 128,-1,55
 397 1113 397 1113 374 1089 c 0,30,31
1463 -13 m 2,56,57
 1463 -76 1463 -76 1438.5 -133 c 128,-1,58
 1414 -190 1414 -190 1367 -232 c 0,59,60
 1324 -274 1324 -274 1263.5 -299 c 128,-1,61
 1203 -324 1203 -324 794 -316 c 1,62,-1
 794 -154 l 1,63,64
 1166 -155 1166 -155 1198.5 -146.5 c 128,-1,65
 1231 -138 1231 -138 1255 -117 c 0,66,67
 1300 -75 1300 -75 1300 -13 c 2,68,-1
 1300 42 l 1,69,70
 1266 24 1266 24 1223 11 c 2,71,-1
 1183 3 l 1,72,-1
 1138 0 l 1,73,-1
 490 0 l 2,74,75
 421 0 421 0 365.5 23.5 c 128,-1,76
 310 47 310 47 263.5 90 c 128,-1,77
 217 133 217 133 191 192 c 128,-1,78
 165 251 165 251 165 312 c 2,79,-1
 165 985 l 2,80,81
 165 1048 165 1048 189.5 1104 c 128,-1,82
 214 1160 214 1160 260.5 1205 c 128,-1,83
 307 1250 307 1250 364.5 1273.5 c 128,-1,84
 422 1297 422 1297 490 1297 c 2,85,-1
 1138 1297 l 2,86,87
 1172 1297 1172 1297 1200.5 1292 c 128,-1,88
 1229 1287 1229 1287 1260 1274 c 0,89,90
 1317 1251 1317 1251 1366 1207 c 0,91,92
 1409 1167 1409 1167 1436 1107.5 c 128,-1,93
 1463 1048 1463 1048 1463 985 c 2,94,-1
 1463 974 l 1,95,-1
 1463 813 l 1,96,-1
 1463 312 l 2,97,98
 1463 277 1463 277 1474.5 253 c 128,-1,99
 1486 229 1486 229 1509 208 c 0,100,101
 1555 162 1555 162 1624 162 c 1,102,-1
 1620 162 l 1,103,-1
 1624 162 l 1,104,-1
 1624 0 l 1,105,106
 1581 0 1581 0 1541 10 c 0,107,108
 1532 12 1532 12 1523.5 15 c 128,-1,109
 1515 18 1515 18 1502 23 c 2,110,-1
 1463 42 l 1,111,-1
 1463 -13 l 2,56,57
EndSplineSet
EndChar

StartChar: alefwithhamzabelowisolated
Encoding: 65159 65159 94
Width: 497
Flags: W
AnchorPoint: "ArabicBelow" 248 -579 basechar 0
AnchorPoint: "ArabicAbove" 248 1884 basechar 0
LayerCount: 2
Fore
SplineSet
170 1634 m 1,0,-1
 333 1634 l 1,1,-1
 333 99 l 1,2,-1
 170 99 l 1,3,-1
 170 1634 l 1,0,-1
237 -170 m 2,4,5
 237 -186 237 -186 250 -196 c 128,-1,6
 263 -206 263 -206 278 -206 c 2,7,-1
 399 -206 l 1,8,-1
 399 -329 l 1,9,-1
 32 -329 l 1,10,-1
 32 -206 l 1,11,-1
 114 -206 l 1,12,-1
 114 -104 l 1,13,-1
 114 -82 l 2,14,15
 119 -46 119 -46 139 -24 c 0,16,17
 164 -2 164 -2 196 -2 c 2,18,-1
 319 -2 l 2,19,20
 353 -6 353 -6 375 -24 c 0,21,22
 399 -48 399 -48 399 -82 c 2,23,-1
 399 -145 l 1,24,-1
 358 -145 l 1,25,-1
 348 -133 l 2,26,27
 340 -125 340 -125 319 -125 c 2,28,-1
 278 -125 l 2,29,30
 263 -125 263 -125 248 -137 c 0,31,32
 243 -141 243 -141 240 -147 c 1,33,-1
 237 -163 l 1,34,-1
 237 -170 l 2,4,5
EndSplineSet
EndChar

StartChar: alefwithhamzabelowfinal
Encoding: 65160 65160 95
Width: 494
Flags: W
AnchorPoint: "ArabicBelow" 247 -577 basechar 0
AnchorPoint: "ArabicAbove" 247 1886 basechar 0
LayerCount: 2
Fore
SplineSet
337 1636 m 1,0,-1
 337 313 l 2,1,2
 337 296 337 296 339 283.5 c 128,-1,3
 341 271 341 271 348 255 c 0,4,5
 360 230 360 230 383 208 c 0,6,7
 432 162 432 162 500 162 c 1,8,-1
 495 162 l 1,9,-1
 500 162 l 1,10,-1
 500 -1 l 1,11,12
 437 -1 437 -1 376 23 c 128,-1,13
 315 47 315 47 270 89 c 128,-1,14
 225 131 225 131 199 190 c 128,-1,15
 173 249 173 249 173 313 c 2,16,-1
 173 1636 l 1,17,-1
 337 1636 l 1,0,-1
207 -161 m 1,18,-1
 210 -145 l 1,19,20
 213 -139 213 -139 218 -135 c 0,21,22
 233 -123 233 -123 248 -123 c 2,23,-1
 289 -123 l 2,24,25
 310 -123 310 -123 318 -131 c 2,26,-1
 328 -143 l 1,27,-1
 369 -143 l 1,28,-1
 369 -80 l 2,29,30
 369 -46 369 -46 345 -22 c 0,31,32
 323 -4 323 -4 289 0 c 2,33,-1
 166 0 l 2,34,35
 134 0 134 0 109 -22 c 0,36,37
 89 -44 89 -44 84 -80 c 2,38,-1
 84 -102 l 1,39,-1
 84 -204 l 1,40,-1
 2 -204 l 1,41,-1
 2 -327 l 1,42,-1
 369 -327 l 1,43,-1
 369 -204 l 1,44,-1
 248 -204 l 2,45,46
 233 -204 233 -204 220 -194 c 128,-1,47
 207 -184 207 -184 207 -168 c 2,48,-1
 207 -161 l 1,18,-1
EndSplineSet
EndChar

StartChar: yehwithhamzaaboveisolated
Encoding: 65161 65161 96
Width: 1673
Flags: W
AnchorPoint: "ArabicBelow" 836 -251 basechar 0
AnchorPoint: "ArabicAbove" 836 1886 basechar 0
LayerCount: 2
Fore
SplineSet
674 1143 m 1,0,-1
 510 1143 l 2,1,2
 441 1143 441 1143 394 1097.5 c 128,-1,3
 347 1052 347 1052 347 992 c 2,4,-1
 347 313 l 2,5,6
 347 250 347 250 394 208 c 0,7,8
 441 161 441 161 510 161 c 2,9,-1
 756 161 l 1,10,-1
 1165 161 l 2,11,12
 1235 161 1235 161 1282 208 c 0,13,14
 1304 228 1304 228 1316 256.5 c 128,-1,15
 1328 285 1328 285 1328 313 c 2,16,-1
 1328 488 l 1,17,-1
 1328 583 l 2,18,19
 1328 645 1328 645 1280.5 689.5 c 128,-1,20
 1233 734 1233 734 1165 734 c 2,21,-1
 919 734 l 1,22,-1
 919 815 l 1,23,-1
 919 899 l 1,24,-1
 919 992 l 2,25,26
 919 1055 919 1055 945.5 1113.5 c 128,-1,27
 972 1172 972 1172 1017.5 1216 c 128,-1,28
 1063 1260 1063 1260 1123.5 1283.5 c 128,-1,29
 1184 1307 1184 1307 1247 1307 c 2,30,-1
 1410 1307 l 1,31,-1
 1410 1143 l 1,32,-1
 1247 1143 l 1,33,-1
 1241 1143 l 1,34,-1
 1247 1143 l 1,35,36
 1178 1143 1178 1143 1129 1097 c 0,37,38
 1107 1075 1107 1075 1095 1049 c 128,-1,39
 1083 1023 1083 1023 1083 992 c 2,40,-1
 1083 899 l 1,41,-1
 1165 899 l 2,42,43
 1233 899 1233 899 1291 874 c 128,-1,44
 1349 849 1349 849 1396 804.5 c 128,-1,45
 1443 760 1443 760 1466 705 c 0,46,47
 1476 686 1476 686 1479 676 c 128,-1,48
 1482 666 1482 666 1487 640.5 c 128,-1,49
 1492 615 1492 615 1492 583 c 2,50,-1
 1492 488 l 1,51,-1
 1492 313 l 2,52,53
 1492 248 1492 248 1466 190 c 128,-1,54
 1440 132 1440 132 1394 89.5 c 128,-1,55
 1348 47 1348 47 1288.5 23 c 128,-1,56
 1229 -1 1229 -1 1165 -1 c 2,57,-1
 756 -1 l 1,58,-1
 510 -1 l 2,59,60
 445 -1 445 -1 384 22 c 0,61,62
 322 49 322 49 280 90 c 0,63,64
 232 137 232 137 207.5 193 c 128,-1,65
 183 249 183 249 183 313 c 2,66,-1
 183 992 l 2,67,68
 183 1008 183 1008 185 1023 c 128,-1,69
 187 1038 187 1038 190 1055 c 0,70,71
 197 1086 197 1086 208 1114 c 0,72,73
 234 1171 234 1171 279.5 1215.5 c 128,-1,74
 325 1260 325 1260 386 1283.5 c 128,-1,75
 447 1307 447 1307 510 1307 c 2,76,-1
 674 1307 l 1,77,-1
 674 1143 l 1,0,-1
1247 1307 m 1,78,-1
 1242 1307 l 1,79,-1
 1247 1307 l 1,78,-1
908 1468 m 2,80,81
 908 1450 908 1450 920 1441 c 0,82,83
 935 1432 935 1432 949 1432 c 2,84,-1
 1071 1432 l 1,85,-1
 1071 1308 l 1,86,-1
 703 1308 l 1,87,-1
 703 1431 l 1,88,-1
 786 1431 l 1,89,-1
 786 1533 l 1,90,-1
 786 1557 l 2,91,92
 786 1590 786 1590 809 1613 c 0,93,94
 835 1636 835 1636 867 1636 c 2,95,-1
 990 1636 l 2,96,97
 1022 1636 1022 1636 1046.5 1612 c 128,-1,98
 1071 1588 1071 1588 1071 1557 c 2,99,-1
 1071 1492 l 1,100,-1
 1030 1491 l 1,101,-1
 1018 1505 l 2,102,103
 1011 1513 1011 1513 990 1513 c 2,104,-1
 949 1513 l 2,105,106
 933 1513 933 1513 919 1501 c 1,107,-1
 911 1489 l 1,108,-1
 908 1474 l 1,109,-1
 908 1468 l 2,80,81
EndSplineSet
EndChar

StartChar: yehwithhamzaabovefinal
Encoding: 65162 65162 97
Width: 2112
Flags: W
AnchorPoint: "ArabicBelow" 1056 -251 basechar 0
AnchorPoint: "ArabicAbove" 1056 1888 basechar 0
LayerCount: 2
Fore
SplineSet
646 1145 m 1,0,-1
 483 1145 l 2,1,2
 412 1145 412 1145 365 1099.5 c 128,-1,3
 318 1054 318 1054 318 994 c 2,4,-1
 318 315 l 2,5,6
 318 252 318 252 366 210 c 0,7,8
 389 187 389 187 419.5 175 c 128,-1,9
 450 163 450 163 483 163 c 2,10,-1
 1136 163 l 2,11,12
 1206 163 1206 163 1253 210 c 0,13,14
 1300 251 1300 251 1300 315 c 2,15,-1
 1300 407 l 1,16,-1
 1300 901 l 1,17,-1
 1300 994 l 2,18,19
 1300 1058 1300 1058 1327.5 1117.5 c 128,-1,20
 1355 1177 1355 1177 1400 1219.5 c 128,-1,21
 1445 1262 1445 1262 1504.5 1285.5 c 128,-1,22
 1564 1309 1564 1309 1628 1309 c 1,23,-1
 1624 1309 l 1,24,-1
 1628 1309 l 2,25,26
 1689 1309 1689 1309 1753 1282 c 128,-1,27
 1817 1255 1817 1255 1861 1213 c 128,-1,28
 1905 1171 1905 1171 1929 1115 c 0,29,30
 1939 1096 1939 1096 1942 1086 c 128,-1,31
 1945 1076 1945 1076 1950 1050.5 c 128,-1,32
 1955 1025 1955 1025 1955 994 c 2,33,-1
 1955 736 l 1,34,-1
 1955 489 l 1,35,-1
 1955 313 l 2,36,37
 1955 252 1955 252 2001 208 c 0,38,39
 2024 186 2024 186 2055.5 174 c 128,-1,40
 2087 162 2087 162 2118 162 c 1,41,-1
 2114 162 l 1,42,-1
 2118 162 l 1,43,-1
 2118 -1 l 1,44,-1
 2114 -1 l 1,45,-1
 2118 -1 l 1,46,47
 2053 -1 2053 -1 1992 22 c 0,48,49
 1930 49 1930 49 1888 90 c 0,50,51
 1840 137 1840 137 1815.5 192.5 c 128,-1,52
 1791 248 1791 248 1791 313 c 2,53,-1
 1791 489 l 1,54,-1
 1791 736 l 1,55,-1
 1791 994 l 2,56,57
 1791 1055 1791 1055 1745 1099 c 0,58,59
 1722 1121 1722 1121 1691.5 1133 c 128,-1,60
 1661 1145 1661 1145 1628 1145 c 2,61,-1
 1622 1145 l 1,62,-1
 1628 1145 l 1,63,-1
 1633 1145 l 1,64,-1
 1628 1145 l 2,65,66
 1556 1145 1556 1145 1510 1099 c 0,67,68
 1487 1078 1487 1078 1475 1049.5 c 128,-1,69
 1463 1021 1463 1021 1463 994 c 2,70,-1
 1463 901 l 1,71,-1
 1463 407 l 1,72,-1
 1463 315 l 2,73,74
 1463 250 1463 250 1436 190.5 c 128,-1,75
 1409 131 1409 131 1363.5 89 c 128,-1,76
 1318 47 1318 47 1261 24 c 0,77,78
 1229 11 1229 11 1200.5 6 c 128,-1,79
 1172 1 1172 1 1136 1 c 2,80,-1
 483 1 l 2,81,82
 416 1 416 1 356 25 c 0,83,84
 294 53 294 53 251 93 c 0,85,86
 205 138 205 138 180.5 194.5 c 128,-1,87
 156 251 156 251 156 315 c 2,88,-1
 156 994 l 2,89,90
 156 1010 156 1010 158 1025 c 128,-1,91
 160 1040 160 1040 163 1057 c 0,92,93
 170 1088 170 1088 181 1116 c 0,94,95
 209 1177 209 1177 254.5 1220 c 128,-1,96
 300 1263 300 1263 358.5 1286 c 128,-1,97
 417 1309 417 1309 483 1309 c 2,98,-1
 646 1309 l 1,99,-1
 646 1145 l 1,0,-1
1018 1470 m 2,100,101
 1018 1452 1018 1452 1030 1443 c 0,102,103
 1045 1434 1045 1434 1059 1434 c 2,104,-1
 1181 1434 l 1,105,-1
 1181 1310 l 1,106,-1
 813 1310 l 1,107,-1
 813 1433 l 1,108,-1
 896 1433 l 1,109,-1
 896 1535 l 1,110,-1
 896 1559 l 2,111,112
 896 1592 896 1592 919 1615 c 0,113,114
 945 1638 945 1638 977 1638 c 2,115,-1
 1100 1638 l 2,116,117
 1132 1638 1132 1638 1156.5 1614 c 128,-1,118
 1181 1590 1181 1590 1181 1559 c 2,119,-1
 1181 1494 l 1,120,-1
 1140 1493 l 1,121,-1
 1128 1507 l 2,122,123
 1121 1515 1121 1515 1100 1515 c 2,124,-1
 1059 1515 l 2,125,126
 1043 1515 1043 1515 1029 1503 c 1,127,-1
 1021 1491 l 1,128,-1
 1018 1476 l 1,129,-1
 1018 1470 l 2,100,101
EndSplineSet
EndChar

StartChar: yehwithhamzaaboveinitial
Encoding: 65163 65163 98
Width: 480
Flags: W
AnchorPoint: "ArabicBelow" 240 -253 basechar 0
AnchorPoint: "ArabicAbove" 240 1886 basechar 0
LayerCount: 2
Fore
SplineSet
320 1257 m 1,0,-1
 320 311 l 2,1,2
 320 248 320 248 293 188.5 c 128,-1,3
 266 129 266 129 222 87 c 128,-1,4
 178 45 178 45 117.5 21 c 128,-1,5
 57 -3 57 -3 -8 -3 c 1,6,-1
 -3 -3 l 1,7,-1
 -8 -3 l 1,8,-1
 -8 160 l 1,9,-1
 -2 160 l 1,10,-1
 -8 160 l 1,11,12
 61 160 61 160 110 206 c 0,13,14
 134 228 134 228 145 255 c 128,-1,15
 156 282 156 282 156 311 c 2,16,-1
 156 1257 l 1,17,-1
 320 1257 l 1,0,-1
258 1468 m 2,18,19
 258 1450 258 1450 270 1441 c 0,20,21
 285 1432 285 1432 299 1432 c 2,22,-1
 421 1432 l 1,23,-1
 421 1308 l 1,24,-1
 53 1308 l 1,25,-1
 53 1431 l 1,26,-1
 136 1431 l 1,27,-1
 136 1533 l 1,28,-1
 136 1557 l 2,29,30
 136 1590 136 1590 159 1613 c 0,31,32
 185 1636 185 1636 217 1636 c 2,33,-1
 340 1636 l 2,34,35
 372 1636 372 1636 396.5 1612 c 128,-1,36
 421 1588 421 1588 421 1557 c 2,37,-1
 421 1492 l 1,38,-1
 380 1491 l 1,39,-1
 368 1505 l 2,40,41
 361 1513 361 1513 340 1513 c 2,42,-1
 299 1513 l 2,43,44
 283 1513 283 1513 269 1501 c 1,45,-1
 261 1489 l 1,46,-1
 258 1474 l 1,47,-1
 258 1468 l 2,18,19
EndSplineSet
EndChar

StartChar: yehwithhamzaabovemedial
Encoding: 65164 65164 99
Width: 481
Flags: W
AnchorPoint: "ArabicBelow" 240 -251 basechar 0
AnchorPoint: "ArabicAbove" 240 1888 basechar 0
LayerCount: 2
Fore
SplineSet
324 1259 m 1,0,-1
 324 313 l 2,1,2
 324 253 324 253 371 208 c 0,3,4
 394 185 394 185 423 173.5 c 128,-1,5
 452 162 452 162 488 162 c 1,6,-1
 483 162 l 1,7,-1
 488 162 l 1,8,-1
 488 -1 l 1,9,-1
 484 -1 l 1,10,-1
 488 -1 l 1,11,12
 421 -1 421 -1 361.5 24 c 128,-1,13
 302 49 302 49 259 90 c 2,14,-1
 243 106 l 1,15,-1
 227 90 l 2,16,17
 183 47 183 47 122.5 23 c 128,-1,18
 62 -1 62 -1 -3 -1 c 1,19,-1
 -3 162 l 1,20,-1
 1 162 l 1,21,-1
 -3 162 l 1,22,23
 66 162 66 162 113.5 208 c 128,-1,24
 161 254 161 254 161 313 c 2,25,-1
 161 1259 l 1,26,-1
 324 1259 l 1,0,-1
266 1470 m 2,27,28
 266 1452 266 1452 278 1443 c 0,29,30
 293 1434 293 1434 307 1434 c 2,31,-1
 429 1434 l 1,32,-1
 429 1310 l 1,33,-1
 61 1310 l 1,34,-1
 61 1433 l 1,35,-1
 144 1433 l 1,36,-1
 144 1535 l 1,37,-1
 144 1559 l 2,38,39
 144 1592 144 1592 167 1615 c 0,40,41
 193 1638 193 1638 225 1638 c 2,42,-1
 348 1638 l 2,43,44
 380 1638 380 1638 404.5 1614 c 128,-1,45
 429 1590 429 1590 429 1559 c 2,46,-1
 429 1494 l 1,47,-1
 388 1493 l 1,48,-1
 376 1507 l 2,49,50
 369 1515 369 1515 348 1515 c 2,51,-1
 307 1515 l 2,52,53
 291 1515 291 1515 277 1503 c 1,54,-1
 269 1491 l 1,55,-1
 266 1476 l 1,56,-1
 266 1470 l 2,27,28
EndSplineSet
EndChar

StartChar: alefisolated
Encoding: 65165 65165 100
Width: 497
Flags: W
AnchorPoint: "ArabicBelow" 248 -251 basechar 0
AnchorPoint: "ArabicAbove" 248 1884 basechar 0
LayerCount: 2
Fore
SplineSet
170 1634 m 1,0,-1
 333 1634 l 1,1,-1
 333 -1 l 1,2,-1
 170 -1 l 1,3,-1
 170 1634 l 1,0,-1
EndSplineSet
EndChar

StartChar: aleffinal
Encoding: 65166 65166 101
Width: 495
Flags: W
AnchorPoint: "ArabicBelow" 247 -251 basechar 0
AnchorPoint: "ArabicAbove" 247 1886 basechar 0
LayerCount: 2
Fore
SplineSet
337 1636 m 1,0,-1
 337 313 l 2,1,2
 337 296 337 296 339 283.5 c 128,-1,3
 341 271 341 271 348 255 c 0,4,5
 360 230 360 230 383 208 c 0,6,7
 432 162 432 162 500 162 c 1,8,-1
 495 162 l 1,9,-1
 500 162 l 1,10,-1
 500 -1 l 1,11,12
 437 -1 437 -1 376 23 c 128,-1,13
 315 47 315 47 270 89 c 128,-1,14
 225 131 225 131 199 190 c 128,-1,15
 173 249 173 249 173 313 c 2,16,-1
 173 1636 l 1,17,-1
 337 1636 l 1,0,-1
EndSplineSet
EndChar

StartChar: behisolated
Encoding: 65167 65167 102
Width: 1967
Flags: W
AnchorPoint: "ArabicBelow" 983 -582 basechar 0
AnchorPoint: "ArabicAbove" 983 1556 basechar 0
LayerCount: 2
Fore
SplineSet
656 1142 m 1,0,-1
 491 1142 l 2,1,2
 423 1142 423 1142 374 1096 c 0,3,4
 351 1075 351 1075 339 1047.5 c 128,-1,5
 327 1020 327 1020 327 991 c 2,6,-1
 327 312 l 2,7,8
 327 281 327 281 339.5 253.5 c 128,-1,9
 352 226 352 226 375.5 205 c 128,-1,10
 399 184 399 184 428 172 c 128,-1,11
 457 160 457 160 491 160 c 2,12,-1
 1473 160 l 2,13,14
 1543 160 1543 160 1590 207 c 0,15,16
 1637 248 1637 248 1637 312 c 2,17,-1
 1637 1306 l 1,18,-1
 1800 1306 l 1,19,-1
 1800 312 l 2,20,21
 1800 247 1800 247 1774 189 c 128,-1,22
 1748 131 1748 131 1702 88 c 128,-1,23
 1656 45 1656 45 1598 21 c 0,24,25
 1566 8 1566 8 1537.5 3 c 128,-1,26
 1509 -2 1509 -2 1473 -2 c 2,27,-1
 491 -2 l 2,28,29
 424 -2 424 -2 364 23 c 128,-1,30
 304 48 304 48 259 90.5 c 128,-1,31
 214 133 214 133 189 191 c 128,-1,32
 164 249 164 249 164 312 c 2,33,-1
 164 991 l 2,34,35
 164 1055 164 1055 191 1114 c 128,-1,36
 218 1173 218 1173 262.5 1216 c 128,-1,37
 307 1259 307 1259 366.5 1282.5 c 128,-1,38
 426 1306 426 1306 491 1306 c 2,39,-1
 656 1306 l 1,40,-1
 656 1142 l 1,0,-1
1064 -332 m 1,41,-1
 900 -332 l 1,42,-1
 900 -168 l 1,43,-1
 1064 -168 l 1,44,-1
 1064 -332 l 1,41,-1
EndSplineSet
EndChar

StartChar: behfinal
Encoding: 65168 65168 103
Width: 1964
Flags: W
AnchorPoint: "ArabicBelow" 982 -578 basechar 0
AnchorPoint: "ArabicAbove" 982 1560 basechar 0
LayerCount: 2
Fore
SplineSet
1068 -328 m 1,0,-1
 906 -328 l 1,1,-1
 906 -164 l 1,2,-1
 1068 -164 l 1,3,-1
 1068 -328 l 1,0,-1
659 1146 m 1,4,-1
 495 1146 l 2,5,6
 427 1146 427 1146 378 1100 c 0,7,8
 356 1079 356 1079 344 1053 c 128,-1,9
 332 1027 332 1027 332 995 c 2,10,-1
 332 316 l 2,11,12
 332 254 332 254 378 211 c 0,13,14
 402 188 402 188 431.5 176 c 128,-1,15
 461 164 461 164 495 164 c 2,16,-1
 1477 164 l 2,17,18
 1511 164 1511 164 1541 176 c 0,19,20
 1574 191 1574 191 1594 211 c 0,21,22
 1641 252 1641 252 1641 316 c 2,23,-1
 1641 1310 l 1,24,-1
 1804 1310 l 1,25,-1
 1804 314 l 2,26,27
 1804 254 1804 254 1851 209 c 0,28,29
 1875 187 1875 187 1905.5 175 c 128,-1,30
 1936 163 1936 163 1968 163 c 1,31,-1
 1963 163 l 1,32,-1
 1968 163 l 1,33,-1
 1968 0 l 1,34,-1
 1964 0 l 1,35,-1
 1968 0 l 1,36,37
 1901 0 1901 0 1841.5 25 c 128,-1,38
 1782 50 1782 50 1739 91 c 2,39,-1
 1722 108 l 1,40,-1
 1707 93 l 2,41,42
 1663 50 1663 50 1602.5 26 c 128,-1,43
 1542 2 1542 2 1477 2 c 2,44,-1
 495 2 l 2,45,46
 430 2 430 2 369.5 26.5 c 128,-1,47
 309 51 309 51 265 93 c 0,48,49
 218 139 218 139 193 195 c 128,-1,50
 168 251 168 251 168 316 c 2,51,-1
 168 995 l 2,52,53
 168 1058 168 1058 195 1117 c 128,-1,54
 222 1176 222 1176 268.5 1220 c 128,-1,55
 315 1264 315 1264 373 1287 c 128,-1,56
 431 1310 431 1310 495 1310 c 2,57,-1
 659 1310 l 1,58,-1
 659 1146 l 1,4,-1
EndSplineSet
EndChar

StartChar: behinitial
Encoding: 65169 65169 104
Width: 490
Flags: W
AnchorPoint: "ArabicBelow" 245 -581 basechar 0
AnchorPoint: "ArabicAbove" 245 1557 basechar 0
LayerCount: 2
Fore
SplineSet
330 1307 m 1,0,-1
 330 311 l 2,1,2
 330 248 330 248 303 188.5 c 128,-1,3
 276 129 276 129 232 87 c 128,-1,4
 188 45 188 45 127.5 21 c 128,-1,5
 67 -3 67 -3 2 -3 c 1,6,-1
 7 -3 l 1,7,-1
 2 -3 l 1,8,-1
 2 160 l 1,9,-1
 8 160 l 1,10,-1
 2 160 l 1,11,12
 71 160 71 160 120 206 c 0,13,14
 144 228 144 228 155 255 c 128,-1,15
 166 282 166 282 166 311 c 2,16,-1
 166 1307 l 1,17,-1
 330 1307 l 1,0,-1
166 -167 m 1,18,-1
 330 -167 l 1,19,-1
 330 -331 l 1,20,-1
 166 -331 l 1,21,-1
 166 -167 l 1,18,-1
EndSplineSet
EndChar

StartChar: behmedial
Encoding: 65170 65170 105
Width: 480
Flags: W
AnchorPoint: "ArabicBelow" 240 -579 basechar 0
AnchorPoint: "ArabicAbove" 240 1559 basechar 0
LayerCount: 2
Fore
SplineSet
323 1309 m 1,0,-1
 323 313 l 2,1,2
 323 253 323 253 370 208 c 0,3,4
 393 185 393 185 422 173.5 c 128,-1,5
 451 162 451 162 487 162 c 1,6,-1
 482 162 l 1,7,-1
 487 162 l 1,8,-1
 487 -1 l 1,9,-1
 483 -1 l 1,10,-1
 487 -1 l 1,11,12
 420 -1 420 -1 360.5 24 c 128,-1,13
 301 49 301 49 258 90 c 2,14,-1
 242 106 l 1,15,-1
 226 90 l 2,16,17
 182 47 182 47 121.5 23 c 128,-1,18
 61 -1 61 -1 -4 -1 c 1,19,-1
 -4 162 l 1,20,-1
 0 162 l 1,21,-1
 -4 162 l 1,22,23
 65 162 65 162 112.5 208 c 128,-1,24
 160 254 160 254 160 313 c 2,25,-1
 160 1309 l 1,26,-1
 323 1309 l 1,0,-1
163 -165 m 1,27,-1
 327 -165 l 1,28,-1
 327 -329 l 1,29,-1
 163 -329 l 1,30,-1
 163 -165 l 1,27,-1
EndSplineSet
EndChar

StartChar: tehmarbutaisolated
Encoding: 65171 65171 106
Width: 1659
Flags: W
AnchorPoint: "ArabicBelow" 829 -252 basechar 0
AnchorPoint: "ArabicAbove" 829 1869 basechar 0
LayerCount: 2
Fore
SplineSet
382 1098 m 0,0,1
 335 1054 335 1054 335 992 c 2,2,-1
 335 313 l 2,3,4
 335 253 335 253 382 207.5 c 128,-1,5
 429 162 429 162 498 162 c 2,6,-1
 1154 162 l 2,7,8
 1191 162 1191 162 1216.5 172.5 c 128,-1,9
 1242 183 1242 183 1270 206 c 0,10,11
 1291 227 1291 227 1304 256.5 c 128,-1,12
 1317 286 1317 286 1317 313 c 2,13,-1
 1317 992 l 2,14,15
 1317 1054 1317 1054 1270 1098.5 c 128,-1,16
 1223 1143 1223 1143 1154 1143 c 2,17,-1
 498 1143 l 2,18,19
 464 1143 464 1143 435 1132.5 c 128,-1,20
 406 1122 406 1122 382 1098 c 0,0,1
269 89 m 0,21,22
 224 133 224 133 197.5 192.5 c 128,-1,23
 171 252 171 252 171 313 c 2,24,-1
 171 992 l 2,25,26
 171 1057 171 1057 195.5 1114.5 c 128,-1,27
 220 1172 220 1172 265 1213 c 128,-1,28
 310 1254 310 1254 373.5 1280.5 c 128,-1,29
 437 1307 437 1307 498 1307 c 2,30,-1
 1154 1307 l 2,31,32
 1217 1307 1217 1307 1277 1284 c 128,-1,33
 1337 1261 1337 1261 1382 1218 c 128,-1,34
 1427 1175 1427 1175 1454 1115.5 c 128,-1,35
 1481 1056 1481 1056 1481 992 c 2,36,-1
 1481 313 l 2,37,38
 1481 280 1481 280 1476.5 258 c 128,-1,39
 1472 236 1472 236 1470 229 c 0,40,41
 1465 212 1465 212 1455 191 c 0,42,43
 1431 136 1431 136 1386.5 93 c 128,-1,44
 1342 50 1342 50 1279 24 c 128,-1,45
 1216 -2 1216 -2 1154 -2 c 2,46,-1
 498 -2 l 2,47,48
 430 -2 430 -2 374 21 c 0,49,50
 345 33 345 33 319.5 48.5 c 128,-1,51
 294 64 294 64 269 89 c 0,21,22
908 1619 m 1,52,-1
 1071 1619 l 1,53,-1
 1071 1455 l 1,54,-1
 908 1455 l 1,55,-1
 908 1619 l 1,52,-1
581 1619 m 1,56,-1
 744 1619 l 1,57,-1
 744 1455 l 1,58,-1
 581 1455 l 1,59,-1
 581 1619 l 1,56,-1
EndSplineSet
EndChar

StartChar: tehmarbutafinal
Encoding: 65172 65172 107
Width: 1626
Flags: W
AnchorPoint: "ArabicBelow" 813 -252 basechar 0
AnchorPoint: "ArabicAbove" 813 1868 basechar 0
LayerCount: 2
Fore
SplineSet
370 1100 m 0,0,1
 323 1056 323 1056 323 994 c 2,2,-1
 323 315 l 2,3,4
 323 255 323 255 370 209.5 c 128,-1,5
 417 164 417 164 486 164 c 2,6,-1
 1142 164 l 2,7,8
 1179 164 1179 164 1204.5 174.5 c 128,-1,9
 1230 185 1230 185 1258 208 c 0,10,11
 1279 229 1279 229 1292 258.5 c 128,-1,12
 1305 288 1305 288 1305 315 c 2,13,-1
 1305 982 l 1,14,-1
 1305 994 l 2,15,16
 1305 1056 1305 1056 1258 1100.5 c 128,-1,17
 1211 1145 1211 1145 1142 1145 c 2,18,-1
 486 1145 l 2,19,20
 452 1145 452 1145 423 1134.5 c 128,-1,21
 394 1124 394 1124 370 1100 c 0,0,1
896 1618 m 1,22,-1
 1059 1618 l 1,23,-1
 1059 1454 l 1,24,-1
 896 1454 l 1,25,-1
 896 1618 l 1,22,-1
569 1618 m 1,26,-1
 732 1618 l 1,27,-1
 732 1454 l 1,28,-1
 569 1454 l 1,29,-1
 569 1618 l 1,26,-1
1371 91 m 2,30,31
 1329 49 1329 49 1268 24.5 c 128,-1,32
 1207 0 1207 0 1142 0 c 2,33,-1
 486 0 l 2,34,35
 418 0 418 0 362 23 c 0,36,37
 333 35 333 35 307.5 50.5 c 128,-1,38
 282 66 282 66 257 91 c 0,39,40
 212 135 212 135 185.5 194.5 c 128,-1,41
 159 254 159 254 159 315 c 2,42,-1
 159 994 l 2,43,44
 159 1059 159 1059 183.5 1116.5 c 128,-1,45
 208 1174 208 1174 253 1215 c 128,-1,46
 298 1256 298 1256 361.5 1282.5 c 128,-1,47
 425 1309 425 1309 486 1309 c 2,48,-1
 1142 1309 l 2,49,50
 1205 1309 1205 1309 1265 1286 c 128,-1,51
 1325 1263 1325 1263 1370 1220 c 128,-1,52
 1415 1177 1415 1177 1442 1117.5 c 128,-1,53
 1469 1058 1469 1058 1469 994 c 2,54,-1
 1469 982 l 1,55,-1
 1469 315 l 2,56,57
 1469 287 1469 287 1481 258 c 128,-1,58
 1493 229 1493 229 1515 208 c 0,59,60
 1564 162 1564 162 1633 162 c 1,61,-1
 1628 162 l 1,62,-1
 1633 162 l 1,63,-1
 1633 -2 l 1,64,-1
 1629 -2 l 1,65,-1
 1633 -2 l 1,66,67
 1566 -2 1566 -2 1508 22 c 128,-1,68
 1450 46 1450 46 1402 89 c 2,69,-1
 1386 106 l 1,70,-1
 1371 91 l 2,30,31
EndSplineSet
EndChar

StartChar: tehisolated
Encoding: 65173 65173 108
Width: 1967
Flags: W
AnchorPoint: "ArabicBelow" 983 -252 basechar 0
AnchorPoint: "ArabicAbove" 983 1869 basechar 0
LayerCount: 2
Fore
SplineSet
656 1142 m 1,0,-1
 491 1142 l 2,1,2
 423 1142 423 1142 374 1096 c 0,3,4
 351 1075 351 1075 339 1047.5 c 128,-1,5
 327 1020 327 1020 327 991 c 2,6,-1
 327 312 l 2,7,8
 327 281 327 281 339.5 253.5 c 128,-1,9
 352 226 352 226 375.5 205 c 128,-1,10
 399 184 399 184 428 172 c 128,-1,11
 457 160 457 160 491 160 c 2,12,-1
 1473 160 l 2,13,14
 1543 160 1543 160 1590 207 c 0,15,16
 1637 248 1637 248 1637 312 c 2,17,-1
 1637 1306 l 1,18,-1
 1800 1306 l 1,19,-1
 1800 312 l 2,20,21
 1800 247 1800 247 1774 189 c 128,-1,22
 1748 131 1748 131 1702 88 c 128,-1,23
 1656 45 1656 45 1598 21 c 0,24,25
 1566 8 1566 8 1537.5 3 c 128,-1,26
 1509 -2 1509 -2 1473 -2 c 2,27,-1
 491 -2 l 2,28,29
 424 -2 424 -2 364 23 c 128,-1,30
 304 48 304 48 259 90.5 c 128,-1,31
 214 133 214 133 189 191 c 128,-1,32
 164 249 164 249 164 312 c 2,33,-1
 164 991 l 2,34,35
 164 1055 164 1055 191 1114 c 128,-1,36
 218 1173 218 1173 262.5 1216 c 128,-1,37
 307 1259 307 1259 366.5 1282.5 c 128,-1,38
 426 1306 426 1306 491 1306 c 2,39,-1
 656 1306 l 1,40,-1
 656 1142 l 1,0,-1
1227 1619 m 1,41,-1
 1391 1619 l 1,42,-1
 1391 1456 l 1,43,-1
 1227 1456 l 1,44,-1
 1227 1619 l 1,41,-1
900 1619 m 1,45,-1
 1064 1619 l 1,46,-1
 1064 1456 l 1,47,-1
 900 1456 l 1,48,-1
 900 1619 l 1,45,-1
EndSplineSet
EndChar

StartChar: tehfinal
Encoding: 65174 65174 109
Width: 1962
Flags: W
AnchorPoint: "ArabicBelow" 981 -251 basechar 0
AnchorPoint: "ArabicAbove" 981 1872 basechar 0
LayerCount: 2
Fore
SplineSet
659 1309 m 1,0,-1
 659 1145 l 1,1,-1
 495 1145 l 2,2,3
 427 1145 427 1145 378 1099 c 0,4,5
 356 1078 356 1078 344 1052 c 128,-1,6
 332 1026 332 1026 332 994 c 2,7,-1
 332 315 l 2,8,9
 332 253 332 253 378 210 c 0,10,11
 428 163 428 163 495 163 c 2,12,-1
 1477 163 l 2,13,14
 1511 163 1511 163 1541 175 c 0,15,16
 1574 190 1574 190 1594 210 c 0,17,18
 1641 251 1641 251 1641 315 c 2,19,-1
 1641 1309 l 1,20,-1
 1804 1309 l 1,21,-1
 1804 313 l 2,22,23
 1804 253 1804 253 1851 208 c 0,24,25
 1875 186 1875 186 1905.5 174 c 128,-1,26
 1936 162 1936 162 1968 162 c 1,27,-1
 1963 162 l 1,28,-1
 1968 162 l 1,29,-1
 1968 -1 l 1,30,-1
 1964 -1 l 1,31,-1
 1968 -1 l 1,32,33
 1901 -1 1901 -1 1841.5 23.5 c 128,-1,34
 1782 48 1782 48 1739 90 c 2,35,-1
 1722 107 l 1,36,-1
 1707 92 l 2,37,38
 1662 49 1662 49 1602.5 25 c 128,-1,39
 1543 1 1543 1 1477 1 c 2,40,-1
 495 1 l 2,41,42
 429 1 429 1 369.5 25.5 c 128,-1,43
 310 50 310 50 265 92 c 0,44,45
 168 183 168 183 168 315 c 2,46,-1
 168 994 l 2,47,48
 168 1059 168 1059 195.5 1117 c 128,-1,49
 223 1175 223 1175 268.5 1218.5 c 128,-1,50
 314 1262 314 1262 373 1286.5 c 128,-1,51
 432 1311 432 1311 495 1309 c 2,52,-1
 659 1309 l 1,0,-1
1207 1459 m 1,53,-1
 1207 1622 l 1,54,-1
 1371 1622 l 1,55,-1
 1371 1459 l 1,56,-1
 1207 1459 l 1,53,-1
900 1459 m 1,57,-1
 900 1622 l 1,58,-1
 1064 1622 l 1,59,-1
 1064 1459 l 1,60,-1
 900 1459 l 1,57,-1
EndSplineSet
EndChar

StartChar: tehinitial
Encoding: 65175 65175 110
Width: 490
Flags: W
AnchorPoint: "ArabicBelow" 245 -253 basechar 0
AnchorPoint: "ArabicAbove" 245 1870 basechar 0
LayerCount: 2
Fore
SplineSet
166 1307 m 1,0,-1
 330 1307 l 1,1,-1
 330 311 l 2,2,3
 330 248 330 248 303.5 188.5 c 128,-1,4
 277 129 277 129 232 87 c 256,5,6
 187 45 187 45 127.5 21 c 128,-1,7
 68 -3 68 -3 2 -3 c 1,8,-1
 7 -3 l 1,9,-1
 2 -3 l 1,10,-1
 2 160 l 1,11,-1
 8 160 l 1,12,-1
 2 160 l 1,13,14
 71 160 71 160 120 206 c 0,15,16
 144 228 144 228 155 255 c 128,-1,17
 166 282 166 282 166 311 c 2,18,-1
 166 1307 l 1,0,-1
300 1456 m 1,19,-1
 300 1620 l 1,20,-1
 463 1620 l 1,21,-1
 463 1456 l 1,22,-1
 300 1456 l 1,19,-1
32 1456 m 1,23,-1
 32 1620 l 1,24,-1
 196 1620 l 1,25,-1
 196 1456 l 1,26,-1
 32 1456 l 1,23,-1
EndSplineSet
EndChar

StartChar: tehmedial
Encoding: 65176 65176 111
Width: 483
Flags: W
AnchorPoint: "ArabicBelow" 241 -251 basechar 0
AnchorPoint: "ArabicAbove" 241 1871 basechar 0
LayerCount: 2
Fore
SplineSet
163 1309 m 1,0,-1
 326 1309 l 1,1,-1
 326 313 l 2,2,3
 326 253 326 253 373 208 c 0,4,5
 419 162 419 162 490 162 c 1,6,-1
 485 162 l 1,7,-1
 490 162 l 1,8,-1
 490 -1 l 1,9,-1
 486 -1 l 1,10,-1
 490 -1 l 1,11,12
 423 -1 423 -1 363.5 23.5 c 128,-1,13
 304 48 304 48 261 90 c 2,14,-1
 245 106 l 1,15,-1
 229 90 l 2,16,17
 184 47 184 47 124.5 23 c 128,-1,18
 65 -1 65 -1 -1 -1 c 1,19,-1
 -1 162 l 1,20,-1
 3 162 l 1,21,-1
 -1 162 l 1,22,23
 69 162 69 162 115 208 c 0,24,25
 163 254 163 254 163 313 c 2,26,-1
 163 1309 l 1,0,-1
296 1457 m 1,27,-1
 296 1621 l 1,28,-1
 460 1621 l 1,29,-1
 460 1457 l 1,30,-1
 296 1457 l 1,27,-1
29 1457 m 1,31,-1
 29 1621 l 1,32,-1
 193 1621 l 1,33,-1
 193 1457 l 1,34,-1
 29 1457 l 1,31,-1
EndSplineSet
EndChar

StartChar: thehisolated
Encoding: 65177 65177 112
Width: 1967
Flags: W
AnchorPoint: "ArabicBelow" 983 -252 basechar 0
AnchorPoint: "ArabicAbove" 983 1883 basechar 0
LayerCount: 2
Fore
SplineSet
656 1142 m 1,0,-1
 491 1142 l 2,1,2
 423 1142 423 1142 374 1096 c 0,3,4
 351 1075 351 1075 339 1047.5 c 128,-1,5
 327 1020 327 1020 327 991 c 2,6,-1
 327 312 l 2,7,8
 327 281 327 281 339.5 253.5 c 128,-1,9
 352 226 352 226 375.5 205 c 128,-1,10
 399 184 399 184 428 172 c 128,-1,11
 457 160 457 160 491 160 c 2,12,-1
 1473 160 l 2,13,14
 1543 160 1543 160 1590 207 c 0,15,16
 1637 248 1637 248 1637 312 c 2,17,-1
 1637 1306 l 1,18,-1
 1800 1306 l 1,19,-1
 1800 312 l 2,20,21
 1800 247 1800 247 1774 189 c 128,-1,22
 1748 131 1748 131 1702 88 c 128,-1,23
 1656 45 1656 45 1598 21 c 0,24,25
 1566 8 1566 8 1537.5 3 c 128,-1,26
 1509 -2 1509 -2 1473 -2 c 2,27,-1
 491 -2 l 2,28,29
 424 -2 424 -2 364 23 c 128,-1,30
 304 48 304 48 259 90.5 c 128,-1,31
 214 133 214 133 189 191 c 128,-1,32
 164 249 164 249 164 312 c 2,33,-1
 164 991 l 2,34,35
 164 1055 164 1055 191 1114 c 128,-1,36
 218 1173 218 1173 262.5 1216 c 128,-1,37
 307 1259 307 1259 366.5 1282.5 c 128,-1,38
 426 1306 426 1306 491 1306 c 2,39,-1
 656 1306 l 1,40,-1
 656 1142 l 1,0,-1
1227 1469 m 1,41,-1
 1391 1469 l 1,42,-1
 1391 1306 l 1,43,-1
 1227 1306 l 1,44,-1
 1227 1469 l 1,41,-1
1227 1469 m 1,45,-1
 1064 1469 l 1,46,-1
 1064 1633 l 1,47,-1
 1227 1633 l 1,48,-1
 1227 1469 l 1,45,-1
900 1469 m 1,49,-1
 1064 1469 l 1,50,-1
 1064 1306 l 1,51,-1
 900 1306 l 1,52,-1
 900 1469 l 1,49,-1
EndSplineSet
EndChar

StartChar: thehfinal
Encoding: 65178 65178 113
Width: 1962
Flags: W
AnchorPoint: "ArabicBelow" 981 -251 basechar 0
AnchorPoint: "ArabicAbove" 981 1886 basechar 0
LayerCount: 2
Fore
SplineSet
1233 1472 m 1,0,-1
 1395 1472 l 1,1,-1
 1395 1309 l 1,2,-1
 1233 1309 l 1,3,-1
 1233 1472 l 1,0,-1
1233 1472 m 1,4,-1
 1068 1472 l 1,5,-1
 1068 1636 l 1,6,-1
 1233 1636 l 1,7,-1
 1233 1472 l 1,4,-1
906 1472 m 1,8,-1
 1068 1472 l 1,9,-1
 1068 1309 l 1,10,-1
 906 1309 l 1,11,-1
 906 1472 l 1,8,-1
659 1145 m 1,12,-1
 495 1145 l 2,13,14
 427 1145 427 1145 378 1099 c 0,15,16
 356 1078 356 1078 344 1052 c 128,-1,17
 332 1026 332 1026 332 994 c 2,18,-1
 332 315 l 2,19,20
 332 253 332 253 378 210 c 0,21,22
 402 187 402 187 431.5 175 c 128,-1,23
 461 163 461 163 495 163 c 2,24,-1
 1477 163 l 2,25,26
 1511 163 1511 163 1541 175 c 0,27,28
 1574 190 1574 190 1594 210 c 0,29,30
 1641 251 1641 251 1641 315 c 2,31,-1
 1641 1309 l 1,32,-1
 1804 1309 l 1,33,-1
 1804 313 l 2,34,35
 1804 253 1804 253 1851 208 c 0,36,37
 1875 186 1875 186 1905.5 174 c 128,-1,38
 1936 162 1936 162 1968 162 c 1,39,-1
 1963 162 l 1,40,-1
 1968 162 l 1,41,-1
 1968 -1 l 1,42,-1
 1964 -1 l 1,43,-1
 1968 -1 l 1,44,45
 1901 -1 1901 -1 1841.5 24 c 128,-1,46
 1782 49 1782 49 1739 90 c 2,47,-1
 1722 107 l 1,48,-1
 1707 92 l 2,49,50
 1663 49 1663 49 1602.5 25 c 128,-1,51
 1542 1 1542 1 1477 1 c 2,52,-1
 495 1 l 2,53,54
 430 1 430 1 369.5 25.5 c 128,-1,55
 309 50 309 50 265 92 c 0,56,57
 218 138 218 138 193 194 c 128,-1,58
 168 250 168 250 168 315 c 2,59,-1
 168 994 l 2,60,61
 168 1057 168 1057 195 1116 c 128,-1,62
 222 1175 222 1175 268.5 1219 c 128,-1,63
 315 1263 315 1263 373 1286 c 128,-1,64
 431 1309 431 1309 495 1309 c 2,65,-1
 659 1309 l 1,66,-1
 659 1145 l 1,12,-1
EndSplineSet
EndChar

StartChar: thehinitial
Encoding: 65179 65179 114
Width: 497
Flags: W
AnchorPoint: "ArabicBelow" 248 -253 basechar 0
AnchorPoint: "ArabicAbove" 248 1884 basechar 0
LayerCount: 2
Fore
SplineSet
325 1143 m 1,0,-1
 325 311 l 2,1,2
 325 246 325 246 298.5 187.5 c 128,-1,3
 272 129 272 129 228 87 c 128,-1,4
 184 45 184 45 123.5 21 c 128,-1,5
 63 -3 63 -3 -2 -3 c 1,6,-1
 -2 160 l 1,7,-1
 2 160 l 1,8,-1
 -2 160 l 1,9,10
 67 160 67 160 114.5 206 c 128,-1,11
 162 252 162 252 162 311 c 2,12,-1
 162 1143 l 1,13,-1
 325 1143 l 1,0,-1
325 1470 m 1,14,-1
 489 1470 l 1,15,-1
 489 1307 l 1,16,-1
 325 1307 l 1,17,-1
 325 1470 l 1,14,-1
325 1470 m 1,18,-1
 162 1470 l 1,19,-1
 162 1634 l 1,20,-1
 325 1634 l 1,21,-1
 325 1470 l 1,18,-1
-2 1470 m 1,22,-1
 162 1470 l 1,23,-1
 162 1307 l 1,24,-1
 -2 1307 l 1,25,-1
 -2 1470 l 1,22,-1
EndSplineSet
EndChar

StartChar: thehmedial
Encoding: 65180 65180 115
Width: 488
Flags: W
AnchorPoint: "ArabicBelow" 244 -251 basechar 0
AnchorPoint: "ArabicAbove" 244 1886 basechar 0
LayerCount: 2
Fore
SplineSet
330 1145 m 1,0,-1
 330 313 l 2,1,2
 330 250 330 250 377 208 c 0,3,4
 423 162 423 162 494 162 c 1,5,-1
 489 162 l 1,6,-1
 494 162 l 1,7,-1
 494 -1 l 1,8,-1
 490 -1 l 1,9,-1
 494 -1 l 1,10,11
 459 -1 459 -1 427.5 5 c 128,-1,12
 396 11 396 11 367 22 c 0,13,14
 308 48 308 48 264 90 c 2,15,-1
 247 106 l 1,16,-1
 232 90 l 2,17,18
 187 46 187 46 128 22 c 0,19,20
 96 9 96 9 67.5 4 c 128,-1,21
 39 -1 39 -1 3 -1 c 1,22,-1
 3 162 l 1,23,-1
 8 162 l 1,24,-1
 3 162 l 1,25,26
 74 162 74 162 120 208 c 0,27,28
 143 230 143 230 154.5 256.5 c 128,-1,29
 166 283 166 283 166 313 c 2,30,-1
 166 1145 l 1,31,-1
 330 1145 l 1,0,-1
330 1472 m 1,32,-1
 494 1472 l 1,33,-1
 494 1309 l 1,34,-1
 330 1309 l 1,35,-1
 330 1472 l 1,32,-1
330 1472 m 1,36,-1
 166 1472 l 1,37,-1
 166 1636 l 1,38,-1
 330 1636 l 1,39,-1
 330 1472 l 1,36,-1
3 1472 m 1,40,-1
 166 1472 l 1,41,-1
 166 1309 l 1,42,-1
 3 1309 l 1,43,-1
 3 1472 l 1,40,-1
EndSplineSet
EndChar

StartChar: jeemisolated
Encoding: 65181 65181 116
Width: 1659
Flags: W
AnchorPoint: "ArabicBelow" 829 -586 basechar 0
AnchorPoint: "ArabicAbove" 829 1554 basechar 0
LayerCount: 2
Fore
SplineSet
350 1304 m 1,0,-1
 1166 1304 l 2,1,2
 1231 1304 1231 1304 1289.5 1281 c 128,-1,3
 1348 1258 1348 1258 1394 1214 c 128,-1,4
 1440 1170 1440 1170 1466 1112 c 128,-1,5
 1492 1054 1492 1054 1492 990 c 2,6,-1
 1492 312 l 2,7,8
 1492 279 1492 279 1486 249.5 c 128,-1,9
 1480 220 1480 220 1466 190 c 0,10,11
 1442 132 1442 132 1397 91 c 128,-1,12
 1352 50 1352 50 1290 22 c 0,13,14
 1231 -2 1231 -2 1166 -2 c 2,15,-1
 1085 -2 l 1,16,-1
 513 -2 l 1,17,-1
 501 -2 l 2,18,19
 468 -2 468 -2 442 -14 c 128,-1,20
 416 -26 416 -26 395 -48 c 0,21,22
 350 -96 350 -96 350 -165 c 2,23,-1
 350 -170 l 1,24,-1
 350 -165 l 1,25,-1
 350 -160 l 1,26,-1
 350 -165 l 1,27,-1
 350 -328 l 1,28,-1
 187 -328 l 1,29,-1
 187 -165 l 1,30,-1
 187 -161 l 1,31,-1
 187 -165 l 1,32,-1
 187 -169 l 1,33,-1
 187 -165 l 2,34,35
 187 -102 187 -102 211 -40.5 c 128,-1,36
 235 21 235 21 278 65 c 128,-1,37
 321 109 321 109 379 136 c 0,38,39
 406 147 406 147 438 154 c 128,-1,40
 470 161 470 161 501 161 c 2,41,-1
 513 161 l 1,42,-1
 1085 161 l 1,43,-1
 1166 161 l 2,44,45
 1201 161 1201 161 1229.5 172.5 c 128,-1,46
 1258 184 1258 184 1282 207 c 0,47,48
 1329 251 1329 251 1329 312 c 2,49,-1
 1329 990 l 2,50,51
 1329 1051 1329 1051 1282 1095 c 0,52,53
 1260 1117 1260 1117 1228 1129 c 128,-1,54
 1196 1141 1196 1141 1166 1141 c 2,55,-1
 350 1141 l 1,56,-1
 350 1304 l 1,0,-1
840 -173 m 1,57,-1
 1003 -173 l 1,58,-1
 1003 -336 l 1,59,-1
 840 -336 l 1,60,-1
 840 -173 l 1,57,-1
EndSplineSet
EndChar

StartChar: jeemfinal
Encoding: 65182 65182 117
Width: 1650
Flags: W
AnchorPoint: "ArabicBelow" 825 -584 basechar 0
AnchorPoint: "ArabicAbove" 825 1556 basechar 0
LayerCount: 2
Fore
SplineSet
354 1306 m 1,0,-1
 1170 1306 l 2,1,2
 1235 1306 1235 1306 1293.5 1283 c 128,-1,3
 1352 1260 1352 1260 1398 1216 c 128,-1,4
 1444 1172 1444 1172 1470 1114 c 128,-1,5
 1496 1056 1496 1056 1496 992 c 2,6,-1
 1496 979 l 1,7,-1
 1496 314 l 2,8,9
 1496 297 1496 297 1498 284.5 c 128,-1,10
 1500 272 1500 272 1507 256 c 0,11,12
 1520 228 1520 228 1542 208 c 0,13,14
 1591 162 1591 162 1659 162 c 1,15,-1
 1655 162 l 1,16,-1
 1659 162 l 1,17,-1
 1659 -2 l 1,18,19
 1623 -2 1623 -2 1594.5 3 c 128,-1,20
 1566 8 1566 8 1534 21 c 0,21,22
 1479 44 1479 44 1430 90 c 2,23,24
 1421 96 1421 96 1414 106 c 1,25,-1
 1398 91 l 2,26,27
 1355 49 1355 49 1295 24.5 c 128,-1,28
 1235 0 1235 0 1170 0 c 2,29,-1
 1090 0 l 1,30,-1
 517 0 l 1,31,-1
 504 0 l 2,32,33
 474 0 474 0 447.5 -12 c 128,-1,34
 421 -24 421 -24 399 -46 c 0,35,36
 354 -94 354 -94 354 -163 c 2,37,-1
 354 -168 l 1,38,-1
 354 -163 l 1,39,-1
 354 -158 l 1,40,-1
 354 -163 l 1,41,-1
 354 -326 l 1,42,-1
 191 -326 l 1,43,-1
 191 -163 l 1,44,-1
 191 -159 l 1,45,-1
 191 -163 l 1,46,-1
 191 -167 l 1,47,-1
 191 -163 l 2,48,49
 191 -100 191 -100 215 -39 c 128,-1,50
 239 22 239 22 281 67 c 128,-1,51
 323 112 323 112 381.5 137.5 c 128,-1,52
 440 163 440 163 504 163 c 2,53,-1
 517 163 l 1,54,-1
 1090 163 l 1,55,-1
 1170 163 l 2,56,57
 1203 163 1203 163 1232.5 175 c 128,-1,58
 1262 187 1262 187 1286 209 c 0,59,60
 1333 253 1333 253 1333 314 c 2,61,-1
 1333 979 l 1,62,-1
 1333 992 l 2,63,64
 1333 1051 1333 1051 1285.5 1097 c 128,-1,65
 1238 1143 1238 1143 1170 1143 c 2,66,-1
 354 1143 l 1,67,-1
 354 1306 l 1,0,-1
843 -171 m 1,68,-1
 1007 -171 l 1,69,-1
 1007 -334 l 1,70,-1
 843 -334 l 1,71,-1
 843 -171 l 1,68,-1
EndSplineSet
EndChar

StartChar: jeeminitial
Encoding: 65183 65183 118
Width: 1470
Flags: W
AnchorPoint: "ArabicBelow" 735 -586 basechar 0
AnchorPoint: "ArabicAbove" 735 1554 basechar 0
LayerCount: 2
Fore
SplineSet
161 1304 m 1,0,-1
 977 1304 l 2,1,2
 1042 1304 1042 1304 1101 1280.5 c 128,-1,3
 1160 1257 1160 1257 1206.5 1213 c 128,-1,4
 1253 1169 1253 1169 1278.5 1111.5 c 128,-1,5
 1304 1054 1304 1054 1304 990 c 2,6,-1
 1304 312 l 2,7,8
 1304 279 1304 279 1298 249.5 c 128,-1,9
 1292 220 1292 220 1278 190 c 0,10,11
 1254 134 1254 134 1207 90 c 0,12,13
 1164 50 1164 50 1102 22 c 0,14,15
 1042 -2 1042 -2 977 -2 c 2,16,-1
 -2 -2 l 1,17,-1
 -2 161 l 1,18,-1
 977 161 l 2,19,20
 1013 161 1013 161 1042 172.5 c 128,-1,21
 1071 184 1071 184 1094 207 c 0,22,23
 1140 250 1140 250 1140 312 c 2,24,-1
 1140 990 l 2,25,26
 1140 1017 1140 1017 1128 1045 c 128,-1,27
 1116 1073 1116 1073 1094 1095 c 0,28,29
 1045 1141 1045 1141 977 1141 c 2,30,-1
 161 1141 l 1,31,-1
 161 1304 l 1,0,-1
651 -173 m 1,32,-1
 814 -173 l 1,33,-1
 814 -336 l 1,34,-1
 651 -336 l 1,35,-1
 651 -173 l 1,32,-1
EndSplineSet
EndChar

StartChar: jeemmedial
Encoding: 65184 65184 119
Width: 1460
Flags: W
AnchorPoint: "ArabicBelow" 730 -585 basechar 0
AnchorPoint: "ArabicAbove" 730 1555 basechar 0
LayerCount: 2
Fore
SplineSet
162 1305 m 1,0,-1
 978 1305 l 2,1,2
 1043 1305 1043 1305 1101.5 1282 c 128,-1,3
 1160 1259 1160 1259 1206 1215 c 128,-1,4
 1252 1171 1252 1171 1278 1113 c 128,-1,5
 1304 1055 1304 1055 1304 991 c 2,6,-1
 1304 978 l 1,7,-1
 1304 313 l 2,8,9
 1304 280 1304 280 1316 254 c 128,-1,10
 1328 228 1328 228 1350 207 c 0,11,12
 1399 161 1399 161 1467 161 c 1,13,-1
 1463 161 l 1,14,-1
 1467 161 l 1,15,-1
 1467 -3 l 1,16,17
 1399 -3 1399 -3 1342.5 20.5 c 128,-1,18
 1286 44 1286 44 1238 89 c 2,19,20
 1229 95 1229 95 1222 105 c 1,21,-1
 1206 90 l 2,22,23
 1163 48 1163 48 1103 23.5 c 128,-1,24
 1043 -1 1043 -1 978 -1 c 2,25,-1
 -1 -1 l 1,26,-1
 -1 162 l 1,27,-1
 978 162 l 2,28,29
 1011 162 1011 162 1040.5 174 c 128,-1,30
 1070 186 1070 186 1094 208 c 0,31,32
 1141 252 1141 252 1141 313 c 2,33,-1
 1141 978 l 1,34,-1
 1141 991 l 2,35,36
 1141 1052 1141 1052 1094 1096 c 0,37,38
 1072 1118 1072 1118 1040 1130 c 128,-1,39
 1008 1142 1008 1142 978 1142 c 2,40,-1
 162 1142 l 1,41,-1
 162 1305 l 1,0,-1
651 -172 m 1,42,-1
 815 -172 l 1,43,-1
 815 -335 l 1,44,-1
 651 -335 l 1,45,-1
 651 -172 l 1,42,-1
EndSplineSet
EndChar

StartChar: hahisolated
Encoding: 65185 65185 120
Width: 1659
Flags: W
AnchorPoint: "ArabicBelow" 829 -578 basechar 0
AnchorPoint: "ArabicAbove" 829 1554 basechar 0
LayerCount: 2
Fore
SplineSet
350 1304 m 1,0,-1
 1166 1304 l 2,1,2
 1231 1304 1231 1304 1289.5 1281 c 128,-1,3
 1348 1258 1348 1258 1394 1214 c 128,-1,4
 1440 1170 1440 1170 1466 1112 c 128,-1,5
 1492 1054 1492 1054 1492 990 c 2,6,-1
 1492 312 l 2,7,8
 1492 279 1492 279 1486 249.5 c 128,-1,9
 1480 220 1480 220 1466 190 c 0,10,11
 1442 132 1442 132 1397 91 c 128,-1,12
 1352 50 1352 50 1290 22 c 0,13,14
 1231 -2 1231 -2 1166 -2 c 2,15,-1
 1085 -2 l 1,16,-1
 513 -2 l 1,17,-1
 501 -2 l 2,18,19
 468 -2 468 -2 442 -14 c 128,-1,20
 416 -26 416 -26 395 -48 c 0,21,22
 350 -96 350 -96 350 -165 c 2,23,-1
 350 -170 l 1,24,-1
 350 -165 l 1,25,-1
 350 -160 l 1,26,-1
 350 -165 l 1,27,-1
 350 -328 l 1,28,-1
 187 -328 l 1,29,-1
 187 -165 l 1,30,-1
 187 -161 l 1,31,-1
 187 -165 l 1,32,-1
 187 -169 l 1,33,-1
 187 -165 l 2,34,35
 187 -102 187 -102 211 -40.5 c 128,-1,36
 235 21 235 21 278 65 c 128,-1,37
 321 109 321 109 379 136 c 0,38,39
 406 147 406 147 438 154 c 128,-1,40
 470 161 470 161 501 161 c 2,41,-1
 513 161 l 1,42,-1
 1085 161 l 1,43,-1
 1166 161 l 2,44,45
 1201 161 1201 161 1229.5 172.5 c 128,-1,46
 1258 184 1258 184 1282 207 c 0,47,48
 1329 251 1329 251 1329 312 c 2,49,-1
 1329 990 l 2,50,51
 1329 1051 1329 1051 1282 1095 c 0,52,53
 1260 1117 1260 1117 1228 1129 c 128,-1,54
 1196 1141 1196 1141 1166 1141 c 2,55,-1
 350 1141 l 1,56,-1
 350 1304 l 1,0,-1
EndSplineSet
EndChar

StartChar: hahfinal
Encoding: 65186 65186 121
Width: 1653
Flags: W
AnchorPoint: "ArabicBelow" 826 -576 basechar 0
AnchorPoint: "ArabicAbove" 826 1556 basechar 0
LayerCount: 2
Fore
SplineSet
354 1306 m 1,0,-1
 1170 1306 l 2,1,2
 1235 1306 1235 1306 1293.5 1283 c 128,-1,3
 1352 1260 1352 1260 1398 1216 c 128,-1,4
 1444 1172 1444 1172 1470 1114 c 128,-1,5
 1496 1056 1496 1056 1496 992 c 2,6,-1
 1496 979 l 1,7,-1
 1496 314 l 2,8,9
 1496 297 1496 297 1498 284.5 c 128,-1,10
 1500 272 1500 272 1507 256 c 0,11,12
 1520 228 1520 228 1542 208 c 0,13,14
 1591 162 1591 162 1659 162 c 1,15,-1
 1655 162 l 1,16,-1
 1659 162 l 1,17,-1
 1659 -2 l 1,18,19
 1623 -2 1623 -2 1594.5 3 c 128,-1,20
 1566 8 1566 8 1534 21 c 0,21,22
 1479 44 1479 44 1430 90 c 2,23,24
 1421 96 1421 96 1414 106 c 1,25,-1
 1398 91 l 2,26,27
 1355 49 1355 49 1295 24.5 c 128,-1,28
 1235 0 1235 0 1170 0 c 2,29,-1
 1090 0 l 1,30,-1
 517 0 l 1,31,-1
 504 0 l 2,32,33
 474 0 474 0 447.5 -12 c 128,-1,34
 421 -24 421 -24 399 -46 c 0,35,36
 354 -94 354 -94 354 -163 c 2,37,-1
 354 -168 l 1,38,-1
 354 -163 l 1,39,-1
 354 -158 l 1,40,-1
 354 -163 l 1,41,-1
 354 -326 l 1,42,-1
 191 -326 l 1,43,-1
 191 -163 l 1,44,-1
 191 -159 l 1,45,-1
 191 -163 l 1,46,-1
 191 -167 l 1,47,-1
 191 -163 l 2,48,49
 191 -100 191 -100 215 -39 c 128,-1,50
 239 22 239 22 281 67 c 128,-1,51
 323 112 323 112 381.5 137.5 c 128,-1,52
 440 163 440 163 504 163 c 2,53,-1
 517 163 l 1,54,-1
 1090 163 l 1,55,-1
 1170 163 l 2,56,57
 1203 163 1203 163 1232.5 175 c 128,-1,58
 1262 187 1262 187 1286 209 c 0,59,60
 1333 253 1333 253 1333 314 c 2,61,-1
 1333 979 l 1,62,-1
 1333 992 l 2,63,64
 1333 1051 1333 1051 1285.5 1097 c 128,-1,65
 1238 1143 1238 1143 1170 1143 c 2,66,-1
 354 1143 l 1,67,-1
 354 1306 l 1,0,-1
EndSplineSet
EndChar

StartChar: hahinitial
Encoding: 65187 65187 122
Width: 1470
Flags: W
AnchorPoint: "ArabicBelow" 735 -252 basechar 0
AnchorPoint: "ArabicAbove" 735 1554 basechar 0
LayerCount: 2
Fore
SplineSet
161 1304 m 1,0,-1
 977 1304 l 2,1,2
 1042 1304 1042 1304 1101 1280.5 c 128,-1,3
 1160 1257 1160 1257 1206.5 1213 c 128,-1,4
 1253 1169 1253 1169 1278.5 1111.5 c 128,-1,5
 1304 1054 1304 1054 1304 990 c 2,6,-1
 1304 312 l 2,7,8
 1304 279 1304 279 1298 249.5 c 128,-1,9
 1292 220 1292 220 1278 190 c 0,10,11
 1254 134 1254 134 1207 90 c 0,12,13
 1164 50 1164 50 1102 22 c 0,14,15
 1042 -2 1042 -2 977 -2 c 2,16,-1
 -2 -2 l 1,17,-1
 -2 161 l 1,18,-1
 977 161 l 2,19,20
 1013 161 1013 161 1042 172.5 c 128,-1,21
 1071 184 1071 184 1094 207 c 0,22,23
 1140 250 1140 250 1140 312 c 2,24,-1
 1140 990 l 2,25,26
 1140 1017 1140 1017 1128 1045 c 128,-1,27
 1116 1073 1116 1073 1094 1095 c 0,28,29
 1045 1141 1045 1141 977 1141 c 2,30,-1
 161 1141 l 1,31,-1
 161 1304 l 1,0,-1
EndSplineSet
EndChar

StartChar: hahmedial
Encoding: 65188 65188 123
Width: 1458
Flags: W
AnchorPoint: "ArabicBelow" 729 -253 basechar 0
AnchorPoint: "ArabicAbove" 729 1555 basechar 0
LayerCount: 2
Fore
SplineSet
162 1305 m 1,0,-1
 978 1305 l 2,1,2
 1043 1305 1043 1305 1101.5 1282 c 128,-1,3
 1160 1259 1160 1259 1206 1215 c 128,-1,4
 1252 1171 1252 1171 1278 1113 c 128,-1,5
 1304 1055 1304 1055 1304 991 c 2,6,-1
 1304 978 l 1,7,-1
 1304 313 l 2,8,9
 1304 280 1304 280 1316 254 c 128,-1,10
 1328 228 1328 228 1350 207 c 0,11,12
 1399 161 1399 161 1467 161 c 1,13,-1
 1463 161 l 1,14,-1
 1467 161 l 1,15,-1
 1467 -3 l 1,16,17
 1399 -3 1399 -3 1342.5 20.5 c 128,-1,18
 1286 44 1286 44 1238 89 c 2,19,20
 1229 95 1229 95 1222 105 c 1,21,-1
 1206 90 l 2,22,23
 1163 48 1163 48 1103 23.5 c 128,-1,24
 1043 -1 1043 -1 978 -1 c 2,25,-1
 -1 -1 l 1,26,-1
 -1 162 l 1,27,-1
 978 162 l 2,28,29
 1011 162 1011 162 1040.5 174 c 128,-1,30
 1070 186 1070 186 1094 208 c 0,31,32
 1141 252 1141 252 1141 313 c 2,33,-1
 1141 978 l 1,34,-1
 1141 991 l 2,35,36
 1141 1052 1141 1052 1094 1096 c 0,37,38
 1072 1118 1072 1118 1040 1130 c 128,-1,39
 1008 1142 1008 1142 978 1142 c 2,40,-1
 162 1142 l 1,41,-1
 162 1305 l 1,0,-1
EndSplineSet
EndChar

StartChar: khahisolated
Encoding: 65189 65189 124
Width: 1659
Flags: W
AnchorPoint: "ArabicBelow" 829 -578 basechar 0
AnchorPoint: "ArabicAbove" 829 1880 basechar 0
LayerCount: 2
Fore
SplineSet
350 1304 m 1,0,-1
 1166 1304 l 2,1,2
 1231 1304 1231 1304 1289.5 1281 c 128,-1,3
 1348 1258 1348 1258 1394 1214 c 128,-1,4
 1440 1170 1440 1170 1466 1112 c 128,-1,5
 1492 1054 1492 1054 1492 990 c 2,6,-1
 1492 312 l 2,7,8
 1492 279 1492 279 1486 249.5 c 128,-1,9
 1480 220 1480 220 1466 190 c 0,10,11
 1442 132 1442 132 1397 91 c 128,-1,12
 1352 50 1352 50 1290 22 c 0,13,14
 1231 -2 1231 -2 1166 -2 c 2,15,-1
 1085 -2 l 1,16,-1
 513 -2 l 1,17,-1
 501 -2 l 2,18,19
 468 -2 468 -2 442 -14 c 128,-1,20
 416 -26 416 -26 395 -48 c 0,21,22
 350 -96 350 -96 350 -165 c 2,23,-1
 350 -170 l 1,24,-1
 350 -165 l 1,25,-1
 350 -160 l 1,26,-1
 350 -165 l 1,27,-1
 350 -328 l 1,28,-1
 187 -328 l 1,29,-1
 187 -165 l 1,30,-1
 187 -161 l 1,31,-1
 187 -165 l 1,32,-1
 187 -169 l 1,33,-1
 187 -165 l 2,34,35
 187 -102 187 -102 211 -40.5 c 128,-1,36
 235 21 235 21 278 65 c 128,-1,37
 321 109 321 109 379 136 c 0,38,39
 406 147 406 147 438 154 c 128,-1,40
 470 161 470 161 501 161 c 2,41,-1
 513 161 l 1,42,-1
 1085 161 l 1,43,-1
 1166 161 l 2,44,45
 1201 161 1201 161 1229.5 172.5 c 128,-1,46
 1258 184 1258 184 1282 207 c 0,47,48
 1329 251 1329 251 1329 312 c 2,49,-1
 1329 990 l 2,50,51
 1329 1051 1329 1051 1282 1095 c 0,52,53
 1260 1117 1260 1117 1228 1129 c 128,-1,54
 1196 1141 1196 1141 1166 1141 c 2,55,-1
 350 1141 l 1,56,-1
 350 1304 l 1,0,-1
840 1630 m 1,57,-1
 1003 1630 l 1,58,-1
 1003 1467 l 1,59,-1
 840 1467 l 1,60,-1
 840 1630 l 1,57,-1
EndSplineSet
EndChar

StartChar: khahfinal
Encoding: 65190 65190 125
Width: 1653
Flags: W
AnchorPoint: "ArabicBelow" 826 -576 basechar 0
AnchorPoint: "ArabicAbove" 826 1868 basechar 0
LayerCount: 2
Fore
SplineSet
354 1306 m 1,0,-1
 1170 1306 l 2,1,2
 1235 1306 1235 1306 1293.5 1283 c 128,-1,3
 1352 1260 1352 1260 1398 1216 c 128,-1,4
 1444 1172 1444 1172 1470 1114 c 128,-1,5
 1496 1056 1496 1056 1496 992 c 2,6,-1
 1496 979 l 1,7,-1
 1496 314 l 2,8,9
 1496 297 1496 297 1498 284.5 c 128,-1,10
 1500 272 1500 272 1507 256 c 0,11,12
 1520 228 1520 228 1542 208 c 0,13,14
 1591 162 1591 162 1659 162 c 1,15,-1
 1655 162 l 1,16,-1
 1659 162 l 1,17,-1
 1659 -2 l 1,18,19
 1623 -2 1623 -2 1594.5 3 c 128,-1,20
 1566 8 1566 8 1534 21 c 0,21,22
 1479 44 1479 44 1430 90 c 2,23,24
 1421 96 1421 96 1414 106 c 1,25,-1
 1398 91 l 2,26,27
 1355 49 1355 49 1295 24.5 c 128,-1,28
 1235 0 1235 0 1170 0 c 2,29,-1
 1090 0 l 1,30,-1
 517 0 l 1,31,-1
 504 0 l 2,32,33
 474 0 474 0 447.5 -12 c 128,-1,34
 421 -24 421 -24 399 -46 c 0,35,36
 354 -94 354 -94 354 -163 c 2,37,-1
 354 -168 l 1,38,-1
 354 -163 l 1,39,-1
 354 -158 l 1,40,-1
 354 -163 l 1,41,-1
 354 -326 l 1,42,-1
 191 -326 l 1,43,-1
 191 -163 l 1,44,-1
 191 -159 l 1,45,-1
 191 -163 l 1,46,-1
 191 -167 l 1,47,-1
 191 -163 l 2,48,49
 191 -100 191 -100 215 -39 c 128,-1,50
 239 22 239 22 281 67 c 128,-1,51
 323 112 323 112 381.5 137.5 c 128,-1,52
 440 163 440 163 504 163 c 2,53,-1
 517 163 l 1,54,-1
 1090 163 l 1,55,-1
 1170 163 l 2,56,57
 1203 163 1203 163 1232.5 175 c 128,-1,58
 1262 187 1262 187 1286 209 c 0,59,60
 1333 253 1333 253 1333 314 c 2,61,-1
 1333 979 l 1,62,-1
 1333 992 l 2,63,64
 1333 1051 1333 1051 1285.5 1097 c 128,-1,65
 1238 1143 1238 1143 1170 1143 c 2,66,-1
 354 1143 l 1,67,-1
 354 1306 l 1,0,-1
843 1618 m 1,68,-1
 1007 1618 l 1,69,-1
 1007 1455 l 1,70,-1
 843 1455 l 1,71,-1
 843 1618 l 1,68,-1
EndSplineSet
EndChar

StartChar: khahinitial
Encoding: 65191 65191 126
Width: 1470
Flags: W
AnchorPoint: "ArabicBelow" 735 -252 basechar 0
AnchorPoint: "ArabicAbove" 735 1868 basechar 0
LayerCount: 2
Fore
SplineSet
161 1304 m 1,0,-1
 977 1304 l 2,1,2
 1042 1304 1042 1304 1101 1280.5 c 128,-1,3
 1160 1257 1160 1257 1206.5 1213 c 128,-1,4
 1253 1169 1253 1169 1278.5 1111.5 c 128,-1,5
 1304 1054 1304 1054 1304 990 c 2,6,-1
 1304 312 l 2,7,8
 1304 279 1304 279 1298 249.5 c 128,-1,9
 1292 220 1292 220 1278 190 c 0,10,11
 1254 134 1254 134 1207 90 c 0,12,13
 1164 50 1164 50 1102 22 c 0,14,15
 1042 -2 1042 -2 977 -2 c 2,16,-1
 -2 -2 l 1,17,-1
 -2 161 l 1,18,-1
 977 161 l 2,19,20
 1013 161 1013 161 1042 172.5 c 128,-1,21
 1071 184 1071 184 1094 207 c 0,22,23
 1140 250 1140 250 1140 312 c 2,24,-1
 1140 990 l 2,25,26
 1140 1017 1140 1017 1128 1045 c 128,-1,27
 1116 1073 1116 1073 1094 1095 c 0,28,29
 1045 1141 1045 1141 977 1141 c 2,30,-1
 161 1141 l 1,31,-1
 161 1304 l 1,0,-1
651 1618 m 1,32,-1
 814 1618 l 1,33,-1
 814 1455 l 1,34,-1
 651 1455 l 1,35,-1
 651 1618 l 1,32,-1
EndSplineSet
EndChar

StartChar: khahmedial
Encoding: 65192 65192 127
Width: 1460
Flags: W
AnchorPoint: "ArabicBelow" 730 -253 basechar 0
AnchorPoint: "ArabicAbove" 730 1867 basechar 0
LayerCount: 2
Fore
SplineSet
162 1305 m 1,0,-1
 978 1305 l 2,1,2
 1043 1305 1043 1305 1101.5 1282 c 128,-1,3
 1160 1259 1160 1259 1206 1215 c 128,-1,4
 1252 1171 1252 1171 1278 1113 c 128,-1,5
 1304 1055 1304 1055 1304 991 c 2,6,-1
 1304 978 l 1,7,-1
 1304 313 l 2,8,9
 1304 280 1304 280 1316 254 c 128,-1,10
 1328 228 1328 228 1350 207 c 0,11,12
 1399 161 1399 161 1467 161 c 1,13,-1
 1463 161 l 1,14,-1
 1467 161 l 1,15,-1
 1467 -3 l 1,16,17
 1399 -3 1399 -3 1342.5 20.5 c 128,-1,18
 1286 44 1286 44 1238 89 c 2,19,20
 1229 95 1229 95 1222 105 c 1,21,-1
 1206 90 l 2,22,23
 1163 48 1163 48 1103 23.5 c 128,-1,24
 1043 -1 1043 -1 978 -1 c 2,25,-1
 -1 -1 l 1,26,-1
 -1 162 l 1,27,-1
 978 162 l 2,28,29
 1011 162 1011 162 1040.5 174 c 128,-1,30
 1070 186 1070 186 1094 208 c 0,31,32
 1141 252 1141 252 1141 313 c 2,33,-1
 1141 978 l 1,34,-1
 1141 991 l 2,35,36
 1141 1052 1141 1052 1094 1096 c 0,37,38
 1072 1118 1072 1118 1040 1130 c 128,-1,39
 1008 1142 1008 1142 978 1142 c 2,40,-1
 162 1142 l 1,41,-1
 162 1305 l 1,0,-1
651 1617 m 1,42,-1
 815 1617 l 1,43,-1
 815 1454 l 1,44,-1
 651 1454 l 1,45,-1
 651 1617 l 1,42,-1
EndSplineSet
EndChar

StartChar: dalisolated
Encoding: 65193 65193 128
Width: 973
Flags: W
AnchorPoint: "ArabicBelow" 486 -251 basechar 0
AnchorPoint: "ArabicAbove" 486 1557 basechar 0
LayerCount: 2
Fore
SplineSet
315 1307 m 1,0,-1
 480 1307 l 2,1,2
 544 1307 544 1307 603.5 1282.5 c 128,-1,3
 663 1258 663 1258 709 1215 c 128,-1,4
 755 1172 755 1172 781 1114 c 128,-1,5
 807 1056 807 1056 807 992 c 2,6,-1
 807 313 l 2,7,8
 807 281 807 281 802 255.5 c 128,-1,9
 797 230 797 230 794 220.5 c 128,-1,10
 791 211 791 211 781 191 c 0,11,12
 757 133 757 133 712 91 c 128,-1,13
 667 49 667 49 607 24 c 128,-1,14
 547 -1 547 -1 480 -1 c 2,15,-1
 153 -1 l 1,16,-1
 153 161 l 1,17,-1
 480 161 l 2,18,19
 550 161 550 161 596 205.5 c 128,-1,20
 642 250 642 250 642 313 c 2,21,-1
 642 992 l 2,22,23
 642 1022 642 1022 630 1049 c 0,24,25
 621 1075 621 1075 597 1097 c 0,26,27
 548 1143 548 1143 480 1143 c 2,28,-1
 315 1143 l 1,29,-1
 315 1307 l 1,0,-1
EndSplineSet
EndChar

StartChar: dalfinal
Encoding: 65194 65194 129
Width: 973
Flags: W
AnchorPoint: "ArabicBelow" 486 -250 basechar 0
AnchorPoint: "ArabicAbove" 486 1560 basechar 0
LayerCount: 2
Fore
SplineSet
319 1310 m 1,0,-1
 483 1310 l 2,1,2
 546 1310 546 1310 606 1286 c 128,-1,3
 666 1262 666 1262 713 1218 c 0,4,5
 757 1177 757 1177 783.5 1118 c 128,-1,6
 810 1059 810 1059 810 995 c 2,7,-1
 810 982 l 1,8,-1
 810 316 l 2,9,10
 810 287 810 287 822 259.5 c 128,-1,11
 834 232 834 232 856 208 c 0,12,13
 877 188 877 188 908 174 c 0,14,15
 938 162 938 162 974 162 c 1,16,-1
 969 162 l 1,17,-1
 974 162 l 1,18,-1
 974 0 l 1,19,-1
 970 0 l 1,20,-1
 974 0 l 1,21,22
 956 0 956 0 940 1 c 128,-1,23
 924 2 924 2 903 6 c 128,-1,24
 882 10 882 10 851 22.5 c 128,-1,25
 820 35 820 35 794.5 50.5 c 128,-1,26
 769 66 769 66 744 91 c 2,27,-1
 727 108 l 1,28,-1
 713 93 l 2,29,30
 673 53 673 53 608 25 c 0,31,32
 550 2 550 2 483 2 c 2,33,-1
 156 2 l 1,34,-1
 156 164 l 1,35,-1
 483 164 l 2,36,37
 553 164 553 164 600 211 c 0,38,39
 646 252 646 252 646 316 c 2,40,-1
 646 982 l 1,41,-1
 646 995 l 2,42,43
 646 1025 646 1025 634.5 1052.5 c 128,-1,44
 623 1080 623 1080 600 1100 c 0,45,46
 554 1146 554 1146 483 1146 c 2,47,-1
 319 1146 l 1,48,-1
 319 1310 l 1,0,-1
EndSplineSet
EndChar

StartChar: thalisolated
Encoding: 65195 65195 130
Width: 973
Flags: W
AnchorPoint: "ArabicBelow" 486 -251 basechar 0
AnchorPoint: "ArabicAbove" 486 1868 basechar 0
LayerCount: 2
Fore
SplineSet
315 1307 m 1,0,-1
 480 1307 l 2,1,2
 544 1307 544 1307 603.5 1282.5 c 128,-1,3
 663 1258 663 1258 709 1215 c 128,-1,4
 755 1172 755 1172 781 1114 c 128,-1,5
 807 1056 807 1056 807 992 c 2,6,-1
 807 313 l 2,7,8
 807 281 807 281 802 255.5 c 128,-1,9
 797 230 797 230 794 220.5 c 128,-1,10
 791 211 791 211 781 191 c 0,11,12
 757 133 757 133 712 91 c 128,-1,13
 667 49 667 49 607 24 c 128,-1,14
 547 -1 547 -1 480 -1 c 2,15,-1
 153 -1 l 1,16,-1
 153 161 l 1,17,-1
 480 161 l 2,18,19
 550 161 550 161 596 205.5 c 128,-1,20
 642 250 642 250 642 313 c 2,21,-1
 642 992 l 2,22,23
 642 1022 642 1022 630 1049 c 0,24,25
 621 1075 621 1075 597 1097 c 0,26,27
 548 1143 548 1143 480 1143 c 2,28,-1
 315 1143 l 1,29,-1
 315 1307 l 1,0,-1
315 1618 m 1,30,-1
 480 1618 l 1,31,-1
 480 1454 l 1,32,-1
 315 1454 l 1,33,-1
 315 1618 l 1,30,-1
EndSplineSet
EndChar

StartChar: thalfinal
Encoding: 65196 65196 131
Width: 965
Flags: W
AnchorPoint: "ArabicBelow" 482 -250 basechar 0
AnchorPoint: "ArabicAbove" 482 1870 basechar 0
LayerCount: 2
Fore
SplineSet
319 1310 m 1,0,-1
 483 1310 l 2,1,2
 546 1310 546 1310 606 1286 c 128,-1,3
 666 1262 666 1262 713 1218 c 0,4,5
 757 1177 757 1177 783.5 1118 c 128,-1,6
 810 1059 810 1059 810 995 c 2,7,-1
 810 982 l 1,8,-1
 810 316 l 2,9,10
 810 287 810 287 822 259.5 c 128,-1,11
 834 232 834 232 856 208 c 0,12,13
 877 188 877 188 908 174 c 0,14,15
 938 162 938 162 974 162 c 1,16,-1
 969 162 l 1,17,-1
 974 162 l 1,18,-1
 974 0 l 1,19,-1
 970 0 l 1,20,-1
 974 0 l 1,21,22
 956 0 956 0 940 1 c 128,-1,23
 924 2 924 2 903 6 c 128,-1,24
 882 10 882 10 851 22.5 c 128,-1,25
 820 35 820 35 794.5 50.5 c 128,-1,26
 769 66 769 66 744 91 c 2,27,-1
 727 108 l 1,28,-1
 713 93 l 2,29,30
 673 53 673 53 608 25 c 0,31,32
 550 2 550 2 483 2 c 2,33,-1
 156 2 l 1,34,-1
 156 164 l 1,35,-1
 483 164 l 2,36,37
 553 164 553 164 600 211 c 0,38,39
 646 252 646 252 646 316 c 2,40,-1
 646 982 l 1,41,-1
 646 995 l 2,42,43
 646 1025 646 1025 634.5 1052.5 c 128,-1,44
 623 1080 623 1080 600 1100 c 0,45,46
 554 1146 554 1146 483 1146 c 2,47,-1
 319 1146 l 1,48,-1
 319 1310 l 1,0,-1
319 1620 m 1,49,-1
 483 1620 l 1,50,-1
 483 1456 l 1,51,-1
 319 1456 l 1,52,-1
 319 1620 l 1,49,-1
EndSplineSet
EndChar

StartChar: rehisolated
Encoding: 65197 65197 132
Width: 658
Flags: W
AnchorPoint: "ArabicBelow" 329 -579 basechar 0
AnchorPoint: "ArabicAbove" 329 1557 basechar 0
LayerCount: 2
Fore
SplineSet
478 1307 m 1,0,-1
 478 -15 l 2,1,2
 478 -80 478 -80 451 -138.5 c 128,-1,3
 424 -197 424 -197 380 -239.5 c 128,-1,4
 336 -282 336 -282 275.5 -305.5 c 128,-1,5
 215 -329 215 -329 151 -329 c 1,6,-1
 155 -329 l 1,7,-1
 151 -329 l 1,8,-1
 151 -166 l 1,9,-1
 156 -166 l 1,10,-1
 151 -166 l 1,11,12
 182 -166 182 -166 215 -153 c 128,-1,13
 248 -140 248 -140 268 -120 c 0,14,15
 315 -76 315 -76 315 -15 c 2,16,-1
 315 1307 l 1,17,-1
 478 1307 l 1,0,-1
EndSplineSet
EndChar

StartChar: rehfinal
Encoding: 65198 65198 133
Width: 649
Flags: W
AnchorPoint: "ArabicBelow" 324 -577 basechar 0
AnchorPoint: "ArabicAbove" 324 1559 basechar 0
LayerCount: 2
Fore
SplineSet
492 983 m 1,0,-1
 492 311 l 2,1,2
 492 250 492 250 539 208 c 0,3,4
 562 186 562 186 593.5 174 c 128,-1,5
 625 162 625 162 656 162 c 1,6,-1
 652 162 l 1,7,-1
 656 162 l 1,8,-1
 656 -1 l 1,9,10
 567 -1 567 -1 492 41 c 1,11,-1
 492 -13 l 2,12,13
 492 -78 492 -78 465 -136.5 c 128,-1,14
 438 -195 438 -195 394 -237.5 c 128,-1,15
 350 -280 350 -280 289.5 -303.5 c 128,-1,16
 229 -327 229 -327 165 -327 c 1,17,-1
 169 -327 l 1,18,-1
 165 -327 l 1,19,-1
 165 -164 l 1,20,-1
 170 -164 l 1,21,-1
 165 -164 l 1,22,23
 179 -164 179 -164 197 -160 c 128,-1,24
 215 -156 215 -156 228 -151 c 0,25,26
 262 -137 262 -137 283 -117 c 128,-1,27
 304 -97 304 -97 316 -69 c 0,28,29
 329 -43 329 -43 329 -13 c 2,30,-1
 329 313 l 1,31,-1
 329 983 l 1,32,-1
 329 1309 l 1,33,-1
 492 1309 l 1,34,-1
 492 983 l 1,0,-1
EndSplineSet
EndChar

StartChar: zainisolated
Encoding: 65199 65199 134
Width: 658
Flags: W
AnchorPoint: "ArabicBelow" 329 -579 basechar 0
AnchorPoint: "ArabicAbove" 329 1868 basechar 0
LayerCount: 2
Fore
SplineSet
478 1307 m 1,0,-1
 478 -15 l 2,1,2
 478 -80 478 -80 451 -138.5 c 128,-1,3
 424 -197 424 -197 380 -239.5 c 128,-1,4
 336 -282 336 -282 275.5 -305.5 c 128,-1,5
 215 -329 215 -329 151 -329 c 1,6,-1
 155 -329 l 1,7,-1
 151 -329 l 1,8,-1
 151 -166 l 1,9,-1
 156 -166 l 1,10,-1
 151 -166 l 1,11,12
 182 -166 182 -166 215 -153 c 128,-1,13
 248 -140 248 -140 268 -120 c 0,14,15
 315 -76 315 -76 315 -15 c 2,16,-1
 315 1307 l 1,17,-1
 478 1307 l 1,0,-1
319 1618 m 1,18,-1
 482 1618 l 1,19,-1
 482 1454 l 1,20,-1
 319 1454 l 1,21,-1
 319 1618 l 1,18,-1
EndSplineSet
EndChar

StartChar: zainfinal
Encoding: 65200 65200 135
Width: 649
Flags: W
AnchorPoint: "ArabicBelow" 324 -577 basechar 0
AnchorPoint: "ArabicAbove" 324 1869 basechar 0
LayerCount: 2
Fore
SplineSet
329 1619 m 1,0,-1
 492 1619 l 1,1,-1
 492 1455 l 1,2,-1
 329 1455 l 1,3,-1
 329 1619 l 1,0,-1
492 311 m 2,4,5
 492 250 492 250 539 208 c 0,6,7
 562 186 562 186 593.5 174 c 128,-1,8
 625 162 625 162 656 162 c 1,9,-1
 652 162 l 1,10,-1
 656 162 l 1,11,-1
 656 -1 l 1,12,13
 567 -1 567 -1 492 41 c 1,14,-1
 492 -13 l 2,15,16
 492 -78 492 -78 465 -136.5 c 128,-1,17
 438 -195 438 -195 394 -237.5 c 128,-1,18
 350 -280 350 -280 289.5 -303.5 c 128,-1,19
 229 -327 229 -327 165 -327 c 1,20,-1
 169 -327 l 1,21,-1
 165 -327 l 1,22,-1
 165 -164 l 1,23,-1
 170 -164 l 1,24,-1
 165 -164 l 1,25,26
 179 -164 179 -164 197 -160 c 128,-1,27
 215 -156 215 -156 228 -151 c 0,28,29
 262 -137 262 -137 283 -117 c 128,-1,30
 304 -97 304 -97 316 -69 c 0,31,32
 329 -43 329 -43 329 -13 c 2,33,-1
 329 313 l 1,34,-1
 329 1309 l 1,35,-1
 492 1309 l 1,36,-1
 492 311 l 2,4,5
EndSplineSet
EndChar

StartChar: seenisolated
Encoding: 65201 65201 136
Width: 2779
Flags: W
AnchorPoint: "ArabicBelow" 1389 -254 basechar 0
AnchorPoint: "ArabicAbove" 1389 1554 basechar 0
LayerCount: 2
Fore
SplineSet
654 1141 m 1,0,-1
 491 1141 l 2,1,2
 461 1141 461 1141 429 1129 c 0,3,4
 397 1115 397 1115 375 1095 c 0,5,6
 328 1051 328 1051 328 990 c 2,7,-1
 328 312 l 2,8,9
 328 251 328 251 375 207 c 0,10,11
 399 184 399 184 427 172.5 c 128,-1,12
 455 161 455 161 491 161 c 2,13,-1
 1307 161 l 2,14,15
 1342 161 1342 161 1372.5 173.5 c 128,-1,16
 1403 186 1403 186 1424.5 207 c 128,-1,17
 1446 228 1446 228 1458 256.5 c 128,-1,18
 1470 285 1470 285 1470 312 c 2,19,-1
 1470 1304 l 1,20,-1
 1634 1304 l 1,21,-1
 1634 310 l 2,22,23
 1634 250 1634 250 1681 206 c 0,24,25
 1705 184 1705 184 1735.5 172 c 128,-1,26
 1766 160 1766 160 1797 160 c 2,27,-1
 1802 160 l 1,28,-1
 1797 160 l 1,29,-1
 1792 160 l 1,30,-1
 1797 160 l 2,31,32
 1865 160 1865 160 1914 206 c 0,33,34
 1936 228 1936 228 1948 254.5 c 128,-1,35
 1960 281 1960 281 1960 310 c 2,36,-1
 1960 1304 l 1,37,-1
 2123 1304 l 1,38,-1
 2123 310 l 2,39,40
 2123 250 2123 250 2170 206 c 0,41,42
 2193 183 2193 183 2221.5 171.5 c 128,-1,43
 2250 160 2250 160 2286 160 c 2,44,-1
 2291 160 l 1,45,-1
 2286 160 l 1,46,-1
 2282 160 l 1,47,-1
 2286 160 l 2,48,49
 2357 160 2357 160 2403 206 c 0,50,51
 2425 228 2425 228 2437.5 254.5 c 128,-1,52
 2450 281 2450 281 2450 310 c 2,53,-1
 2450 1304 l 1,54,-1
 2613 1304 l 1,55,-1
 2613 310 l 2,56,57
 2613 246 2613 246 2587.5 188.5 c 128,-1,58
 2562 131 2562 131 2515 87 c 128,-1,59
 2468 43 2468 43 2411 19 c 0,60,61
 2378 5 2378 5 2350 1 c 0,62,63
 2326 -4 2326 -4 2286 -4 c 1,64,-1
 2290 -4 l 1,65,-1
 2286 -4 l 2,66,67
 2255 -4 2255 -4 2221.5 3 c 128,-1,68
 2188 10 2188 10 2160 21 c 0,69,70
 2099 48 2099 48 2058 88 c 2,71,72
 2051 92 2051 92 2042 104 c 1,73,74
 2032 91 2032 91 2026 88 c 2,75,76
 1978 43 1978 43 1922 19.5 c 128,-1,77
 1866 -4 1866 -4 1797 -4 c 1,78,-1
 1801 -4 l 1,79,-1
 1797 -4 l 2,80,81
 1733 -4 1733 -4 1670 21 c 0,82,83
 1609 48 1609 48 1568 88 c 2,84,-1
 1552 104 l 1,85,-1
 1537 88 l 2,86,87
 1489 43 1489 43 1432 19 c 0,88,89
 1399 5 1399 5 1371 1 c 0,90,91
 1347 -4 1347 -4 1307 -4 c 2,92,-1
 491 -4 l 2,93,94
 426 -2 426 -2 366 22 c 0,95,96
 304 50 304 50 259.5 91.5 c 128,-1,97
 215 133 215 133 190 189.5 c 128,-1,98
 165 246 165 246 165 312 c 2,99,-1
 165 990 l 2,100,101
 165 1053 165 1053 192.5 1113.5 c 128,-1,102
 220 1174 220 1174 262 1213 c 0,103,104
 310 1258 310 1258 367 1281 c 128,-1,105
 424 1304 424 1304 491 1304 c 2,106,-1
 654 1304 l 1,107,-1
 654 1141 l 1,0,-1
EndSplineSet
EndChar

StartChar: seenfinal
Encoding: 65202 65202 137
Width: 2776
Flags: W
AnchorPoint: "ArabicBelow" 1388 -252 basechar 0
AnchorPoint: "ArabicAbove" 1388 1556 basechar 0
LayerCount: 2
Fore
SplineSet
2521 90 m 2,0,1
 2480 50 2480 50 2418 23 c 0,2,3
 2390 12 2390 12 2356.5 5 c 128,-1,4
 2323 -2 2323 -2 2292 -2 c 1,5,-1
 2296 -2 l 1,6,-1
 2292 -2 l 2,7,8
 2223 -2 2223 -2 2168 21 c 128,-1,9
 2113 44 2113 44 2063 90 c 2,10,11
 2055 95 2055 95 2048 106 c 1,12,-1
 2031 90 l 2,13,14
 1990 50 1990 50 1929 23 c 0,15,16
 1901 12 1901 12 1867.5 5 c 128,-1,17
 1834 -2 1834 -2 1803 -2 c 2,18,-1
 1799 -2 l 1,19,-1
 1803 -2 l 1,20,-1
 1807 -2 l 1,21,-1
 1803 -2 l 2,22,23
 1785 -2 1785 -2 1769 -1 c 128,-1,24
 1753 0 1753 0 1732 4 c 128,-1,25
 1711 8 1711 8 1678 21 c 0,26,27
 1621 45 1621 45 1573 90 c 2,28,-1
 1558 106 l 1,29,-1
 1542 90 l 2,30,31
 1501 50 1501 50 1439 23 c 0,32,33
 1411 12 1411 12 1377.5 5 c 128,-1,34
 1344 -2 1344 -2 1313 -2 c 2,35,-1
 497 -2 l 2,36,37
 479 0 479 0 463 1 c 128,-1,38
 447 2 447 2 426 6 c 128,-1,39
 405 10 405 10 372 23 c 0,40,41
 316 47 316 47 269.5 90 c 128,-1,42
 223 133 223 133 196 192 c 0,43,44
 185 219 185 219 178 251 c 128,-1,45
 171 283 171 283 171 314 c 2,46,-1
 171 992 l 2,47,48
 171 1056 171 1056 195.5 1113.5 c 128,-1,49
 220 1171 220 1171 265 1212 c 128,-1,50
 310 1253 310 1253 373 1279.5 c 128,-1,51
 436 1306 436 1306 497 1306 c 2,52,-1
 660 1306 l 1,53,-1
 660 1143 l 1,54,-1
 497 1143 l 2,55,56
 466 1143 466 1143 433 1131 c 0,57,58
 407 1119 407 1119 380 1097 c 0,59,60
 334 1054 334 1054 334 992 c 2,61,-1
 334 314 l 2,62,63
 334 287 334 287 346 258.5 c 128,-1,64
 358 230 358 230 379.5 209 c 128,-1,65
 401 188 401 188 431.5 175.5 c 128,-1,66
 462 163 462 163 497 163 c 2,67,-1
 1313 163 l 2,68,69
 1345 163 1345 163 1375.5 175 c 128,-1,70
 1406 187 1406 187 1429 209 c 0,71,72
 1476 251 1476 251 1476 312 c 2,73,-1
 1476 1306 l 1,74,-1
 1640 1306 l 1,75,-1
 1640 314 l 2,76,77
 1640 293 1640 293 1641.5 283 c 128,-1,78
 1643 273 1643 273 1651 256 c 0,79,80
 1664 228 1664 228 1686 208 c 0,81,82
 1732 162 1732 162 1803 162 c 2,83,-1
 1808 162 l 1,84,-1
 1803 162 l 1,85,-1
 1798 162 l 1,86,-1
 1803 162 l 2,87,88
 1839 162 1839 162 1867.5 173.5 c 128,-1,89
 1896 185 1896 185 1919 208 c 0,90,91
 1966 252 1966 252 1966 312 c 2,92,-1
 1966 1306 l 1,93,-1
 2129 1306 l 1,94,-1
 2129 312 l 2,95,96
 2129 282 2129 282 2141 256 c 128,-1,97
 2153 230 2153 230 2175 208 c 0,98,99
 2224 162 2224 162 2292 162 c 2,100,-1
 2297 162 l 1,101,-1
 2292 162 l 1,102,-1
 2288 162 l 1,103,-1
 2292 162 l 2,104,105
 2322 162 2322 162 2353 174 c 128,-1,106
 2384 186 2384 186 2409 208 c 0,107,108
 2456 253 2456 253 2456 312 c 2,109,-1
 2456 1306 l 1,110,-1
 2619 1306 l 1,111,-1
 2619 312 l 2,112,113
 2619 283 2619 283 2631 256.5 c 128,-1,114
 2643 230 2643 230 2665 208 c 0,115,116
 2714 162 2714 162 2782 162 c 1,117,-1
 2777 162 l 1,118,-1
 2782 162 l 1,119,-1
 2782 -2 l 1,120,-1
 2778 -2 l 1,121,-1
 2782 -2 l 1,122,123
 2764 -2 2764 -2 2748 -1 c 128,-1,124
 2732 0 2732 0 2711 4 c 128,-1,125
 2690 8 2690 8 2657 21 c 0,126,127
 2605 43 2605 43 2553 90 c 2,128,129
 2547 93 2547 93 2537 106 c 1,130,-1
 2521 90 l 2,0,1
EndSplineSet
EndChar

StartChar: seeninitial
Encoding: 65203 65203 138
Width: 1433
Flags: W
AnchorPoint: "ArabicBelow" 716 -254 basechar 0
AnchorPoint: "ArabicAbove" 716 1554 basechar 0
LayerCount: 2
Fore
SplineSet
814 1304 m 1,0,-1
 814 310 l 2,1,2
 814 284 814 284 826 254 c 0,3,4
 839 226 839 226 861 206 c 0,5,6
 910 160 910 160 977 160 c 2,7,-1
 982 160 l 1,8,-1
 977 160 l 1,9,-1
 973 160 l 1,10,-1
 977 160 l 2,11,12
 1008 160 1008 160 1040 172 c 128,-1,13
 1072 184 1072 184 1095 206 c 0,14,15
 1141 250 1141 250 1141 310 c 2,16,-1
 1141 1304 l 1,17,-1
 1304 1304 l 1,18,-1
 1304 310 l 2,19,20
 1304 278 1304 278 1299 252.5 c 128,-1,21
 1294 227 1294 227 1291 217.5 c 128,-1,22
 1288 208 1288 208 1278 188 c 0,23,24
 1254 131 1254 131 1209 89.5 c 128,-1,25
 1164 48 1164 48 1103 22 c 128,-1,26
 1042 -4 1042 -4 977 -4 c 1,27,-1
 981 -4 l 1,28,-1
 977 -4 l 2,29,30
 908 -4 908 -4 854.5 18.5 c 128,-1,31
 801 41 801 41 749 88 c 2,32,33
 743 91 743 91 733 104 c 1,34,35
 724 92 724 92 717 88 c 2,36,37
 676 48 676 48 614 21 c 0,38,39
 586 10 586 10 552.5 3 c 128,-1,40
 519 -4 519 -4 488 -4 c 1,41,-1
 492 -4 l 1,42,-1
 488 -4 l 2,43,44
 424 -4 424 -4 364.5 20.5 c 128,-1,45
 305 45 305 45 259 88 c 2,46,-1
 243 104 l 1,47,-1
 228 88 l 2,48,49
 185 48 185 48 124 22 c 128,-1,50
 63 -4 63 -4 -2 -4 c 1,51,-1
 2 -4 l 1,52,-1
 -2 -4 l 1,53,-1
 -2 160 l 1,54,-1
 3 160 l 1,55,-1
 -2 160 l 1,56,57
 70 160 70 160 115.5 205.5 c 128,-1,58
 161 251 161 251 161 310 c 2,59,-1
 161 1304 l 1,60,-1
 325 1304 l 1,61,-1
 325 310 l 2,62,63
 325 281 325 281 337.5 254.5 c 128,-1,64
 350 228 350 228 372 206 c 0,65,66
 418 160 418 160 488 160 c 2,67,-1
 493 160 l 1,68,-1
 488 160 l 1,69,-1
 483 160 l 1,70,-1
 488 160 l 2,71,72
 518 160 518 160 549 172 c 128,-1,73
 580 184 580 184 605 206 c 0,74,75
 651 249 651 249 651 310 c 2,76,-1
 651 1304 l 1,77,-1
 814 1304 l 1,0,-1
EndSplineSet
EndChar

StartChar: seenmedial
Encoding: 65204 65204 139
Width: 1462
Flags: W
AnchorPoint: "ArabicBelow" 731 -252 basechar 0
AnchorPoint: "ArabicAbove" 731 1556 basechar 0
LayerCount: 2
Fore
SplineSet
1207 90 m 2,0,1
 1166 50 1166 50 1104 23 c 0,2,3
 1076 12 1076 12 1042.5 5 c 128,-1,4
 1009 -2 1009 -2 978 -2 c 0,5,6
 960 -2 960 -2 944 -1 c 128,-1,7
 928 0 928 0 907 4 c 128,-1,8
 886 8 886 8 853 21 c 0,9,10
 801 43 801 43 749 90 c 2,11,-1
 741 97 l 1,12,-1
 733 106 l 1,13,14
 724 94 724 94 717 90 c 2,15,16
 676 50 676 50 614 23 c 0,17,18
 586 12 586 12 552.5 5 c 128,-1,19
 519 -2 519 -2 488 -2 c 1,20,-1
 492 -2 l 1,21,-1
 488 -2 l 2,22,23
 425 -2 425 -2 363 22 c 0,24,25
 331 35 331 35 308.5 50 c 128,-1,26
 286 65 286 65 260 90 c 2,27,-1
 243 106 l 1,28,-1
 228 90 l 2,29,30
 185 50 185 50 124 24 c 128,-1,31
 63 -2 63 -2 -2 -2 c 1,32,-1
 2 -2 l 1,33,-1
 -2 -2 l 1,34,-1
 -2 162 l 1,35,-1
 3 162 l 1,36,-1
 -2 162 l 1,37,38
 66 162 66 162 114 207 c 128,-1,39
 162 252 162 252 162 312 c 2,40,-1
 162 1306 l 1,41,-1
 325 1306 l 1,42,-1
 325 312 l 2,43,44
 325 283 325 283 337.5 256.5 c 128,-1,45
 350 230 350 230 372 208 c 0,46,47
 421 162 421 162 488 162 c 2,48,-1
 493 162 l 1,49,-1
 488 162 l 1,50,-1
 483 162 l 1,51,-1
 488 162 l 2,52,53
 518 162 518 162 549 174 c 128,-1,54
 580 186 580 186 605 208 c 0,55,56
 651 251 651 251 651 312 c 2,57,-1
 651 1306 l 1,58,-1
 814 1306 l 1,59,-1
 814 312 l 2,60,61
 814 286 814 286 826 256 c 0,62,63
 839 228 839 228 861 208 c 0,64,65
 910 162 910 162 978 162 c 2,66,-1
 982 162 l 1,67,-1
 978 162 l 1,68,-1
 973 162 l 1,69,-1
 978 162 l 2,70,71
 1008 162 1008 162 1039 174 c 128,-1,72
 1070 186 1070 186 1095 208 c 0,73,74
 1141 251 1141 251 1141 312 c 2,75,-1
 1141 1306 l 1,76,-1
 1304 1306 l 1,77,-1
 1304 312 l 2,78,79
 1304 283 1304 283 1316.5 256.5 c 128,-1,80
 1329 230 1329 230 1351 208 c 0,81,82
 1400 162 1400 162 1467 162 c 1,83,-1
 1462 162 l 1,84,-1
 1467 162 l 1,85,-1
 1467 -2 l 1,86,87
 1404 -2 1404 -2 1342 22 c 0,88,89
 1310 35 1310 35 1287.5 50 c 128,-1,90
 1265 65 1265 65 1239 90 c 2,91,-1
 1222 106 l 1,92,-1
 1207 90 l 2,0,1
EndSplineSet
EndChar

StartChar: sheenisolated
Encoding: 65205 65205 140
Width: 2779
Flags: W
AnchorPoint: "ArabicBelow" 1389 -254 basechar 0
AnchorPoint: "ArabicAbove" 1389 1868 basechar 0
LayerCount: 2
Fore
SplineSet
1960 1618 m 1,0,-1
 2123 1618 l 1,1,-1
 2123 1455 l 1,2,-1
 1960 1455 l 1,3,-1
 1960 1618 l 1,0,-1
654 1304 m 1,4,-1
 491 1304 l 2,5,6
 424 1304 424 1304 367 1281 c 128,-1,7
 310 1258 310 1258 262 1213 c 0,8,9
 220 1174 220 1174 192.5 1113.5 c 128,-1,10
 165 1053 165 1053 165 990 c 2,11,-1
 165 312 l 2,12,13
 165 246 165 246 190 189.5 c 128,-1,14
 215 133 215 133 259.5 91.5 c 128,-1,15
 304 50 304 50 366 22 c 0,16,17
 426 -2 426 -2 491 -4 c 2,18,-1
 1307 -4 l 2,19,20
 1347 -4 1347 -4 1371 1 c 0,21,22
 1399 5 1399 5 1432 19 c 0,23,24
 1489 43 1489 43 1537 88 c 2,25,-1
 1552 104 l 1,26,-1
 1568 88 l 2,27,28
 1609 48 1609 48 1670 21 c 0,29,30
 1733 -4 1733 -4 1797 -4 c 2,31,-1
 1801 -4 l 1,32,-1
 1797 -4 l 1,33,34
 1866 -4 1866 -4 1922 19.5 c 128,-1,35
 1978 43 1978 43 2026 88 c 2,36,37
 2032 91 2032 91 2042 104 c 1,38,39
 2051 92 2051 92 2058 88 c 2,40,41
 2099 48 2099 48 2160 21 c 0,42,43
 2188 10 2188 10 2221.5 3 c 128,-1,44
 2255 -4 2255 -4 2286 -4 c 2,45,-1
 2290 -4 l 1,46,-1
 2286 -4 l 1,47,48
 2326 -4 2326 -4 2350 1 c 0,49,50
 2378 5 2378 5 2411 19 c 0,51,52
 2468 43 2468 43 2515 87 c 128,-1,53
 2562 131 2562 131 2587.5 188.5 c 128,-1,54
 2613 246 2613 246 2613 310 c 2,55,-1
 2613 1304 l 1,56,-1
 2450 1304 l 1,57,-1
 2450 310 l 2,58,59
 2450 281 2450 281 2437.5 254.5 c 128,-1,60
 2425 228 2425 228 2403 206 c 0,61,62
 2357 160 2357 160 2286 160 c 2,63,-1
 2282 160 l 1,64,-1
 2286 160 l 1,65,-1
 2291 160 l 1,66,-1
 2286 160 l 2,67,68
 2250 160 2250 160 2221.5 171.5 c 128,-1,69
 2193 183 2193 183 2170 206 c 0,70,71
 2123 250 2123 250 2123 310 c 2,72,-1
 2123 1304 l 1,73,-1
 1960 1304 l 1,74,-1
 1960 310 l 2,75,76
 1960 281 1960 281 1948 254.5 c 128,-1,77
 1936 228 1936 228 1914 206 c 0,78,79
 1865 160 1865 160 1797 160 c 2,80,-1
 1792 160 l 1,81,-1
 1797 160 l 1,82,-1
 1802 160 l 1,83,-1
 1797 160 l 2,84,85
 1766 160 1766 160 1735.5 172 c 128,-1,86
 1705 184 1705 184 1681 206 c 0,87,88
 1634 250 1634 250 1634 310 c 2,89,-1
 1634 1304 l 1,90,-1
 1470 1304 l 1,91,-1
 1470 312 l 2,92,93
 1470 285 1470 285 1458 256.5 c 128,-1,94
 1446 228 1446 228 1424.5 207 c 128,-1,95
 1403 186 1403 186 1372.5 173.5 c 128,-1,96
 1342 161 1342 161 1307 161 c 2,97,-1
 491 161 l 2,98,99
 455 161 455 161 427 172.5 c 128,-1,100
 399 184 399 184 375 207 c 0,101,102
 328 251 328 251 328 312 c 2,103,-1
 328 990 l 2,104,105
 328 1051 328 1051 375 1095 c 0,106,107
 397 1115 397 1115 429 1129 c 0,108,109
 461 1141 461 1141 491 1141 c 2,110,-1
 654 1141 l 1,111,-1
 654 1304 l 1,4,-1
1797 1618 m 1,112,-1
 1634 1618 l 1,113,-1
 1634 1455 l 1,114,-1
 1797 1455 l 1,115,-1
 1797 1618 l 1,112,-1
2450 1618 m 1,116,-1
 2286 1618 l 1,117,-1
 2286 1455 l 1,118,-1
 2450 1455 l 1,119,-1
 2450 1618 l 1,116,-1
EndSplineSet
EndChar

